<?xml version="1.0" encoding="UTF-8"?>
<svg width="128px" height="128px" viewBox="0 0 128 128" version="1.1" xmlns="http://www.w3.org/2000/svg" xmlns:xlink="http://www.w3.org/1999/xlink">
    <title>编组 5</title>
    <defs>
        <linearGradient x1="50%" y1="0%" x2="50%" y2="100%" id="linearGradient-1">
            <stop stop-color="#2614CC" offset="0%"></stop>
            <stop stop-color="#100F75" offset="100%"></stop>
        </linearGradient>
        <linearGradient x1="-0.0607425369%" y1="17.6294192%" x2="99.0198464%" y2="17.0062065%" id="linearGradient-2">
            <stop stop-color="#FFB900" offset="1e-05%"></stop>
            <stop stop-color="#F38000" offset="33.755317%"></stop>
            <stop stop-color="#F83C72" offset="56.728965%"></stop>
            <stop stop-color="#FC1CBE" offset="78%"></stop>
            <stop stop-color="#FE08ED" offset="93%"></stop>
            <stop stop-color="#FF00FF" offset="100%"></stop>
        </linearGradient>
        <linearGradient x1="-1.32559937%" y1="87.5169875%" x2="108.684292%" y2="5.12909646%" id="linearGradient-3">
            <stop stop-color="#EE0A3F" offset="0%"></stop>
            <stop stop-color="#EE0A3F" stop-opacity="0" offset="100%"></stop>
        </linearGradient>
        <linearGradient x1="35.9120549%" y1="66.404135%" x2="89.6436509%" y2="7.8592247%" id="linearGradient-4">
            <stop stop-color="#ED6600" offset="0%"></stop>
            <stop stop-color="#F98200" offset="100%"></stop>
        </linearGradient>
    </defs>
    <g id="页面-1" stroke="none" stroke-width="1" fill="none" fill-rule="evenodd">
        <g id="授权店铺tiktok备份-3" transform="translate(-680.000000, -470.000000)">
            <g id="编组-5" transform="translate(680.000000, 470.000000)">
                <rect id="矩形" fill="url(#linearGradient-1)" x="0" y="0" width="128" height="128" rx="32"></rect>
                <g id="编组-2" transform="translate(19.000000, 32.000000)" fill-rule="nonzero">
                    <g id="g942">
                        <g id="g71" transform="translate(1.614726, 0.034802)" fill="url(#linearGradient-2)">
                            <path d="M43.890973,71.1851733 C43.2684494,71.1893821 42.6556832,71.0300108 42.113951,70.7231074 C37.4761825,68.0398159 3.12744942,46.5031004 1.8302715,45.8455801 C0.843073925,45.3848996 0.168969955,44.4411616 0.0524672936,43.3578274 L0.0524672936,13.1494944 C0.0277642936,12.0219005 0.585207336,10.9607481 1.52818167,10.3419193 L1.77695694,10.1997602 C5.09988008,8.1384849 16.2236032,1.35049248 17.9828016,0.373161608 C18.3864988,0.133601246 18.8462686,0.00487439252 19.3155356,0 C19.7555303,0.00497841967 20.1879794,0.114618113 20.5772355,0.31985355 C20.5772355,0.31985355 36.1434486,10.4663069 38.5245201,11.3725504 C40.1952512,12.1401344 42.0170273,12.5227035 43.855456,12.4920392 C45.9386009,12.5355833 47.997027,12.0332451 49.8259584,11.0349306 C52.1538195,9.80882572 67.0269953,0.373161608 67.1868869,0.373161608 C67.5618322,0.146677495 67.99272,0.0297212424 68.4307633,0.0355392689 C68.9005507,0.0378383781 69.3608409,0.166750467 69.7634973,0.408700747 C71.7892685,1.52818167 85.5784596,9.9687564 86.1648157,10.3419193 C87.1347036,10.9270395 87.7226209,11.9814137 87.7109573,13.1139773 L87.7109573,43.3223104 C87.6020191,44.4082466 86.9257646,45.3549768 85.93389,45.8100631 C84.636673,46.5207938 50.3946211,68.0576394 45.6678649,70.6875903 C45.1297755,71.0069833 44.5167491,71.1785839 43.890973,71.1851733" id="path69"></path>
                        </g>
                        <g id="g79" transform="translate(44.547390, 11.442721)" fill="url(#linearGradient-3)">
                            <path d="M0.780593889,59.7773004 L0.958309098,59.7773004 C1.58083272,59.7814636 2.19359893,59.6220923 2.73520099,59.3151888 C7.37309958,56.6318973 41.7040091,35.0951818 43.0012261,34.4376616 C43.9931007,33.9825753 44.6693552,33.0358451 44.7783206,31.9499089 L44.7783206,1.74157584 C44.7838423,1.23019577 44.6681843,0.724735208 44.4405111,0.266721744 L0.780593889,24.2379014 L0.780593889,59.7773004" id="path77"></path>
                        </g>
                        <g id="g970" transform="translate(23.448413, 41.664220) scale(-1, 1) translate(-23.448413, -41.664220) translate(0.948413, 11.664220)" fill="url(#linearGradient-4)">
                            <path d="M0.772277615,59.1297926 L0.948099486,59.1297926 C1.56399088,59.1339114 2.17022881,58.976238 2.70606076,58.6726042 C7.29454822,56.0178999 41.2597039,34.7106318 42.5431006,34.0601166 C43.524408,33.6098788 44.1934578,32.6732347 44.3012623,31.5988679 L44.3012623,1.7123677 C44.3067252,1.20643576 44.1922994,0.706360263 43.9670518,0.253226372 L0.772277615,23.9690224 L0.772277615,59.1297926" id="path968"></path>
                        </g>
                    </g>
                    <path d="M44.658727,26.2576541 C46.964008,26.2287965 49.1493266,27.2796021 50.5668845,29.0977018 L50.5668845,26.6308711 L54.6262852,26.6308711 L54.6262852,45.082317 L50.5668845,45.082317 L50.5668845,42.6154862 C49.1493266,44.4335859 46.964008,45.4843916 44.658727,45.4555339 C39.5976386,45.4555339 35.7561699,41.1316823 35.7561699,35.8520621 C35.7561699,30.5723752 39.5976386,26.2576541 44.658727,26.2576541 M45.3964969,29.9533683 C42.1101884,29.9533683 39.9342003,32.5386287 39.9342003,35.8520621 C39.9342003,39.1654955 42.1461772,41.7598198 45.3964969,41.7598198 C48.6461501,41.7598198 50.858127,39.1745593 50.858127,35.8520621 C50.858127,32.5294983 48.6821389,29.9533683 45.3964969,29.9533683" id="path39" fill="#FFFFFF"></path>
                    <polyline id="path45" fill="#FFFFFF" points="57.7853001 41.8781162 67.4616158 30.3175214 57.9305881 30.3175214 57.9305881 26.6308711 72.7046474 26.6308711 72.7046474 29.880591 63.0649869 41.3956666 72.9232459 41.3956666 72.9232459 45.082317 57.7853001 45.082317 57.7853001 41.8781162"></polyline>
                    <polyline id="path33" fill="#FFFFFF" points="22.7300988 19.9766729 27.0812752 19.9766729 27.0812752 40.9132171 34.5818694 40.9132171 34.5818694 45.0459283 22.7482931 45.0459283 22.7300988 19.9766729"></polyline>
                </g>
            </g>
        </g>
    </g>
</svg>