<?xml version="1.0" encoding="UTF-8"?>
<!DOCTYPE svg PUBLIC "-//W3C//DTD SVG 1.1//EN" "http://www.w3.org/Graphics/SVG/1.1/DTD/svg11.dtd">
<!-- Creator: CorelDRAW 2019 (64-Bit) -->
<svg xmlns="http://www.w3.org/2000/svg" xml:space="preserve" width="0.86in" height="0.433335in" version="1.1" style="shape-rendering:geometricPrecision; text-rendering:geometricPrecision; image-rendering:optimizeQuality; fill-rule:evenodd; clip-rule:evenodd"
viewBox="0 0 244.9 123.4"
 xmlns:xlink="http://www.w3.org/1999/xlink"
 xmlns:xodm="http://www.corel.com/coreldraw/odm/2003">
 <defs>
  <style type="text/css">
   <![CDATA[
    .fil0 {fill:#F2273F}
    .fil1 {fill:white}
   ]]>
  </style>
 </defs>
 <g id="Layer_x0020_1">
  <metadata id="CorelCorpID_0Corel-Layer"/>
  <rect class="fil0" x="-0" y="0" width="244.9" height="123.4" rx="11.76" ry="11.75"/>
  <g id="_2587406986512">
   <path class="fil1" d="M33.23 81.24l0 2.94 168.47 0c1.64,0 2.67,-0.41 4.06,-1l1.59 -0.94c1.6,-1.34 1.9,-1.6 3.02,-3.43 1.55,-2.54 1.29,-5.11 1.29,-8.01l-167.98 0c-2.06,0 -3.48,0.43 -5.17,1.36 -1.41,0.78 -1.85,1.33 -2.85,2.37 -0.42,0.44 -1.3,1.85 -1.52,2.4 -0.56,1.39 -0.91,2.36 -0.91,4.32z"/>
   <path class="fil1" d="M201.38 86.55l-168.15 0 0 3.75 168.23 0c1.41,0 3.4,-0.51 4.62,-1.17 0.85,-0.46 2.01,-1.29 2.69,-2.04l0.28 -0.29c0.75,-0.77 1.68,-2.37 2.01,-3.38l0.51 -1.86c-0.4,0.11 -0.31,0.28 -0.62,0.6l-0.31 0.34c-0.15,0.19 -0.26,0.31 -0.44,0.46l-1.02 0.86c-0.22,0.18 -0.35,0.25 -0.56,0.41 -2.01,1.49 -4.72,2.3 -7.25,2.3z"/>
   <path class="fil1" d="M124.61 47.62l0 0zm0 0c0.1,-1.24 1.47,-4.3 0.46,-5.76 -1.19,-1.73 -3.81,-1.08 -5.45,-0.62l-1.53 0.51c0.12,0.45 0.99,0.17 0.52,3.46 -0.34,2.41 -0.78,4.78 -1.34,7.15 -0.13,0.56 -0.31,1.18 -0.41,1.71 -0.39,2.17 -1.37,4.66 -1.68,6.81 -0.29,1.95 1.35,3 3.31,2.99 1.65,-0.01 2.96,-0.69 3.51,-0.74 -0.09,-0.33 -0.14,-0.17 -0.29,-0.52 -0.31,-0.7 -0.24,-1.61 -0.11,-2.25 0.15,-0.7 0.58,-1.75 0.92,-2.43 0.12,-0.23 0.2,-0.29 0.3,-0.52 0.92,-1.99 1.28,-2.61 2.26,-4.43l2.93 -4.58c0.6,-0.77 1.62,-2.27 2.56,-2.5 0.13,0.25 0.19,0.3 0.13,0.7 -0.32,2.31 -0.81,4.52 -1.31,6.78l-1.4 5.78c-0.33,1.45 -0.77,3.26 0.55,4.12 1.17,0.76 2.96,0.61 4.42,0.21 0.47,-0.13 1.01,-0.29 1.36,-0.52 -0.95,-1.41 -0.53,-2.41 0.1,-4.06l1.69 -3.61c0.13,-0.23 0.2,-0.33 0.31,-0.59l1.6 -2.81c0.09,-0.14 0.08,-0.1 0.17,-0.23l3.07 -4.52c0.35,-0.38 0.93,-1.16 1.44,-1.27 0.32,-0.07 0.26,0.07 0.26,0.51 0,0.79 -0.26,1.48 -0.39,2.23 -0.11,0.61 -0.22,0.92 -0.35,1.45l-0.63 2.96c-0.39,2.35 -2.04,7.66 -0.45,9.63 0.41,0.51 1.04,0.85 1.67,1.02 1.81,0.49 3.35,-0.28 4.86,-1.07 0.34,-0.18 0.4,-0.07 0.43,-0.47 -0.55,-0.15 -0.9,-1.32 -0.99,-1.86 -0.12,-0.69 -0.15,-1.95 -0.03,-2.75 0.23,-1.57 1.3,-6.96 1.65,-8.31 0.11,-0.43 0.2,-0.78 0.27,-1.2 0.35,-2.11 1.47,-5.39 -0.57,-6.92 -1.32,-0.99 -3.67,-0.49 -5.03,0.25 -0.78,0.42 -1.44,0.92 -2.14,1.45 -0.51,0.38 -0.89,0.83 -1.33,1.28l-1.49 1.61c-0.28,0.36 -1.68,2.33 -1.91,2.5 0.03,-0.41 0.19,-0.98 0.29,-1.42 0.11,-0.49 0.21,-0.94 0.27,-1.44 0.22,-1.96 0.08,-4.15 -2.12,-4.64 -0.94,-0.21 -2.4,-0.05 -3.1,0.24 -1.58,0.66 -2.92,1.74 -4.06,2.88 -0.29,0.29 -0.59,0.56 -0.86,0.86 -0.16,0.18 -0.24,0.3 -0.41,0.49l-1.94 2.47z"/>
   <path class="fil1" d="M46.86 41.91l2.86 9.39 -5.79 0c0.09,-0.18 0.1,-0.36 0.16,-0.57l0.53 -1.75c0.3,-0.78 0.48,-1.55 0.74,-2.36l0.72 -2.38c0.29,-0.74 0.35,-1.24 0.54,-1.75l0.16 -0.41c0.07,-0.16 0.02,-0.07 0.09,-0.16zm-13.62 17.95c0,1.59 0.87,2.72 2.23,3.4 1.38,0.7 2.92,0.57 4.24,-0.19 0.58,-0.33 0.84,-0.86 1.18,-1.43 0.21,-0.35 0.22,-0.5 0.32,-0.9l0.6 -2.01c0.05,-0.15 0.1,-0.27 0.17,-0.48 0.08,-0.22 0.04,-0.35 0.3,-0.35l9.06 0c0.27,0 0.31,0.33 0.46,0.76 0.13,0.38 0.18,0.62 0.29,1.01 0.26,0.97 0.54,1.95 1.14,2.7 1.17,1.47 3.43,1.64 4.86,0.97 0.49,-0.23 0.79,-0.45 1.15,-0.81 0.77,-0.78 0.32,-0.25 0.85,-1.11 0.84,-1.37 0.09,-3.24 -0.31,-4.53l-6.88 -19.56c-0.79,-2.43 -1.45,-3.18 -3.72,-3.78 -1.78,-0.47 -5.54,-0.34 -7.1,1.2 -0.74,0.74 -1.19,2.47 -1.59,3.47l-5.24 14.83c-0.59,2.06 -2.01,4.79 -2.01,6.8z"/>
   <path class="fil1" d="M96.54 53.17c0,-1.35 -0.05,-2.04 0.26,-3.41 0.88,-3.8 5.4,-3.98 6.47,-1.37 0.24,0.58 0.43,0.96 0.53,1.67 0.27,1.98 0.37,4.88 -0.52,6.67 -0.92,1.86 -3.27,1.84 -4.57,1.19 -0.94,-0.47 -1.68,-1.65 -1.91,-2.65 -0.13,-0.55 -0.26,-1.48 -0.26,-2.1zm-7.99 -1.06c0,1.62 0.01,2.7 0.51,4.31 0.58,1.86 1.42,3.12 2.74,4.44 1.94,1.94 4.7,3.01 7.61,3.08 0.41,0.01 0.42,0.1 0.81,0.09 1.83,-0.04 3.27,-0.65 4.82,-1.47 0.84,1.26 3.01,1.91 4.73,1.06 1.56,-0.77 2.28,-2.53 2.28,-4.33l0 -13.87c0,-1.09 -0.42,-2.42 -1.02,-3.22 -1.22,-1.63 -3.87,-1.89 -5.4,-0.59 -0.24,0.2 -0.34,0.38 -0.59,0.55 -0.48,-0.11 -2.03,-1.39 -4.73,-1.39 -5.82,0 -10.13,3.34 -11.37,8.78 -0.17,0.74 -0.38,1.73 -0.38,2.56z"/>
   <path class="fil1" d="M158.71 58.56c-1.67,0 -0.55,-5.35 -0.46,-5.76 0.38,-1.63 0.31,-1.76 0.9,-3.51 0.1,-0.29 0.16,-0.53 0.27,-0.79l0.68 -1.45c0.49,-0.96 1.11,-1.82 2.07,-2.34 1.52,-0.82 3.21,0.39 4.24,1.42 0.32,0.32 0.66,0.47 0.46,0.98 -0.09,0.22 -0.17,0.34 -0.29,0.54l-4.66 7.58c-0.25,0.32 -0.46,0.58 -0.71,0.92 -0.13,0.17 -0.22,0.31 -0.35,0.47 -0.36,0.44 -1.65,1.95 -2.13,1.95zm-8 -2.04c0,1.53 -0.03,2.85 0.48,4.25 0.34,0.93 0.61,1.6 1.29,2.21 1.67,1.48 4.87,1.05 6.61,-0.21 1.88,-1.36 2.64,-2.24 3.97,-3.94 0.17,-0.22 0.23,-0.28 0.39,-0.51l1.45 -2.06c0,1.9 -0.54,3.16 0.08,5.22 0.7,2.33 3.7,2.79 5.96,1.96 0.46,-0.17 1.63,-0.76 1.63,-1.23 0,-0.12 -0.33,-0.57 -0.48,-1.07 -0.45,-1.43 -0.39,-3.24 -0.26,-4.81 0.07,-0.77 -0.05,-0.91 0.13,-2.23l0.67 -4.07c0.33,-1.65 1.15,-4.61 1.77,-6.07l0.86 -2.05c0.12,-0.49 -1.5,-0.74 -1.87,-0.85 -1.47,-0.39 -3.18,-0.55 -4.57,0.25 -0.22,0.13 -0.38,0.27 -0.57,0.4l-1.74 -0.79c-1.4,-0.47 -3.15,-0.43 -4.61,-0.18 -2.77,0.46 -5.69,2.94 -7.29,5.28 -0.39,0.57 -1.45,2.2 -1.71,2.78 -1.07,2.42 -0.97,1.96 -1.73,4.55 -0.24,0.8 -0.46,2.14 -0.46,3.13z"/>
   <path class="fil1" d="M75.99 39.38l0 2.12c-1.21,0 -2.56,0.42 -3.01,1.56 -0.47,1.19 -0.27,2.32 0.62,3.11 0.56,0.5 1.46,0.8 2.39,0.8l0 12.4c0,1.03 0.3,2.16 0.93,2.99 1.39,1.85 5.77,2.18 6.73,-1.29 0.33,-1.21 0.18,-12.06 0.18,-14.1 1.25,0 2.86,0.17 3.88,-0.6 1.08,-0.82 1.01,-1.41 1.01,-2.42 0,-0.68 -0.42,-1.44 -0.85,-1.76 -1.22,-0.91 -2.58,-0.69 -4.05,-0.69 0,-1.19 -0.21,-2.25 0.91,-2.6 0.87,-0.27 2.44,0.08 3.14,-0.21 0.22,-0.09 0.56,-0.29 0.7,-0.44 0.87,-0.87 0.82,-2.41 -0.01,-3.46 -0.19,-0.25 -0.3,-0.39 -0.57,-0.58 -1.92,-1.3 -5.55,-1.34 -7.69,-0.72 -2.82,0.82 -4.32,2.93 -4.32,5.88z"/>
   <path class="fil1" d="M198.36 36.2c0.05,0.54 0.65,0.34 0.65,1.55 0,1.8 0.04,1.77 -0.35,3.65 -0.2,1 -0.47,2.46 -0.79,3.46 -0.4,1.28 -1.5,6.84 -1.73,8.22 -0.41,2.39 -1.13,6.6 0.34,8.66 2.35,3.31 8.3,2.35 10.82,0.7 0.16,-0.1 0.26,-0.19 0.43,-0.31 2.51,-1.69 0.91,-4.02 0.75,-4.72 -0.17,0.05 -1.18,0.84 -1.9,1.2 -0.99,0.49 -2.91,1.17 -3.87,0.09 -0.8,-0.9 -0.39,-3.72 -0.18,-4.79 0.1,-0.5 0.17,-1.04 0.28,-1.59l1.01 -4.62c1.01,0 2.01,0 3.02,0 1.81,0 3.3,-0.32 4.24,-1.96 0.47,-0.81 0.57,-1.27 0.57,-2.53 -1.39,0.73 -5.26,0.65 -6.93,0.65 0.05,-0.22 0.08,-0.43 0.13,-0.69 0.06,-0.26 0.1,-0.39 0.16,-0.65l0.66 -2.61c0.81,-2.4 0.91,-4.62 -2.5,-4.62 -1.21,0 -2.58,0.28 -3.64,0.6 -0.35,0.1 -0.83,0.27 -1.17,0.3z"/>
   <path class="fil1" d="M62.93 38.16l0 20.56c0,1.75 0.59,3.71 1.98,4.46 1.64,0.89 3.83,0.66 5.01,-0.73 0.44,-0.52 1.08,-1.91 1.08,-2.83l0 -22.36c0,-0.52 -0.23,-1.14 -0.38,-1.58 -0.12,-0.36 -0.11,-0.38 -0.31,-0.67 -0.41,-0.62 -0.83,-1.17 -1.58,-1.52 -1.02,-0.48 -2.65,-0.48 -3.55,0.01 -1.66,0.89 -2.27,2.61 -2.27,4.67z"/>
   <path class="fil1" d="M184.98 47.79l0.54 -2.24c0.3,-1.34 0.97,-3.29 -0.47,-4.2 -1.33,-0.83 -3.15,-0.64 -4.55,-0.25 -0.78,0.22 -1.37,0.28 -2.05,0.64 0.07,0.19 0.02,0.06 0.14,0.19 0.12,0.14 0.03,-0.02 0.16,0.17 0.09,0.14 0.13,0.3 0.16,0.49 0.38,2.2 -0.28,4.86 -0.8,7.05l-0.73 3.19c-0.32,0.97 -0.98,3.93 -1.29,5.15 -0.44,1.73 -1.53,4.12 0.26,5.29 1.59,1.04 4.86,0.47 6.19,-0.23 -0.17,-0.26 -0.22,-0.2 -0.34,-0.56 -0.75,-2.18 1.36,-5.77 2.35,-7.79l0.51 -0.96c0.11,-0.18 0.16,-0.21 0.28,-0.46 0.55,-1.08 2.06,-3.13 2.92,-4.02 0.01,-0.01 0.03,-0.03 0.04,-0.04 0.01,-0.01 0.03,-0.03 0.04,-0.04 0.07,-0.07 0.13,-0.11 0.21,-0.19 0.15,-0.14 0.21,-0.22 0.38,-0.35 0.67,-0.51 1.39,-0.71 2.11,-0.13 0.31,0.25 0.45,0.63 0.72,0.83l0.44 -0.46c0.07,-0.08 0.08,-0.09 0.15,-0.17 0.64,-0.7 1.19,-1.39 1.71,-2.21 0.71,-1.13 1.59,-3.32 1.16,-4.7 -0.2,-0.63 -0.77,-1.19 -1.66,-1.19 -1.47,0 -1.98,0.3 -3.14,1.11 -0.79,0.55 -1.34,1.13 -2.03,1.81l-1.75 2.08c-0.16,0.18 -0.24,0.31 -0.39,0.5l-1.26 1.68z"/>
  </g>
 </g>
</svg>
