<?xml version="1.0" encoding="UTF-8"?>
<svg version="1.1" xmlns="http://www.w3.org/2000/svg" width="1253" height="621">
<path d="M0 0 C413.49 0 826.98 0 1253 0 C1253 204.93 1253 409.86 1253 621 C839.51 621 426.02 621 0 621 C0 416.07 0 211.14 0 0 Z " fill="#025CFB" transform="translate(0,0)"/>
<path d="M0 0 C122.74860335 0 122.74860335 0 142.26171875 18.09765625 C152.58828642 28.93563489 156.39910783 41.54922736 156.375 56.1875 C156.37338867 57.20328125 156.37177734 58.2190625 156.37011719 59.265625 C156.24172809 67.15022634 155.25332818 73.73911185 152 81 C151.69964844 81.67675781 151.39929688 82.35351562 151.08984375 83.05078125 C146.5511321 91.91207541 138.5214452 99.82618493 129 103 C128.67 103.66 128.34 104.32 128 105 C128.70511719 105.11085938 129.41023437 105.22171875 130.13671875 105.3359375 C141.39398776 107.94676387 150.49041624 114.93138739 156.8125 124.375 C165.20888124 138.33709182 166.1178618 156.16193113 162.875 171.9375 C158.85183562 186.6145997 150.00684053 198.93496818 137 207 C96.27837704 227.70259968 40.39474388 218 0 218 C0 146.06 0 74.12 0 0 Z " fill="#FCFCFE" transform="translate(312,57)"/>
<path d="M0 0 C14.19 0 28.38 0 43 0 C43 40.59 43 81.18 43 123 C43.66 123 44.32 123 45 123 C45.40617554 122.12299438 45.40617554 122.12299438 45.82055664 121.22827148 C46.99291872 119.01337836 48.27149861 117.27119424 49.87109375 115.34765625 C50.44005371 114.66002197 51.00901367 113.9723877 51.59521484 113.26391602 C52.507146 112.17421509 52.507146 112.17421509 53.4375 111.0625 C54.37650146 109.93122681 54.37650146 109.93122681 55.33447266 108.77709961 C59.60324761 103.64338462 63.91405282 98.54574893 68.23828125 93.45874023 C70.84883739 90.38139271 73.41721108 87.27665493 75.9375 84.125 C76.55254395 83.39039551 77.16758789 82.65579102 77.80126953 81.89892578 C79.49223219 79.66946868 80.7582648 77.67872339 82.08129883 75.2512207 C85.26256537 69.88512732 88.52295962 64.99833423 94.76901245 63.20495605 C102.74505735 62.11037058 110.73966576 62.63395251 118.75 63.0625 C121.20031624 63.13783702 123.65085533 63.20626139 126.1015625 63.26757812 C132.0726138 63.43193389 138.03526066 63.68201581 144 64 C144 66 144 66 141.890625 68.1796875 C141.43236328 68.62022461 140.97410156 69.06076172 140.50195312 69.51464844 C137.75204742 72.23415856 135.27217972 75.19579988 132.75 78.125 C132.17717285 78.78806152 131.6043457 79.45112305 131.01416016 80.13427734 C127.01355991 84.78125788 123.10203182 89.49309625 119.2421875 94.2578125 C116.69746377 97.37000076 114.10384377 100.43728764 111.5 103.5 C107.27650067 108.46916846 103.11803413 113.48531181 99.01953125 118.55859375 C97.20190746 120.75591457 95.30897607 122.84347074 93.375 124.9375 C90.73237607 127.61519646 90.73237607 127.61519646 91.20556641 129.94458008 C92.05451936 132.14105671 93.06495786 133.96657675 94.3359375 135.94921875 C94.81740234 136.70589844 95.29886719 137.46257812 95.79492188 138.2421875 C96.57706055 139.45261719 96.57706055 139.45261719 97.375 140.6875 C98.18420898 141.95400391 98.18420898 141.95400391 99.00976562 143.24609375 C100.66660477 145.83502603 102.33163513 148.41848276 104 151 C104.47856445 151.74072754 104.95712891 152.48145508 105.45019531 153.24462891 C107.24953101 156.02699441 109.05075215 158.80812109 110.85522461 161.5871582 C115.79803899 169.20744069 120.63647853 176.8928932 125.47509766 184.57958984 C127.51500608 187.81744641 129.56072785 191.0516106 131.60668945 194.28564453 C133.10207069 196.65122752 134.59419758 199.01883833 136.0859375 201.38671875 C138.03641524 204.48118897 140.00140451 207.56576188 141.9765625 210.64453125 C142.90110467 212.09631405 143.82558668 213.54813515 144.75 215 C145.18070801 215.66475342 145.61141602 216.32950684 146.05517578 217.0144043 C149 221.66088574 149 221.66088574 149 225 C141.79833527 225.45907902 134.60046049 225.77256663 127.38745117 225.98876953 C124.93907829 226.07891747 122.49166499 226.2014988 120.04663086 226.35791016 C100.38746273 227.58335433 100.38746273 227.58335433 94.90560913 223.402771 C91.28414268 219.22363902 89.11092126 214.43419834 87.01803589 209.35650635 C85.52925314 205.91033512 83.57536183 202.83546369 81.55859375 199.6796875 C80.18489078 197.41146139 78.81119285 195.14323224 77.4375 192.875 C71.37151966 182.86619201 65.25262851 172.89359401 59 163 C55.41443874 165.9009067 52.17406457 168.71735929 49.1875 172.25 C48.60355469 172.93578125 48.01960937 173.6215625 47.41796875 174.328125 C46.95003906 174.87984375 46.48210938 175.4315625 46 176 C45.67 176.33 45.34 176.66 45 177 C44.8775669 178.50316769 44.82223715 180.01188167 44.79467773 181.51977539 C44.77473251 182.48069595 44.75478729 183.44161652 44.73423767 184.43165588 C44.71752518 185.476436 44.70081268 186.52121613 44.68359375 187.59765625 C44.66281265 188.66165146 44.64203156 189.72564667 44.62062073 190.82188416 C44.55500746 194.2353544 44.49618577 197.64890429 44.4375 201.0625 C44.39432597 203.37045109 44.35071206 205.678394 44.30664062 207.98632812 C44.1984828 213.6574715 44.09949699 219.32867149 44 225 C29.48 225 14.96 225 0 225 C0 150.75 0 76.5 0 0 Z " fill="#FBFCFD" transform="translate(831,50)"/>
<path d="M0 0 C11.88860329 9.58498503 18.4172953 22.09193692 21 37 C21.84847477 45.98000142 21.58512501 55.02701196 21.48828125 64.03515625 C21.47893617 66.61160083 21.47182809 69.1880544 21.46684265 71.76451111 C21.44983221 77.80615406 21.41060202 83.84726154 21.3600952 89.88870472 C21.30377117 96.77886543 21.27660828 103.66905098 21.25161803 110.55938542 C21.19966935 124.70654536 21.10815372 138.85316065 21 153 C7.8 153 -5.4 153 -19 153 C-19.99 146.07 -19.99 146.07 -21 139 C-21.79921875 139.66386719 -22.5984375 140.32773437 -23.421875 141.01171875 C-39.75625222 154.26773267 -56.26588926 157.56602045 -77 156 C-88.56648445 154.33545058 -99.66706084 148.09428239 -107 139 C-114.26267006 128.68837884 -116.51717889 119.65631682 -116.4375 107.125 C-116.45748047 106.01769531 -116.47746094 104.91039062 -116.49804688 103.76953125 C-116.49139855 92.45408651 -113.46513441 83.51860837 -106 75 C-105.52175781 74.40574219 -105.04351562 73.81148438 -104.55078125 73.19921875 C-94.66585459 61.96974287 -78.33500458 58.10671464 -64 57 C-56.71204719 56.70248077 -49.41676498 56.80935306 -42.125 56.875 C-40.16536919 56.88505604 -38.20573335 56.89417722 -36.24609375 56.90234375 C-31.49726913 56.92413511 -26.74869177 56.95851835 -22 57 C-22.12298428 54.76123409 -22.25653491 52.52304699 -22.39453125 50.28515625 C-22.46776611 49.03871338 -22.54100098 47.79227051 -22.61645508 46.50805664 C-23.29412557 40.30980888 -25.4339729 36.67788618 -29.625 32.1875 C-37.16116322 26.58271529 -46.56119983 26.19639012 -55.53515625 27.31640625 C-67.30427911 29.33552934 -77.79443185 35.2781875 -86 44 C-92.81413156 40.94180588 -97.39746413 34.62882909 -102.15234375 29.05078125 C-104.78549046 26.12815541 -107.67542213 23.49458151 -110.59375 20.859375 C-112 19 -112 19 -112.04296875 17.09375 C-106.07191761 5.10692074 -89.81740139 -2.47187459 -77.89697266 -6.63549805 C-53.25422778 -14.88070246 -22.32494319 -14.27377174 0 0 Z " fill="#FBFBFD" transform="translate(609,122)"/>
<path d="M0 0 C13.2251706 9.83467695 19.11239603 23.51911376 21.52174377 39.44978333 C22.15759729 44.66523674 22.13222048 49.85007041 22.11352539 55.09765625 C22.11367142 56.18147079 22.11381744 57.26528534 22.1139679 58.38194275 C22.11327469 61.9421493 22.10551008 65.50230266 22.09765625 69.0625 C22.09578997 71.53971325 22.09436706 74.01692687 22.09336853 76.49414062 C22.08955992 82.99767078 22.0797438 89.50117842 22.06866455 96.00469971 C22.05841479 102.64766171 22.05386328 109.29062592 22.04882812 115.93359375 C22.03812001 128.95574062 22.02053666 141.97786491 22 155 C7.48 155 -7.04 155 -22 155 C-22.03738281 147.83667969 -22.07476563 140.67335938 -22.11328125 133.29296875 C-22.1435765 128.74021085 -22.17473464 124.18749131 -22.20898438 119.63476562 C-22.26320059 112.4170938 -22.31431499 105.19949784 -22.34643555 97.98168945 C-22.37254815 92.15899847 -22.41300687 86.33656392 -22.46318626 80.51403236 C-22.47980123 78.29866043 -22.4913488 76.08324421 -22.49761391 73.86781883 C-22.5073135 70.75169713 -22.53544267 67.63622361 -22.56762695 64.52026367 C-22.56619186 63.61538712 -22.56475677 62.71051056 -22.5632782 61.7782135 C-22.69736111 52.52843125 -24.20497149 43.49945325 -30.84765625 36.66015625 C-36.99757706 31.91656942 -44.38510176 30.1539002 -52 31 C-61.12943452 32.64124666 -66.68220628 36.80910267 -72.375 44 C-75.96398444 50.62581742 -76.30148812 56.67888828 -76.31884766 64.06616211 C-76.33391609 65.54536133 -76.33391609 65.54536133 -76.34928894 67.05444336 C-76.38003876 70.29540454 -76.39713337 73.53628341 -76.4140625 76.77734375 C-76.43278073 79.03179122 -76.45235463 81.28623173 -76.4727478 83.54066467 C-76.52400569 89.46053968 -76.56366545 95.38043738 -76.60089111 101.30041504 C-76.64802313 108.41078621 -76.70959381 115.52104531 -76.76873779 122.63132477 C-76.85687268 133.42083778 -76.92669275 144.21033016 -77 155 C-91.52 155 -106.04 155 -121 155 C-121 101.87 -121 48.74 -121 -6 C-107.14 -6 -93.28 -6 -79 -6 C-78.34 -0.72 -77.68 4.56 -77 10 C-75.618125 8.494375 -74.23625 6.98875 -72.8125 5.4375 C-54.33553785 -13.03946215 -21.4343034 -15.04020539 0 0 Z " fill="#FAFBFD" transform="translate(780,120)"/>
<path d="M0 0 C11.15616508 8.88923233 16.46806723 21.27633436 18.28914547 35.21278954 C18.91728527 41.20550402 19.13812039 47.10846594 19.11352539 53.13134766 C19.11367142 54.08865784 19.11381744 55.04596802 19.1139679 56.0322876 C19.11327776 59.1595699 19.10552796 62.28679075 19.09765625 65.4140625 C19.09578887 67.59695401 19.09436648 69.77984595 19.09336853 71.96273804 C19.08956855 77.68041155 19.07976002 83.39805927 19.06866455 89.11572266 C19.05839602 94.96125947 19.05385929 100.8068005 19.04882812 106.65234375 C19.03813528 118.10157377 19.02108943 129.55078473 19 141 C13.74894558 141.02464928 8.49792455 141.04283568 3.24682617 141.05493164 C1.45905979 141.05997218 -0.32870245 141.06680454 -2.11645508 141.07543945 C-4.68051168 141.0875173 -7.24451397 141.09323094 -9.80859375 141.09765625 C-11.01484657 141.10539818 -11.01484657 141.10539818 -12.24546814 141.11329651 C-14.16401715 141.11349215 -16.08245368 141.06201983 -18 141 C-19 140 -19 140 -19.09765625 137.05859375 C-19.08605469 135.86363281 -19.07445312 134.66867187 -19.0625 133.4375 C-19.05347656 132.23996094 -19.04445313 131.04242187 -19.03515625 129.80859375 C-19.02355469 128.88175781 -19.01195312 127.95492187 -19 127 C-19.79921875 127.66386719 -20.5984375 128.32773437 -21.421875 129.01171875 C-36.08604387 140.91411706 -51.15437677 145.446098 -70 144 C-82.56729433 142.2552997 -92.35216462 137.33764326 -101 128 C-109.54558061 116.03193561 -111.25027609 101.32537041 -110 87 C-107.42286489 74.79174284 -100.2301941 65.81515846 -90 59 C-75.29462048 50.12606408 -57.52901674 50.57309069 -40.9375 50.8125 C-39.08790172 50.8275981 -37.23829129 50.8412773 -35.38867188 50.85351562 C-30.92547253 50.88606019 -26.46287689 50.93754855 -22 51 C-22.22971198 48.45503311 -22.48298409 45.9161014 -22.75 43.375 C-22.811875 42.66214844 -22.87375 41.94929688 -22.9375 41.21484375 C-23.48977184 36.19837452 -24.75854171 33.02781206 -28 29 C-36.23863759 22.64938353 -45.99577694 23.04189747 -56 24 C-64.29980248 25.86375418 -70.54306644 29.64253583 -76.87890625 35.23046875 C-78.8559995 36.87986699 -80.65601941 37.963546 -83 39 C-90.7821994 31.34445484 -98.26736921 23.61776742 -105 15 C-100.02714008 3.73494997 -87.68966332 -2.85125572 -76.78515625 -7.31640625 C-73.86338344 -8.33545442 -70.99971895 -9.23876479 -68 -10 C-66.96782349 -10.26272705 -66.96782349 -10.26272705 -65.91479492 -10.53076172 C-43.29538432 -15.71664152 -19.19360742 -13.21527068 0 0 Z " fill="#FAFBFD" transform="translate(481,413)"/>
<path d="M0 0 C15.80701786 11.17622953 24.32529568 26.39768662 28.5859375 45.1484375 C30.13651462 56.65535189 29.7734375 68.3500216 29.7734375 79.9609375 C-1.5765625 79.9609375 -32.9265625 79.9609375 -65.2265625 79.9609375 C-62.43708414 91.11885093 -59.343095 100.54379477 -49.5 107.11328125 C-40.36783854 112.573148 -28.82504746 112.13243323 -18.57421875 110.3125 C-9.90916515 107.85477571 -0.37970823 103.75417557 5.7734375 96.9609375 C10.18083163 98.51283684 12.43973308 101.99644857 15.1484375 105.5859375 C15.63159424 106.21387207 16.11475098 106.84180664 16.61254883 107.48876953 C18.0079155 109.30661246 19.39248905 111.1321279 20.7734375 112.9609375 C21.78857422 114.29898438 21.78857422 114.29898438 22.82421875 115.6640625 C24.14967596 117.42290309 25.46338345 119.19059419 26.7734375 120.9609375 C22.34593525 131.76209682 7.86227642 137.62909355 -2.2265625 141.9609375 C-20.87998879 149.43094386 -45.58587748 150.02275842 -64.27734375 142.3671875 C-77.50133555 136.49643975 -87.85688376 127.50391289 -95.2265625 114.9609375 C-95.83242188 113.93613281 -96.43828125 112.91132812 -97.0625 111.85546875 C-107.931242 91.92944175 -110.1782851 65.67575083 -104.5390625 43.7734375 C-98.75725743 25.05332739 -88.30214782 8.69808641 -71.19921875 -1.5390625 C-49.42615655 -12.52573252 -20.93042339 -13.29895535 0 0 Z " fill="#FAFBFE" transform="translate(1004.2265625,410.0390625)"/>
<path d="M0 0 C1.37744385 0.01522705 1.37744385 0.01522705 2.78271484 0.03076172 C16.08315767 0.33384547 27.8593075 3.80781106 37.875 12.9375 C50.30169283 26.30831528 52.80664208 43.30267589 52.73852539 60.76000977 C52.73867142 61.7561882 52.73881744 62.75236664 52.7389679 63.7787323 C52.73827634 67.04131315 52.73051969 70.30383549 52.72265625 73.56640625 C52.72078938 75.84040801 52.71936674 78.11441017 52.71836853 80.38841248 C52.71456457 86.35105515 52.70475252 92.31367317 52.69366455 98.27630615 C52.68340469 104.36974758 52.67886113 110.46319303 52.67382812 116.55664062 C52.66312824 128.49610628 52.64554874 140.43554723 52.625 152.375 C39.425 152.375 26.225 152.375 12.625 152.375 C12.57601562 146.06632813 12.52703125 139.75765625 12.4765625 133.2578125 C12.44115299 129.24738036 12.40517972 125.23696898 12.3671875 121.2265625 C12.30701467 114.86917179 12.24886427 108.51180995 12.203125 102.15429688 C12.16609412 97.02542187 12.11968699 91.8967076 12.06693649 86.76797104 C12.04848676 84.81692211 12.03334452 82.86583885 12.02165604 80.9147377 C12.00463126 78.16971835 11.97555919 75.42505962 11.94384766 72.68017578 C11.94168747 71.88391281 11.93952728 71.08764984 11.93730164 70.26725769 C11.80979872 61.55720387 10.58440791 52.73741999 5.625 45.375 C3.24657423 42.97093616 3.24657423 42.97093616 0.625 41.375 C0.08488281 41.01792969 -0.45523438 40.66085937 -1.01171875 40.29296875 C-4.51689722 38.93145315 -7.98191295 39.04648623 -11.6875 39.0625 C-12.42162109 39.04638672 -13.15574219 39.03027344 -13.91210938 39.01367188 C-20.04813512 39.00822731 -24.84610316 40.30011652 -29.703125 44.28515625 C-30.33734375 44.99542969 -30.9715625 45.70570313 -31.625 46.4375 C-32.26953125 47.12972656 -32.9140625 47.82195312 -33.578125 48.53515625 C-37.9120445 55.38463338 -38.82121512 63.0046816 -38.80737305 70.95556641 C-38.8175647 71.85435516 -38.82775635 72.75314392 -38.83825684 73.6791687 C-38.86813872 76.61169875 -38.8776145 79.54390087 -38.88671875 82.4765625 C-38.90358386 84.52494369 -38.92173655 86.57331464 -38.94111633 88.62167358 C-38.98842342 93.98420005 -39.0183573 99.346685 -39.04455566 104.70935059 C-39.07972663 111.15903671 -39.1366841 117.60856352 -39.18994904 124.05812073 C-39.26823648 133.83039301 -39.3190135 143.60245998 -39.375 153.375 C-52.905 153.375 -66.435 153.375 -80.375 153.375 C-80.375 103.875 -80.375 54.375 -80.375 3.375 C-67.175 3.375 -53.975 3.375 -40.375 3.375 C-39.88 10.8 -39.88 10.8 -39.375 18.375 C-38.09625 17.01375 -36.8175 15.6525 -35.5 14.25 C-25.39799948 4.19542671 -14.18651477 -0.22843361 0 0 Z " fill="#FAFBFE" transform="translate(604.375,400.625)"/>
<path d="M0 0 C52.47 0 104.94 0 159 0 C159 13.53 159 27.06 159 41 C140.19 41 121.38 41 102 41 C102 94.46 102 147.92 102 203 C87.48 203 72.96 203 58 203 C58 149.54 58 96.08 58 41 C38.86 41 19.72 41 0 41 C0 27.47 0 13.94 0 0 Z " fill="#FAFBFD" transform="translate(112,351)"/>
<path d="M0 0 C1.77008423 0.01305176 1.77008423 0.01305176 3.57592773 0.02636719 C23.72463535 0.36344533 38.56861969 6.39871466 55.75 16.375 C54.30457075 20.17153885 52.59336208 23.73327837 50.7109375 27.33203125 C50.13085938 28.44384766 49.55078125 29.55566406 48.953125 30.70117188 C48.34984375 31.85166016 47.7465625 33.00214844 47.125 34.1875 C46.51398438 35.35732422 45.90296875 36.52714844 45.2734375 37.73242188 C43.76775034 40.6144012 42.25986725 43.49520905 40.75 46.375 C36.97658015 45.70727869 34.83622409 44.92759112 31.8125 42.5625 C22.7044465 36.36603737 13.00334951 35.02975288 2.25 34.9375 C1.40139404 34.92734863 0.55278809 34.91719727 -0.3215332 34.90673828 C-6.22678668 34.98996865 -10.71914083 35.9285028 -15.125 40.1875 C-16.69116749 43.23282568 -16.79236086 44.98524461 -16.25 48.375 C-13.41868118 53.61818301 -10.51922147 54.87132935 -4.875 56.625 C-2.67104009 57.22464542 -0.46250416 57.80769124 1.75 58.375 C2.82378906 58.68566406 3.89757812 58.99632812 5.00390625 59.31640625 C7.91426029 60.13883164 10.8208916 60.90346509 13.75390625 61.63671875 C29.75240433 65.69334249 46.2813202 69.97519185 55.37109375 85.06640625 C58.99899677 92.12694272 59.95649815 97.57997839 60 105.4375 C60.020625 106.34177734 60.04125 107.24605469 60.0625 108.17773438 C60.12821114 119.66897066 56.47915899 131.03084654 48.67578125 139.671875 C43.84420792 144.15773366 38.69431614 147.55448265 32.75 150.375 C31.61304688 150.92994141 31.61304688 150.92994141 30.453125 151.49609375 C11.66822687 159.87563164 -15.10630928 159.14994992 -34.25 152.375 C-35.28511719 152.024375 -36.32023438 151.67375 -37.38671875 151.3125 C-45.72077545 148.17497277 -52.92366951 143.34953505 -60.25 138.375 C-57.95593304 132.35350288 -54.85626905 126.79339613 -51.8125 121.125 C-51.22662109 120.01125 -50.64074219 118.8975 -50.03710938 117.75 C-49.46927734 116.69296875 -48.90144531 115.6359375 -48.31640625 114.546875 C-47.80021729 113.5784668 -47.28402832 112.61005859 -46.75219727 111.61230469 C-45.25 109.375 -45.25 109.375 -42.25 108.375 C-39.98680336 109.52744355 -37.89754319 110.72324336 -35.75 112.0625 C-24.24125162 118.92687015 -13.58064018 121.516886 -0.25 121.6875 C0.88308594 121.73100586 0.88308594 121.73100586 2.0390625 121.77539062 C7.75929911 121.83927643 11.9454234 120.49955903 16.75 117.375 C19.29190641 114.83309359 19.19301579 113.60161401 19.375 110.0625 C19.44976563 109.11761719 19.52453125 108.17273438 19.6015625 107.19921875 C18.44283405 103.35627991 16.64798788 102.38914591 13.21972656 100.47583008 C8.73770741 98.47806175 4.08759734 97.43765517 -0.6875 96.375 C-2.82476811 95.86688859 -4.96148587 95.35645685 -7.09765625 94.84375 C-8.14195801 94.59625 -9.18625977 94.34875 -10.26220703 94.09375 C-20.96774982 91.51840125 -31.23236967 88.99360037 -40.25 82.375 C-40.89195312 81.92511719 -41.53390625 81.47523438 -42.1953125 81.01171875 C-49.86212346 75.12055448 -54.71506181 65.84045217 -56.25 56.375 C-57.33952834 41.78742617 -55.54783254 29.137755 -46.25 17.375 C-34.12540298 3.94718333 -17.50875157 -0.21586304 0 0 Z " fill="#FAFBFD" transform="translate(734.25,400.625)"/>
<path d="M0 0 C0.18463754 7.31626261 -0.5302655 14.31570029 -1.5 21.5625 C-1.64308594 22.66658203 -1.78617188 23.77066406 -1.93359375 24.90820312 C-2.2839799 27.6061765 -2.63955269 30.3033556 -3 33 C-4.44940954 32.84684704 -5.89858473 32.69147511 -7.34765625 32.53515625 C-8.15468994 32.44886963 -8.96172363 32.36258301 -9.79321289 32.27368164 C-12 32 -12 32 -14.4375 31.4375 C-20.1579055 30.4608454 -25.18792785 30.07749054 -30.4375 32.75 C-33.28518837 35.09515188 -33.28518837 35.09515188 -36 39 C-36.33 44.28 -36.66 49.56 -37 55 C-26.11 55 -15.22 55 -4 55 C-4 66.55 -4 78.1 -4 90 C-14.89 90 -25.78 90 -37 90 C-37 127.95 -37 165.9 -37 205 C-50.2 205 -63.4 205 -77 205 C-77 167.05 -77 129.1 -77 90 C-83.6 90 -90.2 90 -97 90 C-97 78.78 -97 67.56 -97 56 C-90.07 56 -83.14 56 -76 56 C-76.04640625 54.26234375 -76.0928125 52.5246875 -76.140625 50.734375 C-76.17817512 48.40626735 -76.21457177 46.0781409 -76.25 43.75 C-76.28351562 42.61046875 -76.31703125 41.4709375 -76.3515625 40.296875 C-76.49297367 27.85269237 -73.24496552 17.46393373 -65 8 C-48.46695285 -8.24737895 -20.42005913 -6.80668638 0 0 Z " fill="#F9FAFE" transform="translate(898,349)"/>
<path d="M0 0 C1.41055664 0.00773437 1.41055664 0.00773437 2.84960938 0.015625 C9.72010316 0.09420105 9.72010316 0.09420105 13.1875 1.25 C13.59309032 15.23535496 12.51404024 28.45694 10.1875 42.25 C9.48681396 42.17297852 8.78612793 42.09595703 8.06420898 42.01660156 C-9.67127607 40.11388856 -9.67127607 40.11388856 -25.9375 46.1875 C-31.08418722 50.78426721 -34.40350598 58.57979669 -35.8125 65.25 C-35.93044672 68.07075684 -35.99750129 70.86890758 -36.01782227 73.69042969 C-36.02772186 74.53957443 -36.03762146 75.38871918 -36.04782104 76.26359558 C-36.07937247 79.06632716 -36.10416835 81.86907568 -36.12890625 84.671875 C-36.14948126 86.61672401 -36.17047788 88.5615686 -36.19187927 90.50640869 C-36.24704338 95.62242045 -36.29647763 100.73847219 -36.34472656 105.85455322 C-36.4038207 111.99450549 -36.47001753 118.13438479 -36.53502655 124.27427673 C-36.63296485 133.59947321 -36.72186966 142.92471673 -36.8125 152.25 C-50.0125 152.25 -63.2125 152.25 -76.8125 152.25 C-76.8125 102.75 -76.8125 53.25 -76.8125 2.25 C-63.9425 2.25 -51.0725 2.25 -37.8125 2.25 C-37.1525 7.53 -36.4925 12.81 -35.8125 18.25 C-34.1109375 16.208125 -34.1109375 16.208125 -32.375 14.125 C-23.30496882 3.95120841 -13.49389194 -0.30217253 0 0 Z " fill="#F8FAFD" transform="translate(1130.8125,401.75)"/>
<path d="M0 0 C1.24233398 0.00773437 1.24233398 0.00773437 2.50976562 0.015625 C6.58972799 0.06789033 10.31410941 0.3752014 14.3125 1.25 C14.19216457 5.14213533 14.06784336 9.0341232 13.94018555 12.92602539 C13.87674794 14.88356265 13.81626182 16.84119486 13.75585938 18.79882812 C13.48550432 26.97186952 13.01567332 35.10268022 12.3125 43.25 C9.54973823 42.72731534 6.9864124 42.14130413 4.3125 41.25 C-10.70619411 40.32066387 -10.70619411 40.32066387 -24 46.25 C-29.53998439 51.58812261 -33.51578509 59.23265943 -33.84571838 66.95158386 C-33.86638953 68.52389882 -33.88167809 70.09628983 -33.89282227 71.66870117 C-33.90272186 72.52745346 -33.91262146 73.38620575 -33.92282104 74.27098083 C-33.95442766 77.11161535 -33.97919021 79.9522666 -34.00390625 82.79296875 C-34.0244765 84.76166724 -34.04547299 86.73036132 -34.06687927 88.6990509 C-34.12209262 93.88248118 -34.17150518 99.06595127 -34.21972656 104.24945068 C-34.27877551 110.46780506 -34.34499946 116.68608662 -34.41002655 122.9043808 C-34.5080268 132.35287609 -34.59688924 141.80141793 -34.6875 151.25 C-47.8875 151.25 -61.0875 151.25 -74.6875 151.25 C-74.6875 102.08 -74.6875 52.91 -74.6875 2.25 C-61.8175 2.25 -48.9475 2.25 -35.6875 2.25 C-35.6875 8.19 -35.6875 14.13 -35.6875 20.25 C-35.0275 20.25 -34.3675 20.25 -33.6875 20.25 C-33.5740625 19.65960938 -33.460625 19.06921875 -33.34375 18.4609375 C-31.46604036 12.1348443 -25.47091849 8.10561233 -20.2265625 4.609375 C-13.40424226 0.9568097 -7.7266347 -0.19514784 0 0 Z " fill="#FAFBFD" transform="translate(350.6875,401.75)"/>
<path d="M0 0 C7.54875 -0.061875 15.0975 -0.12375 22.875 -0.1875 C25.23769043 -0.21481201 27.60038086 -0.24212402 30.03466797 -0.27026367 C31.9371693 -0.27903715 33.83967633 -0.28667904 35.7421875 -0.29296875 C36.70584229 -0.30831665 37.66949707 -0.32366455 38.66235352 -0.33947754 C48.76114181 -0.34331933 56.73264546 1.63737117 64.08203125 8.765625 C68.91520249 14.39612184 70.66408943 20.13588028 70.3203125 27.515625 C69.45966499 34.19089105 67.37933146 40.61495255 62 45 C58.77395999 46.94209767 55.47643825 48.55714743 52 50 C51.17604736 50.34820801 50.35209473 50.69641602 49.50317383 51.05517578 C44.73881408 52.34014841 40.26334213 52.24752611 35.3515625 52.1953125 C34.45332764 52.19329834 33.55509277 52.19128418 32.62963867 52.18920898 C29.29470669 52.17879524 25.95984787 52.15087283 22.625 52.125 C15.15875 52.08375 7.6925 52.0425 0 52 C0 34.84 0 17.68 0 0 Z " fill="#075EFB" transform="translate(359,182)"/>
<path d="M0 0 C10.085625 -0.0928125 10.085625 -0.0928125 20.375 -0.1875 C22.47665527 -0.21481201 24.57831055 -0.24212402 26.74365234 -0.27026367 C28.44107492 -0.27903935 30.13850389 -0.28668072 31.8359375 -0.29296875 C32.6916333 -0.30831665 33.5473291 -0.32366455 34.42895508 -0.33947754 C42.83313693 -0.34305582 51.54850373 1.29867772 58 7 C63.01000031 13.00668472 63.7822068 19.01005811 63.484375 26.6875 C62.78640188 31.46073556 61.21819381 34.46342873 58 38 C57.175 38.9075 56.35 39.815 55.5 40.75 C44.93648285 48.60386711 31.08611958 47.4854399 18.6875 47.25 C12.520625 47.1675 6.35375 47.085 0 47 C0 31.49 0 15.98 0 0 Z " fill="#075EFA" transform="translate(359,98)"/>
<path d="M0 0 C0.99 0 1.98 0 3 0 C3 204.93 3 409.86 3 621 C2.01 621 1.02 621 0 621 C0 416.07 0 211.14 0 0 Z " fill="#F7FBFE" transform="translate(1250,0)"/>
<path d="M0 0 C1.36067544 0.00502513 2.72135267 0.00958624 4.08203125 0.01367188 C7.38806725 0.02539541 10.69401001 0.04180573 14 0.0625 C14.17621118 3.39515038 14.28146971 6.72658619 14.375 10.0625 C14.42527344 10.99707031 14.47554687 11.93164062 14.52734375 12.89453125 C14.65849902 19.14626584 13.68275917 22.69439031 9.56835938 27.45849609 C7.81243869 29.25432407 6.10684208 30.90981614 4.0625 32.375 C3.15177734 33.04982422 3.15177734 33.04982422 2.22265625 33.73828125 C-3.87161968 37.3691416 -8.55524856 38.54961602 -15.5625 38.4375 C-16.29146484 38.44910156 -17.02042969 38.46070313 -17.77148438 38.47265625 C-23.41687243 38.44216811 -27.55684348 37.27004813 -31.86328125 33.37890625 C-32.34152344 32.80011719 -32.81976562 32.22132813 -33.3125 31.625 C-33.80363281 31.04878906 -34.29476562 30.47257812 -34.80078125 29.87890625 C-37.72855873 25.44432472 -37.33215908 20.18328577 -37 15.0625 C-35.87563518 9.81546416 -31.97991397 6.42544041 -28 3.0625 C-19.96305996 -1.47115848 -8.87280616 -0.05648701 0 0 Z " fill="#065DFA" transform="translate(573,205.9375)"/>
<path d="M0 0 C1.92875977 0.02030273 1.92875977 0.02030273 3.89648438 0.04101562 C7.03560855 0.07602444 10.17382061 0.12512942 13.3125 0.1875 C14.10349186 19.52285668 14.10349186 19.52285668 9.3125 25.1875 C3.19575065 31.75846341 -3.83594459 34.66303281 -12.73828125 35.4609375 C-20.11021854 35.69048285 -25.08807296 35.21115048 -30.6875 30.1875 C-34.58394684 26.0396695 -35.05261463 21.90675682 -34.96875 16.27734375 C-34.34226506 11.62221257 -31.75856752 8.3559373 -28.625 4.9375 C-19.78208877 -0.33061733 -10.00321892 -0.20224237 0 0 Z " fill="#055DFA" transform="translate(446.6875,489.8125)"/>
<path d="M0 0 C0.74056641 0.00902344 1.48113281 0.01804687 2.24414062 0.02734375 C4.05873467 0.05075787 5.87316071 0.08662385 7.6875 0.125 C7.6875 0.785 7.6875 1.445 7.6875 2.125 C8.3475 2.16625 9.0075 2.2075 9.6875 2.25 C15.36779679 3.90675323 19.23470938 6.96270699 22.53515625 11.875 C26.27526559 18.80702298 26.6875 21.63581207 26.6875 30.125 C8.5375 30.125 -9.6125 30.125 -28.3125 30.125 C-27.10886888 18.08868879 -24.55356823 11.22585912 -15.40234375 3.515625 C-10.36224634 0.16184056 -5.94303332 -0.13808657 0 0 Z " fill="#085EFA" transform="translate(968.3125,433.875)"/>
<path d="M0 0 C30.69 0 61.38 0 93 0 C93 0.33 93 0.66 93 1 C47.46 1.495 47.46 1.495 1 2 C1 71.3 1 140.6 1 212 C1.66 212 2.32 212 3 212 C2.67 212.99 2.34 213.98 2 215 C1.34 215 0.68 215 0 215 C0 144.05 0 73.1 0 0 Z " fill="#ECF2FE" transform="translate(312,58)"/>
<path d="M0 0 C1.00065994 0.00007553 2.00131989 0.00015106 3.03230286 0.00022888 C4.10018539 0.00539017 5.16806793 0.01055145 6.26831055 0.01586914 C7.37103806 0.01728409 8.47376556 0.01869904 9.60990906 0.02015686 C13.12497696 0.02574535 16.63998071 0.0382958 20.1550293 0.05102539 C22.54109608 0.05604188 24.92716387 0.06060452 27.31323242 0.06469727 C33.1563532 0.07571102 38.99943666 0.09243775 44.8425293 0.11352539 C45.3375293 1.59852539 45.3375293 1.59852539 45.8425293 3.11352539 C26.3725293 3.11352539 6.9025293 3.11352539 -13.1574707 3.11352539 C-8.85635534 0.24611515 -5.08310032 -0.01286861 0 0 Z " fill="#EDF3FD" transform="translate(125.157470703125,388.886474609375)"/>
<path d="M0 0 C31.35 0 62.7 0 95 0 C95 0.33 95 0.66 95 1 C66.95 1 38.9 1 10 1 C10 1.66 10 2.32 10 3 C9.21625 3.144375 8.4325 3.28875 7.625 3.4375 C5.03578982 3.87798925 5.03578982 3.87798925 3 5 C2.67 5.99 2.34 6.98 2 8 C2.66 8.33 3.32 8.66 4 9 C3.01 10.485 3.01 10.485 2 12 C0.86235649 7.73383684 0 4.43513689 0 0 Z " fill="#226DF6" transform="translate(939,490)"/>
<path d="M0 0 C0.33 0 0.66 0 1 0 C2.28761172 4.92431861 2.13312238 9.78926418 2.11352539 14.83911133 C2.11367142 15.82495209 2.11381744 16.81079285 2.1139679 17.82650757 C2.11327237 21.07837134 2.10549681 24.33017751 2.09765625 27.58203125 C2.09579079 29.83932972 2.09436749 32.09662859 2.09336853 34.35392761 C2.08955343 40.29032512 2.07973172 46.22669811 2.06866455 52.16308594 C2.0584288 58.22265287 2.05386627 64.28222378 2.04882812 70.34179688 C2.03810857 82.22787535 2.02104421 94.11393563 2 106 C1.67 106 1.34 106 1 106 C1 73.33 1 40.66 1 7 C0.34 7 -0.32 7 -1 7 C-0.67 4.69 -0.34 2.38 0 0 Z " fill="#4578FC" transform="translate(756,169)"/>
<path d="M0 0 C1.16257324 0.01047363 2.32514648 0.02094727 3.52294922 0.03173828 C5.40820312 0.04140625 5.40820312 0.04140625 7.33154297 0.05126953 C9.30960937 0.07640625 9.30960937 0.07640625 11.32763672 0.10205078 C12.66747393 0.11208096 14.00731823 0.12120674 15.34716797 0.12939453 C18.63240048 0.1530293 21.9175407 0.18890128 25.20263672 0.22705078 C25.20263672 5.83705078 25.20263672 11.44705078 25.20263672 17.22705078 C24.54263672 17.22705078 23.88263672 17.22705078 23.20263672 17.22705078 C23.20263672 12.27705078 23.20263672 7.32705078 23.20263672 2.22705078 C13.96263672 2.22705078 4.72263672 2.22705078 -4.79736328 2.22705078 C-2.79736328 0.22705078 -2.79736328 0.22705078 0 0 Z " fill="#306BF9" transform="translate(434.79736328125,489.77294921875)"/>
<path d="M0 0 C6.6 0 13.2 0 20 0 C16.36424669 2.42383554 14.20295925 2.35365597 9.875 2.5625 C5.61684988 2.39219862 5.61684988 2.39219862 2 4 C1.76321284 6.69235776 1.57801975 9.36498156 1.4375 12.0625 C1.39431641 12.82111328 1.35113281 13.57972656 1.30664062 14.36132812 C1.20026367 16.24065438 1.09960066 18.12030244 1 20 C0.67 20 0.34 20 0 20 C0 13.4 0 6.8 0 0 Z " fill="#F1F6FE" transform="translate(526,406)"/>
<path d="M0 0 C4.62 0 9.24 0 14 0 C12.68 0.33 11.36 0.66 10 1 C10 1.66 10 2.32 10 3 C9.21625 3.144375 8.4325 3.28875 7.625 3.4375 C5.03578982 3.87798925 5.03578982 3.87798925 3 5 C2.67 5.99 2.34 6.98 2 8 C2.66 8.33 3.32 8.66 4 9 C3.01 10.485 3.01 10.485 2 12 C0.86235649 7.73383684 0 4.43513689 0 0 Z " fill="#2E74FA" transform="translate(939,490)"/>
<path d="M0 0 C3.12557301 2.73117894 5.07807514 6.16670588 7.1875 9.6875 C7.55552734 10.29400391 7.92355469 10.90050781 8.30273438 11.52539062 C9.20564926 13.01461388 10.10334696 14.50699815 11 16 C10.01 16.33 9.02 16.66 8 17 C6.82539808 15.06730041 5.66055528 13.12866687 4.5 11.1875 C3.8503125 10.10855469 3.200625 9.02960938 2.53125 7.91796875 C1 5 1 5 1 2 C0.34 1.67 -0.32 1.34 -1 1 C-0.67 0.67 -0.34 0.34 0 0 Z " fill="#1865FD" transform="translate(889,212)"/>
<path d="M0 0 C6.30267439 0.36776168 11.33251843 1.16625922 17 4 C13.27493 5.34391145 10.58911139 4.65810293 6.8125 3.6875 C5.74644531 3.42324219 4.68039062 3.15898437 3.58203125 2.88671875 C1 2 1 2 0 0 Z " fill="#3273F9" transform="translate(742,460)"/>
<path d="M0 0 C0.33 0 0.66 0 1 0 C0.5188509 5.77378925 -1.18467181 9.95859836 -4 15 C-4.99 15 -5.98 15 -7 15 C-5.63408831 11.45756548 -4.09068516 8.07372071 -2.375 4.6875 C-1.70597656 3.36298828 -1.70597656 3.36298828 -1.0234375 2.01171875 C-0.68570313 1.34785156 -0.34796875 0.68398438 0 0 Z " fill="#1460FB" transform="translate(784,428)"/>
<path d="M0 0 C0.66 0.33 1.32 0.66 2 1 C0.03681826 4.53372712 -2.04070881 7.24479785 -5 10 C-5.99 9.67 -6.98 9.34 -8 9 C-6.85459775 7.68712379 -5.70866567 6.37470979 -4.5625 5.0625 C-3.92441406 4.33160156 -3.28632812 3.60070312 -2.62890625 2.84765625 C-1.77458541 1.87860647 -0.91348825 0.91348825 0 0 Z " fill="#1863FC" transform="translate(952,438)"/>
<path d="M0 0 C0.66 0 1.32 0 2 0 C2 0.99 2 1.98 2 3 C8.27 3.33 14.54 3.66 21 4 C21 4.33 21 4.66 21 5 C18.29105233 5.08144943 15.58458737 5.14070614 12.875 5.1875 C11.73417969 5.22520508 11.73417969 5.22520508 10.5703125 5.26367188 C5.5975739 5.32797453 2.36383518 4.65594442 -2 2 C-1.34 1.34 -0.68 0.68 0 0 Z " fill="#4C83FB" transform="translate(545,239)"/>
<path d="M0 0 C0.33 0 0.66 0 1 0 C1.75363052 3.35091771 2.11979937 6.43109812 2.09765625 9.86328125 C2.09282227 11.19262695 2.09282227 11.19262695 2.08789062 12.54882812 C2.07951172 13.46083984 2.07113281 14.37285156 2.0625 15.3125 C2.05798828 16.24384766 2.05347656 17.17519531 2.04882812 18.13476562 C2.03709234 20.42324373 2.02067363 22.71158808 2 25 C1.67 25 1.34 25 1 25 C1 19.06 1 13.12 1 7 C0.34 7 -0.32 7 -1 7 C-0.67 4.69 -0.34 2.38 0 0 Z " fill="#4F85FC" transform="translate(756,169)"/>
<path d="M0 0 C0.95261487 4.76307437 1.08333357 9.1666528 1 14 C0.67 14 0.34 14 0 14 C-0.33 11.69 -0.66 9.38 -1 7 C-3.475 6.01 -3.475 6.01 -6 5 C-1.125 0 -1.125 0 0 0 Z " fill="#155EF9" transform="translate(589,260)"/>
<path d="M0 0 C0.66 0.33 1.32 0.66 2 1 C1.67 1.66 1.34 2.32 1 3 C0.34 3 -0.32 3 -1 3 C-1.2475 3.78375 -1.495 4.5675 -1.75 5.375 C-3.15389099 8.32317108 -4.00675737 8.9024777 -7 10 C-5.76075855 5.04303419 -4.21422242 2.88341534 0 0 Z " fill="#1B65F6" transform="translate(580,440)"/>
<path d="M0 0 C0.66 0.33 1.32 0.66 2 1 C0.75023244 4.65316671 0.32901247 5.78065836 -3 8 C-4.19232613 10.05003955 -4.19232613 10.05003955 -5 12 C-5.35338623 9.03155565 -5.5417682 6.84401782 -3.88671875 4.265625 C-2.64496832 2.79651181 -1.32662082 1.39295186 0 0 Z " fill="#3676F7" transform="translate(722,437)"/>
<path d="M0 0 C1.32 0.66 2.64 1.32 4 2 C3.01 2 2.02 2 1 2 C1.33 2.99 1.66 3.98 2 5 C0.02 5.99 -1.96 6.98 -4 8 C-2.87548273 5.0280615 -1.77706209 2.66559313 0 0 Z " fill="#E1EEFE" transform="translate(690,509)"/>
<path d="M0 0 C0.99 0.33 1.98 0.66 3 1 C2.443125 1.226875 1.88625 1.45375 1.3125 1.6875 C-1.63246684 3.35896766 -3.68156544 5.55276352 -6 8 C-6.99 7.67 -7.98 7.34 -9 7 C-7.57277341 5.8001722 -6.13284224 4.6154424 -4.6875 3.4375 C-3.88699219 2.77621094 -3.08648437 2.11492187 -2.26171875 1.43359375 C-1.51535156 0.96050781 -0.76898438 0.48742187 0 0 Z " fill="#D6E7FD" transform="translate(331,406)"/>
<path d="M0 0 C3.05849168 2.75264252 4.87391379 5.00751252 6 9 C5.67 9.99 5.34 10.98 5 12 C3.96951963 10.3811004 2.95085322 8.75467511 1.9375 7.125 C1.36902344 6.22007812 0.80054688 5.31515625 0.21484375 4.3828125 C-0.18605469 3.59648437 -0.58695313 2.81015625 -1 2 C-0.67 1.34 -0.34 0.68 0 0 Z " fill="#105AFA" transform="translate(969,252)"/>
<path d="M0 0 C0.66 0.33 1.32 0.66 2 1 C0.64458676 5.06623972 -1.57009469 6.53046818 -5 9 C-5.99 8.67 -6.98 8.34 -8 8 C-5.36 5.36 -2.72 2.72 0 0 Z " fill="#E5F0FE" transform="translate(510,190)"/>
<path d="M0 0 C2.86867231 1.38264837 5.56024032 2.92148553 8.25 4.625 C8.95640625 5.07101562 9.6628125 5.51703125 10.390625 5.9765625 C10.92171875 6.31429688 11.4528125 6.65203125 12 7 C10.265625 7.67578125 10.265625 7.67578125 8 8 C5.859375 6.85546875 5.859375 6.85546875 3.75 5.1875 C3.04359375 4.64480469 2.3371875 4.10210937 1.609375 3.54296875 C1.07828125 3.03378906 0.5471875 2.52460938 0 2 C0 1.34 0 0.68 0 0 Z " fill="#1465FD" transform="translate(687,478)"/>
<path d="M0 0 C0.99 0.33 1.98 0.66 3 1 C-3.14285714 6.57142857 -3.14285714 6.57142857 -8 7 C-5.42215154 4.35247996 -3.08351902 2.05567935 0 0 Z " fill="#D7E9FD" transform="translate(580,406)"/>
<path d="M0 0 C4.27343092 -0.36629408 6.48812804 0.59185923 10 3 C5.99799622 4.60080151 2.95443764 3.29279692 -1 2 C-0.67 1.34 -0.34 0.68 0 0 Z " fill="#1861F8" transform="translate(614,399)"/>
<path d="M0 0 C4.19469571 0.59924224 8.00999834 1.57499941 12 3 C9 5 9 5 6.73828125 4.7578125 C5.93777344 4.54898437 5.13726563 4.34015625 4.3125 4.125 C3.50425781 3.92132813 2.69601562 3.71765625 1.86328125 3.5078125 C1.24839844 3.34023438 0.63351562 3.17265625 0 3 C0 2.01 0 1.02 0 0 Z " fill="#1E67FB" transform="translate(749,436)"/>
<path d="M0 0 C3.3 1.65 6.6 3.3 10 5 C9.67 5.66 9.34 6.32 9 7 C5.00499382 5.6302836 2.19990508 3.74277578 -1 1 C-0.67 0.67 -0.34 0.34 0 0 Z " fill="#1668FD" transform="translate(509,268)"/>
<path d="M0 0 C1.5625 1.25 1.5625 1.25 3 3 C2.875 5.0625 2.875 5.0625 2 7 C1.01 7.66 0.02 8.32 -1 9 C-1.125 2.25 -1.125 2.25 0 0 Z " fill="#0C59F5" transform="translate(703,122)"/>
<path d="M0 0 C3.08089673 2.77280706 4.68775452 5.06326356 6 9 C5.01 9.495 5.01 9.495 4 10 C0 3.375 0 3.375 0 0 Z " fill="#1966FE" transform="translate(912,250)"/>
<path d="M0 0 C0.556875 0.226875 1.11375 0.45375 1.6875 0.6875 C-0.69823379 2.57963369 -2.38425348 3.71141783 -5.3125 4.6875 C-5.9725 4.0275 -6.6325 3.3675 -7.3125 2.6875 C-2.88173077 -0.38942308 -2.88173077 -0.38942308 0 0 Z " fill="#2870FC" transform="translate(418.3125,439.3125)"/>
<path d="M0 0 C0.33 0 0.66 0 1 0 C1.33 1.65 1.66 3.3 2 5 C2.99 5 3.98 5 5 5 C3.84826645 7.46800047 2.95216435 9.04783565 1 11 C0 10 0 10 -0.09765625 7.71484375 C-0.08605469 6.79832031 -0.07445312 5.88179688 -0.0625 4.9375 C-0.05347656 4.01839844 -0.04445313 3.09929687 -0.03515625 2.15234375 C-0.02355469 1.44207031 -0.01195312 0.73179687 0 0 Z " fill="#0C64F9" transform="translate(317,407)"/>
<path d="M0 0 C-0.98093954 2.45234885 -1.68703828 3.7809268 -3.875 5.3125 C-6.37345514 6.12082372 -7.52928976 5.71847013 -10 5 C-8.71186658 4.16121545 -7.41936744 3.32913217 -6.125 2.5 C-5.40570312 2.0359375 -4.68640625 1.571875 -3.9453125 1.09375 C-2 0 -2 0 0 0 Z " fill="#1362FC" transform="translate(581,267)"/>
<path d="M0 0 C3.53586014 3.17320782 5.58578031 5.16743695 6 10 C3.04070881 7.24479785 0.96318174 4.53372712 -1 1 C-0.67 0.67 -0.34 0.34 0 0 Z " fill="#1260FC" transform="translate(1015,417)"/>
<path d="M0 0 C0.66 0.33 1.32 0.66 2 1 C2 3.31 2 5.62 2 8 C1.01 8 0.02 8 -1 8 C-0.67 5.36 -0.34 2.72 0 0 Z " fill="#0756F3" transform="translate(899,350)"/>
<path d="M0 0 C0 0.66 0 1.32 0 2 C-0.99 2 -1.98 2 -3 2 C-3 2.66 -3 3.32 -3 4 C-5.64 3.67 -8.28 3.34 -11 3 C-11 2.67 -11 2.34 -11 2 C-9.5422647 1.664061 -8.08378894 1.33133376 -6.625 1 C-5.40683594 0.7215625 -5.40683594 0.7215625 -4.1640625 0.4375 C-2 0 -2 0 0 0 Z " fill="#2970FA" transform="translate(565,275)"/>
<path d="M0 0 C0.33 0.99 0.66 1.98 1 3 C-0.75 5.0625 -0.75 5.0625 -3 7 C-4.32 6.67 -5.64 6.34 -7 6 C-4.69 4.02 -2.38 2.04 0 0 Z " fill="#1E66FA" transform="translate(460,254)"/>
<path d="M0 0 C-1.13474948 3.40424844 -1.96811304 4.21653709 -5 6 C-5.99 5.67 -6.98 5.34 -8 5 C-2.25 0 -2.25 0 0 0 Z " fill="#1C68FA" transform="translate(423,493)"/>
<path d="M0 0 C0.33 0 0.66 0 1 0 C1 3.3 1 6.6 1 10 C0.01 10 -0.98 10 -2 10 C-1.855625 9.46375 -1.71125 8.9275 -1.5625 8.375 C-0.90546252 5.60084173 -0.44780052 2.81474612 0 0 Z " fill="#0C5FF7" transform="translate(1145,417)"/>
<path d="M0 0 C0.625 1.875 0.625 1.875 1 4 C0.34 4.66 -0.32 5.32 -1 6 C-3.125 5.625 -3.125 5.625 -5 5 C-3.35 3.35 -1.7 1.7 0 0 Z " fill="#0A58F5" transform="translate(714,156)"/>
<path d="M0 0 C0.33 1.32 0.66 2.64 1 4 C-0.65 5.32 -2.3 6.64 -4 8 C-4 4.09161134 -2.49432124 2.88405893 0 0 Z " fill="#1D64F8" transform="translate(941,154)"/>
<path d="M0 0 C0.33 0.99 0.66 1.98 1 3 C-0.8125 5.6875 -0.8125 5.6875 -3 8 C-3.66 8 -4.32 8 -5 8 C-3.62845496 5.04590299 -2.01136276 2.55991624 0 0 Z " fill="#2668FA" transform="translate(951,142)"/>
<path d="M0 0 C0.66 0.66 1.32 1.32 2 2 C0.68 4.64 -0.64 7.28 -2 10 C-3.39195915 5.82412255 -1.82323219 3.86525224 0 0 Z " fill="#0F64FC" transform="translate(678,526)"/>
<path d="M0 0 C0.66 0 1.32 0 2 0 C2.33 0.99 2.66 1.98 3 3 C3.66 3 4.32 3 5 3 C4.67 4.65 4.34 6.3 4 8 C2 6.25 2 6.25 0 4 C0 2.68 0 1.36 0 0 Z " fill="#0A55F4" transform="translate(1019,513)"/>
<path d="M0 0 C0.66 0.33 1.32 0.66 2 1 C-2.75 5.875 -2.75 5.875 -5 7 C-5.66 6.34 -6.32 5.68 -7 5 C-4.69 3.35 -2.38 1.7 0 0 Z " fill="#D2E4FE" transform="translate(934,408)"/>
<path d="M0 0 C3.3 0 6.6 0 10 0 C8.515 1.485 8.515 1.485 7 3 C4.69 2.34 2.38 1.68 0 1 C0 0.67 0 0.34 0 0 Z " fill="#0A5DF0" transform="translate(865,276)"/>
<path d="M0 0 C0.66 0.33 1.32 0.66 2 1 C1.34 3.31 0.68 5.62 0 8 C-0.66 7.67 -1.32 7.34 -2 7 C-1.34 4.69 -0.68 2.38 0 0 Z " fill="#1B64FC" transform="translate(538,216)"/>
<path d="M0 0 C-1.15173355 2.46800047 -2.04783565 4.04783565 -4 6 C-4.99 5.67 -5.98 5.34 -7 5 C-2.25 0 -2.25 0 0 0 Z " fill="#1F64FA" transform="translate(931,169)"/>
<path d="M0 0 C0.99 0.33 1.98 0.66 3 1 C2.01 1.33 1.02 1.66 0 2 C-1.20882096 4.00016466 -1.20882096 4.00016466 -2 6 C-2.99 6 -3.98 6 -5 6 C-3.35 4.02 -1.7 2.04 0 0 Z " fill="#155AF5" transform="translate(969,121)"/>
<path d="M0 0 C0.99 0 1.98 0 3 0 C2.34 3.96 1.68 7.92 1 12 C0.67 12 0.34 12 0 12 C0 8.04 0 4.08 0 0 Z " fill="#0B66FA" transform="translate(361,99)"/>
</svg>
