<svg xmlns="http://www.w3.org/2000/svg" width="1000" height="500">
  <defs>
    <clipPath id="a">
      <path d="M0 0h1000v500H0z"/>
    </clipPath>
  </defs>
  <g clip-path="url(#a)">
    <rect width="1000" height="500" fill="#0c377f" rx="50"/>
    <path fill="#fff" d="M170 337l-2-2c-14-30-20-60-20-89v-4c0-30 7-60 20-89l2-2c30-15 61-23 94-23h1v8h-1q-46 0-89 22a209 209 0 0 0 0 173q45 19 90 19v8c-32 0-63-7-95-21zm95 21v-8h2c31 0 62-6 93-20q20-62 11-125a261 261 0 0 0-11-48q-49-21-95-21v-8q48 0 100 23l1 1 1 1v1l7 25 5 25a278 278 0 0 1 3 33v13a290 290 0 0 1-15 84l-1 2-1 1c-33 14-65 21-98 21zm-9-17v-17h7v3h-3v5h3v3h-3v6zm22-17l7-1v3h-3v4h2a3 3 0 0 0 1 0v3h-3l1 5h2v3h-6zm7 17v-3h1a15 15 0 0 0 2 0 2 2 0 0 0 2-1 3 3 0 0 0 0-2 3 3 0 0 0 0-1 2 2 0 0 0-2-1 18 18 0 0 0-3 0v-3h2a3 3 0 0 0 1-1 1 1 0 0 0 1-1 2 2 0 0 0-1-2 2 2 0 0 0-1 0 13 13 0 0 0-2 0v-3a15 15 0 0 1 3 0 4 4 0 0 1 2 1 4 4 0 0 1 2 1 5 5 0 0 1 0 2 4 4 0 0 1 0 2 4 4 0 0 1-2 2 5 5 0 0 1 4 4 8 8 0 0 1-1 2 6 6 0 0 1-1 2 5 5 0 0 1-2 1l-5 1zm-40 0a10 10 0 0 1-4-1 8 8 0 0 1-2-2 6 6 0 0 1 0-2 40 40 0 0 1 0-5l1-9h3l-1 10v3a3 3 0 0 0 1 2 3 3 0 0 0 2 1 3 3 0 0 0 3-1 3 3 0 0 0 1-1v-3l1-10h4l-1 9a15 15 0 0 1-1 5 5 5 0 0 1-1 2 5 5 0 0 1-2 1 6 6 0 0 1-2 1h-2zm-13-2l-2-5a4 4 0 0 0-1-1v-2a9 9 0 0 0-1-1 5 5 0 0 0-2 0h-1l-1 7-4-1 3-17 6 1h2a12 12 0 0 1 4 1 4 4 0 0 1 2 3 5 5 0 0 1 0 2 5 5 0 0 1-2 3 6 6 0 0 1-4 1 8 8 0 0 1 2 2 15 15 0 0 1 1 4l2 3zm-3-6v-5 5zm2-5a2 2 0 0 0 2-1 3 3 0 0 0 0-1 2 2 0 0 0 0-2h-1l-3-1v-3 3h-3v4h2l1 1a8 8 0 0 0 2 0zm67 9a10 10 0 0 1-3-6 10 10 0 0 1 1-7 8 8 0 0 1 5-4 8 8 0 0 1 6 1 6 6 0 0 1 2 3l-3 2a3 3 0 0 0-2-2 4 4 0 0 0-2-1 5 5 0 0 0-3 2 7 7 0 0 0-1 5l3 5a4 4 0 0 0 3 1 4 4 0 0 0 2-2 6 6 0 0 0 1-3l4 1a9 9 0 0 1-2 4 8 8 0 0 1-5 3 10 10 0 0 1-1 0 7 7 0 0 1-5-2zm17-19l4-1 1 1v6l-2-3-1 7h3v3h-3v5l-4 1zm-52 14a3 3 0 0 0 1-1 2 2 0 0 0 2 0 3 3 0 0 0 0-2 2 2 0 0 0-1-1 2 2 0 0 0-1-1h-1v-3a10 10 0 0 1 3 0 4 4 0 0 1 3 2 5 5 0 0 1 1 3 7 7 0 0 1-1 3 10 10 0 0 1-2 2 14 14 0 0 1-2 1 21 21 0 0 1-2 0zm-53 2a10 10 0 0 1-5-3 8 8 0 0 1-2-4 11 11 0 0 1 1-4 11 11 0 0 1 2-5 7 7 0 0 1 4-2 10 10 0 0 1 9 3 6 6 0 0 1 1 4h-3a4 4 0 0 0-1-3 5 5 0 0 0-3-1 5 5 0 0 0-3 0 6 6 0 0 0-3 4 7 7 0 0 0 0 5 5 5 0 0 0 3 3 7 7 0 0 0 3 0 8 8 0 0 0 2-1v-2l-4-1 1-3 8 2-2 7a7 7 0 0 1-4 1h-1a13 13 0 0 1-3 0zm114-4l-4 1v-3l2-1-2-3v-6l10 14-4 1zm245-51a84 84 0 0 1 0-18 99 99 0 0 1 6-25c29-71 73-70 99-68a108 108 0 0 0 13 0l3-9 18 10 18 10-20 47c-35-25-86-2-89 24-3 27 18 49 71 32l-18 49a204 204 0 0 1-23 1c-53 0-74-25-78-53zm227 51v-32h-42l-11 31h-52l17-38 39-84h-8l22-42h77l14 165zm0-64v-58l-15 29-14 29h29zm-380 63l28-122-10 1 23-45 49 1 29 1c20 0 31 11 34 26a38 38 0 0 1 0 13 49 49 0 0 1-25 36c36 35 0 80-38 88v-41c11-7 17-31 0-34v-25h7c16 0 18-32 5-32h-24l-8 32h20v25a19 19 0 0 0-4 0h-21l-10 37h29a11 11 0 0 0 6-3v41a53 53 0 0 1-10 1zm-187-6zm31-82c-6-19-30-31-30-52-1-17 12-37 36-37 23 0 37 17 38 35 2 21-23 35-30 55-7 21-5 44-7 65-2-22-1-45-7-66zm20 7c6-18 18-34 37-39 13-4 32 12 29 27-3 12-15 27-35 29-9 0-13 8-19 12 26-2 43-13 54-23 2 9 3 24-4 29-8 6-16 6-24 5-6 0-12 0-19 2-9 2-15 8-23 12-1-19-1-37 4-54zm-45 42c-7-2-13-2-19-2-8 1-16 1-24-5-7-5-6-20-5-29 12 10 29 21 55 23-6-4-10-12-19-12-20-2-32-17-35-29-3-15 16-31 29-27 19 5 31 21 37 39 5 17 5 35 4 54-9-4-14-10-23-12z"/>
  </g>
</svg>
