<svg xmlns="http://www.w3.org/2000/svg" viewBox="0 0 1000 500">
  <defs/>
  <g transform="translate(-1363 -1895)">
    <rect width="1000" height="500" fill="#0c377f" rx="50" transform="translate(1363 1895)"/>
    <g fill="#fff">
      <path d="M1646.7 2117.2l-1.3-1.3a137 137 0 01-13.1-58.4v-2.7c0-19.7 4.6-39.4 13.1-58.4l1.3-1.3a136 136 0 0161.7-15.1h.7v5.2h-.7a126.7 126.7 0 00-58.4 14.5 137.2 137.2 0 000 113.5q29.5 12.5 59 12.5v5.3c-21 0-41.3-4.6-62.3-13.8zm62.4 13.8v-5.3h1.3a146.3 146.3 0 0061-13.1 180.7 180.7 0 007.2-82 171.3 171.3 0 00-7.2-31.6q-32.1-13.7-62.3-13.7v-5.3q31.5 0 65.6 15.1l.7.7.6.6v.7l4.6 16.4 3.3 16.4a182.5 182.5 0 012 21.6v8.6a190.4 190.4 0 01-9.9 55.1l-.6 1.3-.7.7a162.2 162.2 0 01-64.3 13.8zm-6-11.2v-11.1h4.7v2h-2v3.2h2v2h-2v4zm14.5-11.1l4.6-.7v2h-2v2.6h1.3a2 2 0 00.7 0v2h-2l.7 3.2h1.3v2h-4zm4.6 11.1v-2h.7a9.9 9.9 0 001.3 0 1.3 1.3 0 001.3-.6 2 2 0 000-1.3 2 2 0 000-.7 1.3 1.3 0 00-1.3-.6 11.8 11.8 0 00-2 0v-2h1.3a2 2 0 00.7-.7.7.7 0 00.6-.6 1 1 0 00-1.3-1.3 8.5 8.5 0 00-1.3 0v-2a9.8 9.8 0 012 0 52614.8 52614.8 0 012.6 1.3 3.3 3.3 0 010 1.3 2 2 0 01-1.3 2.7 3.3 3.3 0 012.6 2.6 5.3 5.3 0 01-.7 1.3 4 4 0 01-.6 1.3 3.3 3.3 0 01-1.3.7zm-26.3 0a6.6 6.6 0 01-2.6-.6 5.3 5.3 0 01-1.3-1.4 4 4 0 010-1.3 26.3 26.3 0 010-3.3l.7-5.9h2l-.7 6.6v2a2.6 2.6 0 004.6.6v-2l.6-6.5h2.6l-.6 5.9a9.8 9.8 0 01-.7 3.3 2.3 2.3 0 01-2 2 4 4 0 01-1.2.6zm-8.5-1.3l-1.3-3.3a2.6 2.6 0 00-.7-.6v-1.4a6 6 0 00-.6-.6 3.3 3.3 0 00-1.3 0h-.7l-.6 4.6-2.7-.7 2-11.1 4 .6h1.3a7.9 7.9 0 012.6.7 2.6 2.6 0 011.3 2 3.2 3.2 0 01-1.3 3.2 4 4 0 01-2.6.7 5.3 5.3 0 011.3 1.3 9.8 9.8 0 01.6 2.6l1.3 2zm-2-4zm1.4-3.2a1.3 1.3 0 001.3-.7 2 2 0 000-.6 1.3 1.3 0 000-1.3h-.7l-2-.7h-2v2.6h1.4l.6.7a5.3 5.3 0 001.3 0zm44 5.9a7.6 7.6 0 01-1.4-8.5 5 5 0 017.2-2 4 4 0 011.4 2l-2 1.3a2 2 0 00-1.3-1.3 2.6 2.6 0 00-1.3-.7 3.3 3.3 0 00-2 1.3 4.6 4.6 0 00-.7 3.3l2 3.3a1.9 1.9 0 003.3-.7 4 4 0 00.6-2l2.7.7a6 6 0 01-1.4 2.6 5.3 5.3 0 01-3.2 2h-.7a4.6 4.6 0 01-3.3-1.3zm11-12.5l2.7-.6.7.6v4l-1.3-2-.7 4.6h2v2h-2v3.2l-2.6.7zm-34 9.2a2 2 0 00.6-.7 1.3 1.3 0 001.3 0 2 2 0 000-1.3 8165070755430.5 8165070755430.5 0 00-1.3-1.3h-.6v-2a6.6 6.6 0 012 0 2.6 2.6 0 011.9 1.4 3.3 3.3 0 01.7 2 4.6 4.6 0 01-.7 1.9 6.6 6.6 0 01-1.3 1.3 9.2 9.2 0 01-1.3.7h-1.3zm-34.8 1.3a6.6 6.6 0 01-3.3-2 5.3 5.3 0 01-1.3-2.6 23 23 0 012-5.9 4.6 4.6 0 012.6-1.3 6.6 6.6 0 015.9 2 4 4 0 01.6 2.6h-2a2.6 2.6 0 00-.6-2 6.3 6.3 0 00-4-.6 4 4 0 00-2 2.6 4.6 4.6 0 00.1 3.3 3.3 3.3 0 002 2 4.6 4.6 0 002 0 5.3 5.3 0 001.2-.7v-1.3l-2.6-.7.7-2 5.2 1.4-1.3 4.6a4.6 4.6 0 01-2.6.6h-.7a8.5 8.5 0 01-2 0zm74.8-2.6l-2.6.6v-2l1.3-.6-1.3-2v-3.9l6.5 9.2-2.6.7zm160.8-33.5a55.1 55.1 0 010-11.8 65 65 0 014-16.4c19-46.6 47.9-46 65-44.6a70.9 70.9 0 008.5 0l2-6 11.8 6.6 11.8 6.6-13.2 30.8c-23-16.4-56.4-1.3-58.4 15.8-2 17.7 11.8 32.1 46.6 21l-11.8 32.1a133.9 133.9 0 01-15 .7c-34.9 0-48.7-16.4-51.3-34.8zm149 33.5v-21H2030l-7.2 20.3h-34.1l11.2-24.9 25.6-55.1h-5.3l14.4-27.6h50.6l9.2 108.3zm0-42v-38l-9.8 19-9.2 19zm-249.4 41.3l18.4-80-6.6.6 15.1-29.5 32.2.6 19 .7c13.1 0 20.3 7.2 22.3 17a25 25 0 010 8.6 32.2 32.2 0 01-16.4 23.6c23.6 23 0 52.5-25 57.8v-27c7.3-4.5 11.2-20.3 0-22.3v-16.4h4.7c10.5 0 11.8-21 3.2-21h-15.7l-5.3 21h13.2v16.4a12.5 12.5 0 00-2.7 0h-13.8l-6.5 24.3h19a7.2 7.2 0 004-2v27a34.8 34.8 0 01-6.6.6zm-122.8-3.9zm20.4-53.8c-4-12.5-19.7-20.4-19.7-34.2a23.2 23.2 0 0123.6-24.2 24.2 24.2 0 0125 23c1.3 13.7-15.1 22.9-19.7 36-4.6 13.8-3.3 29-4.6 42.7-1.3-14.4-.7-29.5-4.6-43.3zm13.1 4.6c4-11.8 11.8-22.3 24.3-25.6 8.5-2.7 21 7.8 19 17.7a26.4 26.4 0 01-23 19c-5.8 0-8.5 5.3-12.4 8a57.6 57.6 0 0035.4-15.2c1.3 6 2 15.8-2.6 19-5.2 4-10.5 4-15.7 3.3a42.5 42.5 0 00-12.5 1.3c-6 1.3-9.9 5.3-15.1 8-.7-12.6-.7-24.4 2.6-35.5zm-29.5 27.5a42.5 42.5 0 00-12.5-1.3c-5.2.7-10.5.7-15.8-3.3-4.5-3.2-3.9-13-3.2-19 7.8 6.6 19 13.8 36 15.1-3.9-2.6-6.5-7.9-12.4-7.9a26.4 26.4 0 01-23-19c-2-9.8 10.5-20.4 19-17.7 12.5 3.3 20.4 13.8 24.3 25.6 3.3 11.1 3.3 23 2.7 35.4-6-2.6-9.2-6.6-15.1-7.9zM1654 2220.7h21.7q.2-8.2-2.6-13.5a21.5 21.5 0 00-7.6-8.2 31.4 31.4 0 00-11.3-4.2 75.1 75.1 0 00-13.3-1.2 62 62 0 00-12.7 1.4 41.5 41.5 0 00-12.2 4.6 27.6 27.6 0 00-9.1 8.3 21.6 21.6 0 00-3.5 12.6 25.6 25.6 0 001.2 8.6 16.2 16.2 0 003.6 5.9 20.2 20.2 0 005.8 4 64.1 64.1 0 007.7 3.2l18 5.7a21 21 0 016 3.1q2.3 1.8 2.3 6.3a8.3 8.3 0 01-1.3 4.8 10.5 10.5 0 01-3.5 3.1 15 15 0 01-4.7 1.8 28.4 28.4 0 01-5.3.5 25.3 25.3 0 01-6-.8 20 20 0 01-5.4-2.1 12 12 0 01-3.8-3.5 8.7 8.7 0 01-1.5-5.1v-2.8H1595v3.4q0 7.6 3.3 12.6a25.3 25.3 0 008.4 8 37.6 37.6 0 0011.6 4.4 62.8 62.8 0 0012.6 1.3 72.7 72.7 0 0014.6-1.5 41 41 0 0013-5 27.9 27.9 0 009.3-8.9 24.2 24.2 0 003.5-13.3 22.8 22.8 0 00-1.7-9.2 20.7 20.7 0 00-4.8-6.8 28.3 28.3 0 00-7-4.9 61.1 61.1 0 00-8.8-3.4l-11.7-3.8q-5.9-1.8-8.3-3.8a6 6 0 01-2.3-4.7 6.6 6.6 0 014-6.5 24.2 24.2 0 0110.2-1.9q7 0 10 3t3.2 8.5zm59.3 71.9l54-96.7h-24.6l-29.4 60.7h-.3l-7.4-60.7h-24l15.1 84a25 25 0 00-2.2 3.5 19 19 0 01-2.6 3.7 13.5 13.5 0 01-4 3 14.8 14.8 0 01-6.6 1.1 23 23 0 01-4.7-.5 23 23 0 00-4.6-.4l-4 19.3 6.2.5a58 58 0 006.1.3 76.7 76.7 0 0011.4-.7 27.4 27.4 0 008.6-2.7 24 24 0 007-5.5 48.8 48.8 0 006-9zm56.6-71h21.8a13.2 13.2 0 016.1-9.4 20.8 20.8 0 0111.2-3 30.4 30.4 0 014.8.4 15.7 15.7 0 014.8 1.6 10.7 10.7 0 013.6 3 8.5 8.5 0 011.5 5.3q0 4.1-2 6.2a12.6 12.6 0 01-6 3.1 58.8 58.8 0 01-10 1.6l-14.3 1.4q-15.4 1.8-23.9 9.2t-8.4 19.7a22.1 22.1 0 001.6 8.5 18.8 18.8 0 005.1 7 25.7 25.7 0 008.6 4.9 36.6 36.6 0 0012 1.8 41 41 0 0014.4-2.6 28.3 28.3 0 0011.6-8v8.4h23.3a17.7 17.7 0 01-.8-4.9l.2-5.8a28.5 28.5 0 011-5.7l7.5-34.1a67.7 67.7 0 001.8-14.3q.1-7.2-3.2-11.5a22.4 22.4 0 00-8.6-6.8 40.5 40.5 0 00-11.5-3.2 91.9 91.9 0 00-12-.8 68.5 68.5 0 00-14 1.4 38.2 38.2 0 00-12 4.7 30.6 30.6 0 00-9.3 8.6 30.2 30.2 0 00-4.9 13.4zm49.2 18.5l-2.3 8.2a57.8 57.8 0 01-2.4 6.8 21 21 0 01-4 6.2 20.1 20.1 0 01-6.3 4.4 21.5 21.5 0 01-9 1.7 16.7 16.7 0 01-9-2.3 7.8 7.8 0 01-3.9-7.2 12.8 12.8 0 011.5-6.4 11.3 11.3 0 013.8-4 18.4 18.4 0 015.5-2.3 48.8 48.8 0 016.4-1l10.2-1a23.7 23.7 0 009.5-3.1zm47.6-44.2l-17.5 84.8h23l8-37.5a71.6 71.6 0 013-10.5 32 32 0 015-8.9 23.2 23.2 0 018-6.2 25.7 25.7 0 0111.4-2.3 25 25 0 014.9.5l5 1 4.7-22.7a53.4 53.4 0 00-7.3-.5 34.5 34.5 0 00-17.3 4.5 28 28 0 00-11.9 13.4l-.3-.3 3.5-15.3zm87-13.1l4.2-19.2h-23.4l-4.3 19.2zm-26.1 13.1l-17.9 84.8h23.3l18-84.8zm33 25.8h21.8a13.2 13.2 0 016-9.5 20.8 20.8 0 0111.2-3 30.4 30.4 0 014.9.4 15.7 15.7 0 014.7 1.6 10.7 10.7 0 013.7 3 8.5 8.5 0 011.5 5.3q0 4.1-2 6.2a12.6 12.6 0 01-6 3.1 58.8 58.8 0 01-10 1.6l-14.3 1.4q-15.5 1.8-24 9.2t-8.4 19.7a22.1 22.1 0 001.7 8.5 18.8 18.8 0 005 7 25.7 25.7 0 008.7 4.9 36.6 36.6 0 0012 1.8 41 41 0 0014.3-2.6 28.3 28.3 0 0011.7-8v8.4h23.3a17.7 17.7 0 01-.9-4.9q0-2.4.3-5.8a28.5 28.5 0 01.9-5.7l7.5-34.1a67.7 67.7 0 001.8-14.3q.2-7.2-3.2-11.5a22.4 22.4 0 00-8.6-6.8 40.5 40.5 0 00-11.5-3.2 91.9 91.9 0 00-12-.8 68.5 68.5 0 00-13.9 1.4 38.2 38.2 0 00-12.1 4.7 30.6 30.6 0 00-9.2 8.6 30.2 30.2 0 00-5 13.4zm49.2 18.4l-2.3 8.2a57.8 57.8 0 01-2.5 6.8 21 21 0 01-4 6.2 20.1 20.1 0 01-6.2 4.4 21.5 21.5 0 01-9.1 1.7 16.7 16.7 0 01-9-2.3 7.8 7.8 0 01-3.8-7.2 12.8 12.8 0 011.4-6.4 11.3 11.3 0 013.9-4 18.4 18.4 0 015.5-2.3 48.8 48.8 0 016.4-1l10.2-1a23.7 23.7 0 009.5-3.1zm54.3-76.5l-24.3 117.1h23.1l9.6-45a46.3 46.3 0 012.8-8.8 29.5 29.5 0 014.8-7.5 22.9 22.9 0 016.9-5.4 20.1 20.1 0 019.3-2 13 13 0 017.6 2.4 7.4 7.4 0 013.5 6.3 31.7 31.7 0 01-.6 5l-.9 5.3-10.3 49.7h23.3l10.5-49.7.6-3 .8-4 .7-4.2a22.1 22.1 0 00.4-3.4q0-22.8-24.8-22.8a40 40 0 00-10.4 1.2 39.2 39.2 0 00-8 3 30.8 30.8 0 00-5.9 4 24.6 24.6 0 00-3.8 4h-.3l8.7-42.2z"/>
    </g>
  </g>
</svg>
