<svg xmlns="http://www.w3.org/2000/svg" width="1000" height="500">
  <defs>
    <clipPath id="a">
      <path d="M0 0h1000v500H0z"/>
    </clipPath>
  </defs>
  <g clip-path="url(#a)">
    <rect width="1000" height="500" fill="#f15a23" rx="50"/>
    <path fill="#fff" d="M277 343l15-13s-8 5-28-8c-11-8-29-32-29-32l21-18s20 27 44 33c30 9 44-12 44-12v50zm-107 0l45-38 31 38zm-24-125l60 75-60 50zm146 46c-10-9-20-21-20-41 0-14 12-33 35-33 17 0 37 17 37 17v74a31 31 0 0 1-15 5c-15 0-27-11-37-22zm-130-67l-16-19v-32h65s-16 28 7 72c11 23 29 43 29 43l-21 17zm73-19c-5-23 2-32 2-32h107v28s-36-19-67 13c-15 14-17 40-17 40s-20-25-25-49z"/>
    <path fill="#fff" fill-rule="evenodd" d="M572 148h47s42 63 62 90l43 55V162c0-5-15-14-15-14h55s-18 7-18 14v191s-17-9-37-32c-22-25-99-128-99-128v133c0 7 15 17 15 17h-53s14-10 14-17V162c0-6-14-14-14-14zm222 0h61s-17 8-17 14v164c0 7 17 17 17 17h-61s15-10 15-17V162c0-6-15-14-15-14zm-400 0s15 8 15 14v164c0 7-15 17-15 17h89c6 0 69-10 69-59s-49-53-49-53 30-8 30-41c0-36-44-42-50-42h-89zm47 80v-61h37c5 0 25 7 25 31 0 20-20 30-25 30h-37zm0 16h42c6 0 39 9 39 37 0 30-33 40-39 40h-42v-77z"/>
  </g>
</svg>
