<svg xmlns="http://www.w3.org/2000/svg" width="1000" height="500">
  <defs>
    <style>
      .b{fill:#005e6a}
    </style>
    <clipPath id="b">
      <path d="M0 0h1000v500H0z"/>
    </clipPath>
  </defs>
  <g id="a" clip-path="url(#b)">
    <path d="M50 0h900a50 50 0 0 1 50 50v400a50 50 0 0 1-50 50H50a50 50 0 0 1-50-50V50A50 50 0 0 1 50 0z" class="b"/>
    <path d="M0 0h152.5v152.5H0z" class="b" transform="translate(214.2 117)"/>
    <path fill="#e36013" fill-rule="evenodd" d="M8 0h47.4c-2.5 4.2-4.4 13.8.4 35.3 4.3 19 16.6 39 29.4 54.6l-16.1 13.3L8 26.4zm69.3 0h83.4v20.3c-6.4-3.8-18.2-7.4-35.5-.5-27.9 11.1-30.3 43.8-30.3 43.8C79.5 45 69.3 14.3 77.3 0zm83.4 47v60.3c-19 7.2-45.5-11.5-52.2-33.7-9.7-32.2 13.1-43.8 29.5-40.7a37 37 0 0 1 22.7 14.2zm0 70v35.6h-51l10.2-8.4c-6.7.7-19.8-2.3-26.2-10.4l-18-22.7 16.4-13.5a98.2 98.2 0 0 0 25.2 21.5c11.5 5.4 24.7 7.9 43.4-2zM81 152.7H25.1l34.8-28.5 8.1 10.3a208.8 208.8 0 0 1 13 18.2zm-72.1 0H8V59L53.5 116z" transform="translate(206 117)"/>
    <path fill="#fff" fill-rule="evenodd" d="M537.7 154.5c8.6-5.6 13-12.3 13-21V23c0-13.1-3.8-16-11.2-23.1h49.1a28.6 28.6 0 0 0-14.4 23v110a28 28 0 0 0 11.8 21.4h-48.3zM395 0h-32c7 7.9 10.2 12.1 10.2 24.3v105.4c0 12-5.4 19.6-13.1 24.8h42.5a27.7 27.7 0 0 1-13.1-25.1v-93l64.4 86c12.2 16 26.4 29.5 42.8 40.1V23.8c0-14 5.5-19.2 13-23.7h-41.5c7.5 5.6 11.6 12 11.6 23.2v93zM270 138h-19.2V75.4h21.8c32.5 0 42.3 19.5 40.6 35.5-1.8 16-15.5 27-43.2 27zm-19.3-76.1V13.7h18c20.5 0 30.2 10.1 30.2 25.2 0 15.2-13.8 23-31.1 23h-17.1zM214.2 0c6.5 4.5 13.2 11.2 13.2 17.9v115.5c0 6.4-6.2 15.7-11.7 19.3h59c38-1.5 61.1-15.3 63.9-44 1.9-20.2-8.8-36-35-44.8 13-5 20.2-15.9 20.8-30.9 1-25.8-29-33-47.8-33h-62.4z" transform="translate(197.9 117)"/>
    <path fill="#fff" d="M28.3 1.4A61.5 61.5 0 0 1 15.6.1 50 50 0 0 1 5.2-3.1l1.3-10.2a72.3 72.3 0 0 0 11.4 4.2 45.8 45.8 0 0 0 12.6 1.8q7 0 11-2.5a8.6 8.6 0 0 0 3.8-7.8 10.2 10.2 0 0 0-2-6.4 15.1 15.1 0 0 0-5.7-4.3 80.5 80.5 0 0 0-10.5-3.8 66.9 66.9 0 0 1-11.4-4.4 19.5 19.5 0 0 1-7.4-6.3A17.6 17.6 0 0 1 5.6-53 16.8 16.8 0 0 1 12.2-67Q18.8-72 30.8-72a51.7 51.7 0 0 1 12.3 1.4 55 55 0 0 1 10.1 3.4l-1 10.2a47.7 47.7 0 0 0-10.9-4.8 39.2 39.2 0 0 0-10.9-1.5q-6.6 0-10.5 2.4a8.2 8.2 0 0 0-3.8 7.5 8.8 8.8 0 0 0 1.7 5.6A14 14 0 0 0 23-44a72.8 72.8 0 0 0 9.3 3.4q12 3.6 17.8 8.6t5.9 13.8q0 9.3-7 14.5T28.3 1.4zm53.4-3.6L61.1-49.5h10.1l15.5 36.8 13.9-36.8h10.1l-30.3 74H70.3zM131.5 1q-6.9 0-11-4a13.7 13.7 0 0 1-4.2-10.3q0-9.4 8.8-13.5a51.8 51.8 0 0 1 20.7-4.2q0-6.7-2.5-9t-8.3-2.4a21.3 21.3 0 0 0-6.2 1A25 25 0 0 0 122-38l-1.3-7.3a24.3 24.3 0 0 1 7.5-3.8 30.5 30.5 0 0 1 9.3-1.4q6.3 0 10.1 2.2a13 13 0 0 1 5.6 7.4q1.7 5.1 1.7 14.1v10.1a39.2 39.2 0 0 0 .4 6.1 5.4 5.4 0 0 0 1.6 3.2 5.4 5.4 0 0 0 3.7 1.1h1L160 1h-.7a21.9 21.9 0 0 1-6.7-.8 8 8 0 0 1-3.7-2.3 16.6 16.6 0 0 1-2.3-4.2Q140.4 1 131.5 1zm1.7-7.3a14.6 14.6 0 0 0 7-1.8 16.6 16.6 0 0 0 5.6-4.8v-11.8q-10.9.4-15.6 2.8a8.4 8.4 0 0 0-4.7 8q0 3.9 2.1 5.8a8 8 0 0 0 5.6 1.8zm38.3-43.2h7.5l1 8.2a32.1 32.1 0 0 1 7.4-7 13.4 13.4 0 0 1 7.3-2.2 8.8 8.8 0 0 1 2.4.3l-1 10a13.6 13.6 0 0 0-3-.3 15.6 15.6 0 0 0-7 1.7 12.4 12.4 0 0 0-4.9 3.9V0h-9.7zm35-21.2h9v10.1h-9zm0 21.2h9V0h-9zM242.3 1q-6.9 0-11-4a13.7 13.7 0 0 1-4.3-10.3q0-9.4 9-13.5a51.8 51.8 0 0 1 20.6-4.2q0-6.7-2.5-9t-8.3-2.4a21.3 21.3 0 0 0-6.2 1 25 25 0 0 0-6.8 3.4l-1.3-7.3a24.3 24.3 0 0 1 7.5-3.8 30.5 30.5 0 0 1 9.3-1.4q6.3 0 10.1 2.2a13 13 0 0 1 5.6 7.4q1.7 5.1 1.7 14.1v10.1a39.2 39.2 0 0 0 .4 6.1 5.4 5.4 0 0 0 1.6 3.2 5.4 5.4 0 0 0 3.7 1.1h.9L271 1h-.7a21.9 21.9 0 0 1-6.7-.8 8 8 0 0 1-3.7-2.3 16.6 16.6 0 0 1-2.3-4.2Q251.3 1 242.4 1zm1.7-7.3a14.6 14.6 0 0 0 7-1.8 16.6 16.6 0 0 0 5.6-4.8v-11.8q-10.9.4-15.6 2.8a8.4 8.4 0 0 0-4.7 8q0 3.9 2.1 5.8a8 8 0 0 0 5.6 1.8zm62-44.2q9.3 0 14.3 6.2t5 16.7V0h-9.2v-26.5q0-8.1-3-12t-9.2-4a14.5 14.5 0 0 0-7 1.8 15.7 15.7 0 0 0-5.5 5V0h-9.2v-75.8h9.2v31a20.8 20.8 0 0 1 6.4-4.2 20.9 20.9 0 0 1 8.1-1.5z" transform="translate(418.3 369.9)"/>
  </g>
</svg>
