<svg xmlns="http://www.w3.org/2000/svg" width="1000" height="500">
  <defs>
    <clipPath id="a">
      <path d="M0 0h1000v500H0z"/>
    </clipPath>
  </defs>
  <g clip-path="url(#a)">
    <rect width="1000" height="500" fill="#17479e" rx="50"/>
    <path fill="#fff" fill-rule="evenodd" d="M119 182a27 27 0 0 1 27-27h136a27 27 0 0 1 27 27v136a27 27 0 0 1-27 27H146a28 28 0 0 1-27-27zm33 144h14c18 0 38-22 21-39l-35-37 41-40c14-14-2-36-24-36h-17a15 15 0 0 0-14 14v124a15 15 0 0 0 14 14zm53-152c12 3 24 25 7 43l-32 33 28 29c18 19 7 47-10 47h79l-75-76 41-40c14-14-3-36-24-36h-14zm85 138V188a15 15 0 0 0-14-14h-21c12 3 25 25 7 43l-32 33 60 62zm74-55v19h8c4 0 8-1 10-3a8 8 0 0 0 3-7 8 8 0 0 0-3-7l-9-2h-9zm0-32v18h6c5 0 8-1 10-3 2-1 4-3 4-7a8 8 0 0 0-4-6c-2-2-5-3-9-3h-7v1zm-21-15h33c9 0 17 2 22 6 5 3 7 8 7 15a18 18 0 0 1-4 12c-2 3-6 5-11 7a22 22 0 0 1 13 6c3 3 4 8 4 13 0 7-3 13-8 16-5 4-14 6-25 6h-31v-81zm110 18l-10 30h20l-10-30zm-13-18h26l31 81h-23l-6-17h-31l-6 17h-21l30-81zm62 0h27l23 49 3 7a102 102 0 0 1 3 10l-1-11a79 79 0 0 1-1-9v-46h20v81h-27l-24-50a67 67 0 0 1-3-8l-3-8 2 13v53h-19v-81zm89 0h22v35l25-35h24l-30 37 33 44h-27l-25-37v37h-22v-81zm136 47v19h9c4 0 7-1 10-3a8 8 0 0 0 3-7 8 8 0 0 0-3-7l-9-2h-10zm0-32v18h7c4 0 8-1 10-3 2-1 3-3 3-7a8 8 0 0 0-3-6c-2-2-5-3-9-3h-8v1zm-21-15h33c10 0 17 2 22 6 5 3 7 8 7 15a18 18 0 0 1-3 12c-3 3-7 5-12 7a22 22 0 0 1 13 6c3 3 5 8 5 13 0 7-3 13-9 16-5 4-13 6-25 6h-31v-81zm98 14v21h8c5 0 8-1 11-3s3-4 3-7c0-4-1-6-4-8s-7-3-12-3zm-21-14h32c11 0 19 2 24 5s8 9 8 16a21 21 0 0 1-4 13c-3 4-7 6-12 7q7 2 11 13l9 27h-22l-7-22q-2-6-5-8l-9-2h-4v32h-21v-81zm77 0h21v81h-21v-81z"/>
  </g>
</svg>
