<svg xmlns="http://www.w3.org/2000/svg" width="1000" height="500">
  <defs>
    <style>
      .c{fill:#ed6825}.e{fill:#fff}
    </style>
    <clipPath id="b">
      <path d="M0 0h1000v500H0z"/>
    </clipPath>
  </defs>
  <g id="a" clip-path="url(#b)">
    <rect width="1000" height="500" fill="#17479e" rx="50"/>
    <path d="M900.9 522.7c-4.5 0-9-.2-13.5 0-2 0-2.7-.5-2.7-2.8v-32a28.9 28.9 0 0 0-.8-8.2c-1.7-5.7-5-8.7-10.2-9.3a13.2 13.2 0 0 0-14.3 13.5v36c0 2.3-.7 2.8-2.9 2.7h-11.4c-1.6 0-2.2-.3-2.2-2V431c0-1.7.6-2 2-2 4.1.1 8.2.2 12.2 0 2 0 2.3.6 2.3 2.4V467.3a27.2 27.2 0 0 1 8.3-7.3c12.8-7 27.7-.8 31.6 13.1a18.5 18.5 0 0 1 1.2 6c.5 1.3-.2 2.7.5 3.9l-.1 39.7z" class="c" transform="translate(10.6 -227.2)"/>
    <path fill="#f07a40" d="M954.5 529.5c-1-1.2-.5-2.5-.5-3.8a.8.8 0 0 1 .5.2z" transform="translate(-43 -273.9)"/>
    <path d="M291.8 486h16.4c1.4 0 1.6 1 2 2 4.5 14.2 10 28.3 13.8 42.9l.7 1.9 8-28 5-17c.3-1.1.7-1.9 2.2-1.8h15.4c-.4 2.8-1.6 5.2-2.5 7.6-6.4 17-12.2 34.4-19.2 51.2-3 7.4-6.5 14.7-11.5 21a35.5 35.5 0 0 1-19.7 13c-1.8.3-2.3-.2-2.7-1.7a207 207 0 0 0-2.6-9.8c-.4-1.4 0-2 1.5-2.6a28.2 28.2 0 0 0 16.4-14 5.8 5.8 0 0 0 .2-5.5c-7.7-19-15.2-38.1-22.8-57.2a11.9 11.9 0 0 0-.6-2z" class="c" transform="translate(276.5 -254.7)"/>
    <path d="M20.7 67a29.3 29.3 0 0 1-5.2-.6 19 19 0 0 1-9.7-4.6 18 18 0 0 1-5.2-9.4 22 22 0 0 1 .2-11.2A19.6 19.6 0 0 1 7.1 32a29 29 0 0 1 9.4-5.2 53 53 0 0 1 10.4-2.4 52.2 52.2 0 0 1 7.2-.5H36a1.4 1.4 0 0 0 1.3-.4 2.2 2.2 0 0 0 .3-1.4 10.4 10.4 0 0 0-.8-4 9.3 9.3 0 0 0-2-3 11.5 11.5 0 0 0-7.4-3.2l-2.8-.1a33.1 33.1 0 0 0-7.7.9 30.5 30.5 0 0 0-7.3 2.7 3.2 3.2 0 0 1-1.4.5c-.6 0-1-.4-1.2-1.5l-2-7c-.3-.9-.4-1.7.8-2.2a56.1 56.1 0 0 1 10.3-3.8A43.4 43.4 0 0 1 26.6 0a40.5 40.5 0 0 1 11.8 1.8 21.5 21.5 0 0 1 6.1 2.9A18.8 18.8 0 0 1 49 9a22.6 22.6 0 0 1 2.9 5.6 33.2 33.2 0 0 1 1.6 6.6 62 62 0 0 1 .4 7.7v11.7a200.9 200.9 0 0 0 .6 23.2 1.8 1.8 0 0 1-.2 1.4 1.5 1.5 0 0 1-1.2.4H41.8c-1.4 0-1.8-.6-2-1.8v-1.1a10.3 10.3 0 0 0-.9-4.2 26.3 26.3 0 0 1-8.4 6.3 23.2 23.2 0 0 1-9.8 2.1zM37 34.1h-.4a62.3 62.3 0 0 0-8.3.7 24 24 0 0 0-4 1 18.6 18.6 0 0 0-3.8 1.9 9.8 9.8 0 0 0-2.6 2.4 10 10 0 0 0-1.5 3.2 10.5 10.5 0 0 0 .4 7 7.9 7.9 0 0 0 1.3 2A7.7 7.7 0 0 0 20 54a9.6 9.6 0 0 0 5 1.3 13.4 13.4 0 0 0 2.5-.2 13 13 0 0 0 9.4-6.6 13.2 13.2 0 0 0 1.2-7.7v-1.6-3.7a1.7 1.7 0 0 0-.1-1 .9.9 0 0 0-.9-.3z" class="c" transform="translate(636 229.8)"/>
    <path d="M20.1 66.9a21.8 21.8 0 0 1-10.8-2.7 18.2 18.2 0 0 1-6.8-6.8 19.8 19.8 0 0 1-2.5-9 21.1 21.1 0 0 1 2-10A20.7 20.7 0 0 1 5 34a21 21 0 0 1 4-3.7c7.2-4.8 15.3-6 23.1-6.5h1.6c2.4-.1 3.5-.2 4-.8s.1-1.7-.5-4a9.4 9.4 0 0 0-3.5-5 11.7 11.7 0 0 0-6.2-2.2l-3-.1a33.3 33.3 0 0 0-7.5.9 30 30 0 0 0-7.3 2.7 3.4 3.4 0 0 1-1.4.5c-.6 0-1-.5-1.3-1.8a49 49 0 0 0-1.9-6.3v-.3a2 2 0 0 1-.2-1.5 1.9 1.9 0 0 1 1.1-1 55.7 55.7 0 0 1 10.3-3.6A44.6 44.6 0 0 1 26.8 0a41.9 41.9 0 0 1 10.9 1.5 22.5 22.5 0 0 1 6 2.6 19 19 0 0 1 4.6 4 21.3 21.3 0 0 1 3.1 5.1 29.5 29.5 0 0 1 1.9 6.4 70.1 70.1 0 0 1 .6 14.1v12.6a137 137 0 0 0 .8 18 1.2 1.2 0 0 1-.2 1c-.2.2-.5.3-1 .3h-4a857.2 857.2 0 0 0-8 0c-1.3 0-1.4-.8-1.6-1.7v-.5a9.4 9.4 0 0 1-.2-1.5c0-1.2 0-2.3-.9-2.7a1 1 0 0 0-.4 0c-.6 0-1.2.7-1.8 1.4a7.7 7.7 0 0 1-1 1A25.1 25.1 0 0 1 20.1 67zM37 34.2h-.6a62.7 62.7 0 0 0-8.1.7 21 21 0 0 0-7.6 2.8 9.7 9.7 0 0 0-4 4.7 9.9 9.9 0 0 0-.6 3 9.8 9.8 0 0 0 .3 3 9 9 0 0 0 2.6 4.9 8.8 8.8 0 0 0 5 2 12.1 12.1 0 0 0 1.3 0 12.7 12.7 0 0 0 3.7-.5 13.5 13.5 0 0 0 3.3-1.5 12.9 12.9 0 0 0 4.9-5.4 17 17 0 0 0 1-7.3v-.9-4a1.4 1.4 0 0 0-.2-1.2 1.2 1.2 0 0 0-1-.3z" class="c" transform="translate(782.7 229.8)"/>
    <path d="M212 549.7a50.2 50.2 0 0 1-17.4-3.4c-1.8-.8-2.2-1.7-1.6-3.5.9-2.5 1.5-5 2.1-7.5.4-1.4.8-1.7 2.3-1a33.4 33.4 0 0 0 16 3.6 14 14 0 0 0 5-1 6.5 6.5 0 0 0 1.7-11.1c-2.3-2-5-3-7.8-3.9a45.5 45.5 0 0 1-10-4.8c-12.6-8.3-9-23.2 0-29.3 7-4.8 14.8-5.4 23-4.1a40.1 40.1 0 0 1 8.4 2.4c1.4.5 2 1 1.4 2.6a63.5 63.5 0 0 0-2 7.5c-.4 2-1.2 2-2.8 1.2a24.8 24.8 0 0 0-13.8-2.5c-4.3.5-6.7 3-6.6 6.8 0 2.6 1.7 4 3.6 5.2 3.9 2.3 8.2 3.2 12.1 5.1 6.2 3 11.2 7.2 12.3 14.6a18.4 18.4 0 0 1-12.9 21c-4.3 1.5-8.7 1.9-13 2.1z" class="c" transform="translate(324.3 -253.3)"/>
    <path d="M573.5 496.6a23 23 0 0 1 11-11.8 16.6 16.6 0 0 1 8.8-1.5c1.3.2 2 .6 1.9 2.1a216 216 0 0 0 0 11.4c0 1.6-.4 2-2 1.9-6.1-.8-11.4.7-14.9 6.1a19 19 0 0 0-2.8 10.6V546c.1 2.3-.6 2.9-2.8 2.8a90.7 90.7 0 0 0-10.6 0c-2.5.1-2.8-.8-2.8-3v-44.2c0-5-.2-10-.4-15 0-1.4.3-2 1.8-2h10.4c1.5 0 1.8.5 1.9 2 0 3.3.3 6.6.5 10z" class="c" transform="translate(147.6 -253.4)"/>
    <path d="M649.2 517.8l-.1-29.5c0-1.8.4-2.5 2.3-2.4h11.9c2-.1 2.4.7 2.4 2.5v59c0 2.1-.7 2.6-2.8 2.5-3.6-.1-7.2-.2-10.8 0-2.6.2-3-.8-3-3v-29.1z" class="c" transform="translate(104.1 -254.7)"/>
    <path d="M657.1 434.9c5.3 0 9 3.6 9 8.8 0 5-4 8.7-9.2 8.7a8.6 8.6 0 0 1-8.8-8.8c0-5.2 3.6-8.8 9-8.7z" class="c" transform="translate(104.6 -230)"/>
    <g>
      <path d="M18.1-371c-8.9 3-14.9 9-17.5 17.5-1 3.6-1 150.5 0 154.1a26.8 26.8 0 0 0 18.8 17.6c4.2 1 147.4 1 151.2 0a26 26 0 0 0 19-18.7c.6-2.5.7-13.7.7-76 0-72 0-73.2-1-77a26 26 0 0 0-18.2-17.7c-2.1-.6-16.4-.8-76.5-.7-68.5 0-74.1 0-76.5 1zm51 19c3.3 1.8 7.1 6 9.1 10.1 1.6 3.3 1.8 4.1 1.8 8.1s-.2 4.8-1.6 7.5a44.9 44.9 0 0 1-4.5 6.7c-2.6 3.3-28 28.4-37.7 37.6l-3 2.7 5 5.4 8.4 9 4.1 4.3c1.1 1 5.7 6.1 10.8 11.8l4.9 5.4c2.4 2.5 6.6 7.8 7.3 9.3a19.6 19.6 0 0 1 1.7 11.7 31 31 0 0 1-13.9 18.8C56-200 56.8-200 41.7-200c-12.4 0-13.8-.1-15.6-1a16.6 16.6 0 0 1-6.3-6.9l-1.1-2.1-.2-66.8c-.1-36.7 0-67.7.2-68.8.5-4 3.8-6.7 9-7.4 1.5-.2 11-.3 21-.3 18 0 18.2 0 20.5 1.3zm48.9.8c5.5 3.6 8.9 7 11 11 1.6 3.2 1.8 4.1 1.9 7.4 0 5.8-1.9 8.8-12.9 20l-6.5 6.7-14 13.8-13.3 13.2 2 2.2 10.2 10.4 25.4 26.2 25.7 26.4c11.1 11.4 13 13.4 13 13.7 0 0-17 .2-38 .2h-38l2.5-1.7a29.5 29.5 0 0 0 13.5-24 27.5 27.5 0 0 0-3-13c-2.5-5.3-3.9-6.9-15.7-19.3-10.4-11-19-20.1-19.2-20.7-.1-.2 7.2-8 16.2-17s17.5-18 18.9-20c6.1-8.7 7.4-17.4 3.7-25.3a55.9 55.9 0 0 0-7.8-11.1l-1.5-1.4h22.5zm48.7-.7a13.4 13.4 0 0 1 3.3 2.7c1 1.4 1 1.5 1.3 65.8l.3 64.4-6.4-6.5c-11-11.1-44.7-46-48.7-50l-3.8-4 5.6-5.3c19-18 30.5-31.2 34.4-39.2 1.3-2.8 1.4-3.5 1.4-8.4 0-5.3 0-5.5-2.1-9.8a31 31 0 0 0-5.5-7.9l-3.3-3.5 10.6.2c10 .2 10.7.3 12.9 1.5z" class="e" transform="translate(88.9 526.1)"/>
      <path d="M427-233v46l25.6-.2c27.6-.3 31.5-.6 37.3-3.3 8-3.8 13-12.6 13-23 0-7.5-1.8-12.5-6.2-16.8a23.8 23.8 0 0 0-9.7-5.6c-.4 0 .6-.7 2.1-1.6a19 19 0 0 0 9-11.4c1.1-3.3 1.2-10.6.2-14a22 22 0 0 0-16.9-15.6c-1.6-.3-13.4-.5-28.5-.5H427zm43.2-25.8c2.3 1.2 3.5 3.5 3.5 7 0 3-1 5.7-2.8 6.9a29.4 29.4 0 0 1-12.4 1.8h-5.3v-17l7.6.2c6 0 7.9.4 9.4 1zm3 35a9.9 9.9 0 0 1 4.1 7.4 8.8 8.8 0 0 1-4.9 7.7c-2.3 1.2-3.2 1.3-10.9 1.5l-8.3.2v-18.2l9.1.2c8 .1 9.3.2 10.9 1.2z" class="e" transform="translate(-119 480.9)"/>
      <path d="M592-233.2v46h25.7v-37h2a11.4 11.4 0 0 1 3.8.8c3.5 1.4 3.8 2 14.4 24.2a522 522 0 0 0 5.4 11c.3.7 2.6.8 14.9 1 7.9 0 14.4-.1 14.4-.3 0-.3-2.3-5.4-5.8-13l-3-6.4c-5.2-11.7-9.3-17.4-14.2-19.7-2.2-1-2.1-1.5.3-2.2 2.6-.6 7.6-3.9 9.7-6.3a25.5 25.5 0 0 0 6.3-18.6c0-12.8-5.5-21-16.4-24.2-2.4-.7-6.7-.8-30.1-1L592-279zm42.3-26.3c3.7 1 6 4 6 8.2 0 2.4-1.6 5.8-3.3 6.9a36 36 0 0 1-14 2.3h-5.3v-18h7.3a57.6 57.6 0 0 1 9.3.6z" class="e" transform="translate(-199.4 481)"/>
      <path d="M757-233v45.9h26.2V-279H757z" class="e" transform="translate(-279.7 480.9)"/>
    </g>
  </g>
</svg>
