<svg xmlns="http://www.w3.org/2000/svg" width="1000" height="500" viewBox="0 0 1000 500">
  <g id="Group_3" data-name="Group 3" transform="translate(-193 -203)">
    <g id="Group_2" data-name="Group 2" transform="translate(193 203)">
      <rect id="Rectangle_2" data-name="Rectangle 2" width="1000" height="500" rx="50" fill="#d0fffd"/>
    </g>
    <g id="layer1" transform="translate(483.374 140.786)">
      <g id="text1001" transform="translate(-4.249 393.75)">
        <g id="g881" transform="translate(0 0)">
          <path id="path1048" d="M72.4,185.193a14.571,14.571,0,0,0,4.332-.57,8.036,8.036,0,0,0,2.969-1.589,6.3,6.3,0,0,0,1.727-2.459,8.82,8.82,0,0,0,.545-3.149,6.364,6.364,0,0,0-2.393-5.248q-2.393-1.949-7.18-1.949H63.01v14.965ZM63.01,151.424v14.665h7.756a15.2,15.2,0,0,0,4.3-.54,8.549,8.549,0,0,0,3.03-1.5,5.841,5.841,0,0,0,1.787-2.309,7.709,7.709,0,0,0,.576-3q0-3.809-2.3-5.548-2.3-1.769-7.15-1.769Zm8-4.588a26.551,26.551,0,0,1,6.877.78,13.242,13.242,0,0,1,4.756,2.219,8.574,8.574,0,0,1,2.757,3.539,11.866,11.866,0,0,1,.879,4.678,9.182,9.182,0,0,1-.515,3.059,8.883,8.883,0,0,1-1.484,2.7,10.809,10.809,0,0,1-2.545,2.279,13.973,13.973,0,0,1-3.575,1.619,13.02,13.02,0,0,1,7.18,3.389,8.829,8.829,0,0,1,2.424,6.478,11.815,11.815,0,0,1-1.03,4.978,10.46,10.46,0,0,1-2.969,3.869,13.905,13.905,0,0,1-4.787,2.519,22.2,22.2,0,0,1-6.483.87H57.163V146.836Z" transform="translate(-57.163 -146.356)" fill="#00a39d"/>
          <path id="path1050" d="M91.457,173.856l-6.817-17.484q-.3-.78-.636-1.8-.333-1.05-.636-2.219a32.437,32.437,0,0,1-1.3,4.049l-6.817,17.454ZM103.7,189.811H99.152a1.969,1.969,0,0,1-1.272-.39,2.4,2.4,0,0,1-.727-.99l-4.06-10.376H73.613l-4.06,10.376a2.108,2.108,0,0,1-.7.96,1.948,1.948,0,0,1-1.272.42H63.04L80.4,146.836h5.938Z" transform="translate(-28.988 -146.356)" fill="#00a39d"/>
          <path id="path1052" d="M106.364,146.836v42.975h-2.939a2.647,2.647,0,0,1-1.181-.24,3.013,3.013,0,0,1-.909-.81L76.22,156.373q.061.75.091,1.47t.03,1.35v30.619h-5.15V146.836h3.03a3.15,3.15,0,0,1,.666.06,1.225,1.225,0,0,1,.485.15,1.38,1.38,0,0,1,.424.3,3.6,3.6,0,0,1,.455.48l25.115,32.359q-.061-.78-.121-1.5-.03-.75-.03-1.409V146.836Z" transform="translate(10.092 -146.356)" fill="#00a39d"/>
          <path id="path1054" d="M85.167,165.669h2.212a5.221,5.221,0,0,0,1.848-.27,3.441,3.441,0,0,0,1.272-.99l14.451-16.194a3.468,3.468,0,0,1,1.272-1.08,3.981,3.981,0,0,1,1.636-.3h4.969l-16.541,18.5a9.634,9.634,0,0,1-1.182,1.2,5.611,5.611,0,0,1-1.181.75,4.655,4.655,0,0,1,1.484.81,7.008,7.008,0,0,1,1.3,1.349l17.269,20.363h-5.09a7.228,7.228,0,0,1-1-.06,3.146,3.146,0,0,1-.7-.24,3.777,3.777,0,0,1-.545-.39,6.341,6.341,0,0,1-.424-.54L91.257,171.518a3.474,3.474,0,0,0-1.3-1.05,5.194,5.194,0,0,0-2.121-.33H85.167v19.673H79.32V146.837h5.847Z" transform="translate(49.072 -146.356)" fill="#00a39d"/>
          <path id="path1056" d="M114.357,153.95a2.3,2.3,0,0,1-.606.69,1.3,1.3,0,0,1-.757.21,2.175,2.175,0,0,1-1.212-.51,18.219,18.219,0,0,0-1.757-1.11,12.822,12.822,0,0,0-2.515-1.14,10.789,10.789,0,0,0-3.545-.51,10.358,10.358,0,0,0-3.484.54,7.448,7.448,0,0,0-2.515,1.409,5.9,5.9,0,0,0-1.515,2.129,6.544,6.544,0,0,0-.515,2.609,4.94,4.94,0,0,0,.879,3,8.026,8.026,0,0,0,2.363,2.009,19.6,19.6,0,0,0,3.332,1.469q1.878.6,3.817,1.26a39.745,39.745,0,0,1,3.817,1.5,12.774,12.774,0,0,1,3.333,2.069,9.243,9.243,0,0,1,2.363,3.089,10.046,10.046,0,0,1,.909,4.5,14.5,14.5,0,0,1-.969,5.308,12.123,12.123,0,0,1-2.848,4.288,13.083,13.083,0,0,1-4.575,2.879,16.861,16.861,0,0,1-6.15,1.05,19.126,19.126,0,0,1-7.7-1.5,18.247,18.247,0,0,1-5.908-4.109l1.7-2.759a2.1,2.1,0,0,1,.576-.54,1.4,1.4,0,0,1,.788-.24,1.608,1.608,0,0,1,.879.33,11.884,11.884,0,0,1,1.151.78q.636.48,1.454,1.05A12.379,12.379,0,0,0,97,184.75a13.934,13.934,0,0,0,2.393.81,13.71,13.71,0,0,0,3,.3,11.3,11.3,0,0,0,3.726-.57,7.9,7.9,0,0,0,2.757-1.59,7.008,7.008,0,0,0,1.757-2.489,8.194,8.194,0,0,0,.606-3.209,5.213,5.213,0,0,0-.909-3.179,7.147,7.147,0,0,0-2.333-2.1,15.859,15.859,0,0,0-3.333-1.409q-1.878-.6-3.817-1.2-1.939-.63-3.817-1.439a12.349,12.349,0,0,1-3.332-2.1,9.869,9.869,0,0,1-2.363-3.209,11.661,11.661,0,0,1-.879-4.8,11.24,11.24,0,0,1,3.484-8.187,12.956,12.956,0,0,1,4.211-2.639,15.633,15.633,0,0,1,5.756-.99,18.3,18.3,0,0,1,6.6,1.14,15.624,15.624,0,0,1,5.271,3.3Z" transform="translate(93.592 -146.753)" fill="#00a39d"/>
          <path id="path1058" d="M115.721,172.687v17.124h-5.877V172.687L93.939,146.836h5.15a1.846,1.846,0,0,1,1.242.39,3.156,3.156,0,0,1,.788.96l9.937,16.7q.545,1.05,1,1.979a16.126,16.126,0,0,1,.788,1.829q.333-.93.757-1.829.424-.93.939-1.979l9.907-16.7a3.278,3.278,0,0,1,.757-.93,1.829,1.829,0,0,1,1.242-.42h5.18Z" transform="translate(119.16 -146.356)" fill="#00a39d"/>
          <path id="path1060" d="M128.316,173.856,121.5,156.372q-.3-.78-.636-1.8-.333-1.05-.636-2.219a32.436,32.436,0,0,1-1.3,4.049l-6.816,17.454Zm12.239,15.955h-4.544a1.969,1.969,0,0,1-1.272-.39,2.4,2.4,0,0,1-.727-.99l-4.06-10.376h-19.48l-4.06,10.376a2.108,2.108,0,0,1-.7.96,1.948,1.948,0,0,1-1.272.42H99.9l17.359-42.975H123.2Z" transform="translate(147.737 -146.356)" fill="#00a39d"/>
          <path id="path1062" d="M120.077,167.649a15.2,15.2,0,0,0,4.484-.6,9.39,9.39,0,0,0,3.272-1.739,7.278,7.278,0,0,0,2-2.7,8.687,8.687,0,0,0,.667-3.449,6.837,6.837,0,0,0-2.545-5.788q-2.545-1.949-7.634-1.949H113.9v16.224Zm20.056,22.162h-5.211a2.576,2.576,0,0,1-2.363-1.23l-11.27-15.355a3.119,3.119,0,0,0-1.121-1.02,3.806,3.806,0,0,0-1.818-.33H113.9v17.934h-5.847V146.836h12.27a26.615,26.615,0,0,1,7.12.84,13.322,13.322,0,0,1,4.938,2.369,9.48,9.48,0,0,1,2.908,3.779A13.106,13.106,0,0,1,135.5,163a11.258,11.258,0,0,1-2.121,3.569,12.409,12.409,0,0,1-3.363,2.669,16.516,16.516,0,0,1-4.484,1.679,5.782,5.782,0,0,1,1.939,1.829Z" transform="translate(186.817 -146.356)" fill="#00a39d"/>
          <path id="path1064" d="M120.624,189.811h-5.877V146.836h5.877Z" transform="translate(218.928 -146.356)" fill="#00a39d"/>
          <path id="path1066" d="M145.313,173.856,138.5,156.372q-.3-.78-.636-1.8-.333-1.05-.636-2.219a32.421,32.421,0,0,1-1.3,4.049L129.1,173.856Zm12.239,15.955h-4.544a1.969,1.969,0,0,1-1.272-.39,2.4,2.4,0,0,1-.727-.99l-4.06-10.376h-19.48l-4.06,10.376a2.108,2.108,0,0,1-.7.96,1.948,1.948,0,0,1-1.273.42H116.9l17.359-42.975h5.938Z" transform="translate(229.231 -146.356)" fill="#00a39d"/>
          <path id="path1068" d="M160.22,146.836v42.975h-5.877V170.258H130.924v19.553h-5.877V146.836h5.877V166h23.418V146.836Z" transform="translate(268.311 -146.356)" fill="#00a39d"/>
          <path id="path1070" d="M63.041,200.162H57.163V157.187h5.877Z" transform="translate(-57.163 -96.728)" fill="#00a39d"/>
          <path id="path1072" d="M95.411,157.187v42.975H92.472a2.647,2.647,0,0,1-1.182-.24,3.014,3.014,0,0,1-.909-.81L65.266,166.724q.061.75.091,1.47t.03,1.35v30.619h-5.15V157.187h3.03a3.162,3.162,0,0,1,.666.06,1.228,1.228,0,0,1,.485.15,1.382,1.382,0,0,1,.424.3,3.587,3.587,0,0,1,.454.48l25.115,32.359q-.061-.78-.121-1.5-.03-.75-.03-1.409v-30.44Z" transform="translate(-42.424 -96.728)" fill="#00a39d"/>
          <path id="path1074" d="M105.994,178.689a23.982,23.982,0,0,1-1.545,8.787A19.088,19.088,0,0,1,93.3,198.632a23.919,23.919,0,0,1-8.725,1.529H68.367V157.187H84.575a23.508,23.508,0,0,1,8.725,1.56,19.03,19.03,0,0,1,6.786,4.378,19.465,19.465,0,0,1,4.363,6.778,23.983,23.983,0,0,1,1.545,8.787Zm-6.029,0a21.37,21.37,0,0,0-1.091-7.078,14.882,14.882,0,0,0-3.09-5.278,13.183,13.183,0,0,0-4.847-3.3,16.988,16.988,0,0,0-6.362-1.14H74.245v33.558H84.575a16.985,16.985,0,0,0,6.362-1.14,13.36,13.36,0,0,0,4.847-3.269,14.881,14.881,0,0,0,3.09-5.278,21.37,21.37,0,0,0,1.091-7.078Z" transform="translate(-3.444 -96.728)" fill="#00a39d"/>
          <path id="path1076" d="M118.808,179.086a24.7,24.7,0,0,1-1.545,8.877,20.294,20.294,0,0,1-4.363,6.928,19.655,19.655,0,0,1-6.786,4.529,24.742,24.742,0,0,1-17.45,0,19.72,19.72,0,0,1-6.756-4.529,20.294,20.294,0,0,1-4.363-6.928,26.187,26.187,0,0,1,0-17.724,20.235,20.235,0,0,1,4.363-6.958,19.514,19.514,0,0,1,6.756-4.558,24.315,24.315,0,0,1,17.45,0,19.45,19.45,0,0,1,6.786,4.558,20.235,20.235,0,0,1,4.363,6.958A24.462,24.462,0,0,1,118.808,179.086Zm-6.029,0a21.639,21.639,0,0,0-1.091-7.108,14.846,14.846,0,0,0-3.09-5.308,13.327,13.327,0,0,0-4.847-3.359,17.807,17.807,0,0,0-12.694,0,13.614,13.614,0,0,0-4.878,3.359,14.844,14.844,0,0,0-3.09,5.308,23.7,23.7,0,0,0,0,14.215,15.2,15.2,0,0,0,3.09,5.308,13.8,13.8,0,0,0,4.878,3.329,18.243,18.243,0,0,0,12.694,0A13.5,13.5,0,0,0,108.6,191.5a15.2,15.2,0,0,0,3.09-5.308A21.638,21.638,0,0,0,112.779,179.086Z" transform="translate(33.154 -97.125)" fill="#00a39d"/>
          <path id="path1078" d="M120.156,157.187v42.975h-2.939a2.647,2.647,0,0,1-1.181-.24,3.013,3.013,0,0,1-.909-.81L90.012,166.724q.061.75.091,1.47t.03,1.35v30.619h-5.15V157.187h3.03a3.162,3.162,0,0,1,.667.06,1.227,1.227,0,0,1,.485.15,1.381,1.381,0,0,1,.424.3,3.592,3.592,0,0,1,.454.48l25.115,32.359q-.061-.78-.121-1.5-.03-.75-.03-1.409v-30.44Z" transform="translate(76.22 -96.728)" fill="#00a39d"/>
          <path id="path1080" d="M119.894,195.424l-.03,4.738H93.112V157.187h26.751v4.738H98.99V176.2h16.9v4.558H98.99v14.665Z" transform="translate(115.2 -96.728)" fill="#00a39d"/>
          <path id="path1082" d="M124.437,164.3a2.3,2.3,0,0,1-.606.69,1.3,1.3,0,0,1-.757.21,2.175,2.175,0,0,1-1.212-.51,18.23,18.23,0,0,0-1.757-1.11,12.832,12.832,0,0,0-2.514-1.14,10.789,10.789,0,0,0-3.545-.51,10.358,10.358,0,0,0-3.484.54,7.447,7.447,0,0,0-2.515,1.409,5.9,5.9,0,0,0-1.515,2.129,6.543,6.543,0,0,0-.515,2.609,4.94,4.94,0,0,0,.879,3,8.025,8.025,0,0,0,2.363,2.009,19.6,19.6,0,0,0,3.332,1.469q1.878.6,3.817,1.26a39.75,39.75,0,0,1,3.817,1.5,12.771,12.771,0,0,1,3.333,2.069,9.242,9.242,0,0,1,2.363,3.089,10.046,10.046,0,0,1,.909,4.5,14.5,14.5,0,0,1-.969,5.308,12.122,12.122,0,0,1-2.848,4.288,13.081,13.081,0,0,1-4.575,2.879,16.861,16.861,0,0,1-6.15,1.05,19.126,19.126,0,0,1-7.7-1.5,18.247,18.247,0,0,1-5.908-4.109l1.7-2.759a2.1,2.1,0,0,1,.576-.54,1.4,1.4,0,0,1,.788-.24,1.608,1.608,0,0,1,.879.33,11.875,11.875,0,0,1,1.151.78q.636.48,1.454,1.05a12.376,12.376,0,0,0,1.848,1.05,13.931,13.931,0,0,0,2.393.81,13.709,13.709,0,0,0,3,.3,11.3,11.3,0,0,0,3.726-.57,7.894,7.894,0,0,0,2.757-1.59,7.008,7.008,0,0,0,1.757-2.489,8.194,8.194,0,0,0,.606-3.209,5.213,5.213,0,0,0-.909-3.179,7.147,7.147,0,0,0-2.333-2.1,15.856,15.856,0,0,0-3.332-1.409q-1.878-.6-3.817-1.2-1.939-.63-3.817-1.44a12.349,12.349,0,0,1-3.333-2.1,9.868,9.868,0,0,1-2.363-3.209,11.66,11.66,0,0,1-.879-4.8,11.24,11.24,0,0,1,3.484-8.187,12.955,12.955,0,0,1,4.211-2.639,15.631,15.631,0,0,1,5.756-.99,18.3,18.3,0,0,1,6.6,1.14,15.623,15.623,0,0,1,5.271,3.3Z" transform="translate(141.922 -97.125)" fill="#00a39d"/>
          <path id="path1084" d="M110.994,200.162h-5.877V157.187h5.877Z" transform="translate(172.755 -96.728)" fill="#00a39d"/>
          <path id="path1086" d="M135.683,184.207l-6.816-17.484q-.3-.78-.636-1.8-.333-1.05-.636-2.219a32.416,32.416,0,0,1-1.3,4.049l-6.816,17.454Zm12.239,15.954h-4.544a1.969,1.969,0,0,1-1.272-.39,2.4,2.4,0,0,1-.727-.99l-4.06-10.376h-19.48l-4.06,10.376a2.107,2.107,0,0,1-.7.96,1.948,1.948,0,0,1-1.272.42h-4.544l17.359-42.975h5.938Z" transform="translate(183.057 -96.728)" fill="#00a39d"/>
        </g>
      </g>
      <path id="path851" d="M56.75,266.59a30.929,30.929,0,0,0,11.567-1.824,18.305,18.305,0,0,0,7.11-4.72,15.889,15.889,0,0,0,3.5-6.544,29.108,29.108,0,0,0,.955-7.4,23.91,23.91,0,0,0-1.167-7.724,12.243,12.243,0,0,0-3.82-5.793,18.094,18.094,0,0,0-7.11-3.647,41.313,41.313,0,0,0-11.248-1.287H31.494V266.59ZM31.494,164.782V203.4H50.17a60.89,60.89,0,0,0,10.718-.858,21.622,21.622,0,0,0,8.065-3,13.292,13.292,0,0,0,5.094-5.9,21.769,21.769,0,0,0,1.8-9.441,26.361,26.361,0,0,0-1.38-9.226,13.26,13.26,0,0,0-4.245-6.008,17.751,17.751,0,0,0-7.322-3.218,48.625,48.625,0,0,0-10.4-.965ZM52.5,137.64q16.024,0,27.272,3t18.358,8.475a31.652,31.652,0,0,1,10.293,13.3,44.738,44.738,0,0,1,3.29,17.486,35.163,35.163,0,0,1-1.486,10.192,30.1,30.1,0,0,1-4.669,9.119,37.188,37.188,0,0,1-8.171,7.724A51.093,51.093,0,0,1,85.4,213.058q15.281,3.755,22.6,12.123t7.322,21.671a45.117,45.117,0,0,1-3.82,18.559,42.694,42.694,0,0,1-11.248,15.019,53.513,53.513,0,0,1-18.146,9.977,79.447,79.447,0,0,1-24.725,3.54H-4.373V137.64Z" transform="translate(0 49.988)" fill="#00a39d"/>
      <path id="path853" d="M115.9,170.805a13.136,13.136,0,0,1-3.4,3.858,7.19,7.19,0,0,1-4.457,1.286,11.55,11.55,0,0,1-5.306-1.5q-2.759-1.607-6.367-3.536a47.42,47.42,0,0,0-8.065-3.429,31.2,31.2,0,0,0-10.4-1.607q-10.081,0-15.069,4.393-4.881,4.286-4.881,11.68a10.867,10.867,0,0,0,2.971,7.822,25.767,25.767,0,0,0,7.746,5.358,92.557,92.557,0,0,0,11.036,4.179q6.261,1.822,12.734,4.179a103.1,103.1,0,0,1,12.628,5.358,41.151,41.151,0,0,1,11.036,7.93,36.429,36.429,0,0,1,7.853,11.787,41.686,41.686,0,0,1,2.971,16.609,54.765,54.765,0,0,1-3.714,20.253,47.642,47.642,0,0,1-10.824,16.5A50.306,50.306,0,0,1,95,292.965a64.893,64.893,0,0,1-23.452,3.965,75.43,75.43,0,0,1-14.75-1.5,90.425,90.425,0,0,1-14.432-4.179A87.086,87.086,0,0,1,29.2,284.713a55.984,55.984,0,0,1-10.718-8.358L29.1,259.424a10.28,10.28,0,0,1,3.29-3,8.653,8.653,0,0,1,4.563-1.286,11.74,11.74,0,0,1,6.367,2.036q3.29,2.036,7.322,4.5a61.558,61.558,0,0,0,9.444,4.5,34.9,34.9,0,0,0,12.522,2.036q9.763,0,15.175-4.286,5.412-4.394,5.412-13.823a13.1,13.1,0,0,0-2.971-8.894,22.851,22.851,0,0,0-7.853-5.679,69.353,69.353,0,0,0-10.93-3.965q-6.155-1.715-12.628-3.751a101.831,101.831,0,0,1-12.628-5.143,42.22,42.22,0,0,1-11.036-8.037A38.913,38.913,0,0,1,27.4,202.2q-2.971-7.5-2.971-18.431a44.45,44.45,0,0,1,13.8-32.04,49.854,49.854,0,0,1,16.66-10.394,60.262,60.262,0,0,1,22.6-3.965,79.317,79.317,0,0,1,13.8,1.179,66.413,66.413,0,0,1,12.84,3.322,62.633,62.633,0,0,1,11.248,5.251,49.523,49.523,0,0,1,9.444,6.858Z" transform="translate(109.604 48.703)" fill="#00a39d"/>
      <path id="path915" d="M118.346,181.163c-27.54-2.683-37.223,12.481-42.625,19.982-6.89-29.985-18.541-27.621-31.007-35.175,18.016-10.457,23.055-26.715,22.56-38.756,17.647,12.939,29.952,11.55,45.191,7.355-7.583,22.627-2.8,29.014,5.882,46.594Z" transform="translate(235.355)" fill="#f8ad3c" fill-rule="evenodd"/>
      <path id="path855" d="M78.343,296.885h-37.3V137.041c23.34,3.162,37.335,22.466,37.3,42.9Z" transform="translate(217.76 47.114)" fill="#00a39d"/>
    </g>
  </g>
</svg>
