<svg xmlns="http://www.w3.org/2000/svg" width="1000" height="500">
  <defs>
    <style>
      .c{fill:#fff}
    </style>
    <linearGradient id="a" x2="1" y1="4.7" y2="-3.6" gradientUnits="objectBoundingBox">
      <stop offset="0" stop-color="#f6ab00"/>
      <stop offset=".2" stop-color="#fff100"/>
      <stop offset=".4" stop-color="#f6ab00"/>
      <stop offset=".7" stop-color="#fff100"/>
      <stop offset=".8" stop-color="#f6ab00"/>
      <stop offset="1" stop-color="#fff100"/>
    </linearGradient>
    <clipPath id="c">
      <path d="M0 0h1000v500H0z"/>
    </clipPath>
  </defs>
  <g id="b" clip-path="url(#c)">
    <rect width="1000" height="500" fill="#00583d" rx="50"/>
    <path d="M.5 21.5C.5 12.8.4 5.5 0-1h16.4l.8 11.2h.4a26 26 0 0 1 23.2-13 21.7 21.7 0 0 1 20.8 14.1h.3a28.7 28.7 0 0 1 9.3-9.5 24.9 24.9 0 0 1 15.1-4.5c12.5 0 25.2 8.5 25.2 33V75H92.9V33c0-12.7-4.4-20.2-13.5-20.2-6.4 0-11.3 4.7-13.2 10.2a28.2 28.2 0 0 0-1 6.3V75H46.7V31c0-10.7-4.2-18.2-13-18.2-7 0-11.8 5.6-13.6 11a16.6 16.6 0 0 0-1 6.2v45H.5z" class="c" transform="translate(203.1 192.8)"/>
    <path d="M56.2 52.6a123.1 123.1 0 0 0 1 18.3h-17l-1.3-8.5h-.5a27.8 27.8 0 0 1-22.2 10.2c-15.1 0-23.6-11-23.6-22.7 0-19.2 16.8-28.9 44.6-28.7v-1.3c0-5-2-13.2-15.3-13.2a39.5 39.5 0 0 0-20.2 5.6L-2-.2A53.7 53.7 0 0 1 25.2-7c24 0 31 15.4 31 32zM37.7 33.7c-13.5-.3-26.3 2.6-26.3 14.2 0 7.5 4.8 11 10.8 11A15.4 15.4 0 0 0 37 48.3a14.2 14.2 0 0 0 .7-4.2z" class="c" transform="translate(330.5 196.9)"/>
    <path d="M.5 21.5C.5 12.8.4 5.5 0-1h16.7l1 11.4h.4A27 27 0 0 1 41.9-2.8c13.1 0 26.7 8.5 26.7 32.6V75h-19V32c0-11-4-19.2-14.3-19.2-7.6 0-12.8 5.5-14.9 11.2a19.8 19.8 0 0 0-.7 6.3V75H.5z" class="c" transform="translate(399.3 192.8)"/>
    <path d="M65.5 0v85.2c0 7.8.3 16.3.6 21.4H49l-.8-12H48a27 27 0 0 1-24.5 13.8c-18 0-32.1-15.5-32.1-39C-8.8 44 7 28.9 25 28.9c10.4 0 17.8 4.4 21.2 10h.3V0zm-19 62.3a28.2 28.2 0 0 0-.5-5 16.7 16.7 0 0 0-16.3-13.6c-12.2 0-19 11-19 25.1 0 14 6.8 24.1 18.8 24.1 7.7 0 14.5-5.3 16.4-13.6a22.5 22.5 0 0 0 .6-5.6V62.3z" class="c" transform="translate(484.7 161.1)"/>
    <path d="M-13.5 14.8H5.7v76h-19.2v-76z" class="c" transform="translate(577 177)"/>
    <path d="M-3.7 14.8h19v76h-19v-76z" class="c" transform="translate(650.9 177)"/>
    <path d="M.5 21.8C.5 11.5.4 4 0-2.7h16.5l.6 14.5h.7A20.7 20.7 0 0 1 38.2-2.7c1.9 0 3-.3 4.5 0V14a26 26 0 0 0-5.6-.6c-9 0-15.3 6-17 14.5a34.4 34.4 0 0 0-.6 6v39.3H.5z" class="c" transform="translate(595.7 194.4)"/>
    <path d="M20.7 29c-9.5-4-14.5-7.2-14.5-14.6C6.2 8 10.9 2.1 19.8 2.1a22.6 22.6 0 0 1 14 4.3L36.4.6A27.7 27.7 0 0 0 21-3.8C7.2-3.8-.7 5.2-.7 15.4c0 8.6 6.3 15 17.9 19.5C27.3 39 32 43.2 32 51c0 7.5-5.3 13.5-16.4 13.5A30.8 30.8 0 0 1-.2 59.6l-2.5 6a33.8 33.8 0 0 0 17.9 5c14.3 0 23.7-8.3 23.7-20.5 0-10.8-6.8-16.6-18.2-21" class="c" transform="translate(201.7 308.3)"/>
    <path d="M10.2 88.6a46 46 0 0 0 5-3.7c9.3-8.2 15.3-21.4 23.8-43.5l21-53h-7.4l-17.2 46c-2.1 5.8-4 11.3-5.4 15.8h-.3c-1.3-4.6-3.2-10.3-5.1-15.3L6.1-11.7h-7.4l26 66a9.3 9.3 0 0 1 1 3.1 10.3 10.3 0 0 1-1 3.1 56.4 56.4 0 0 1-11.7 18 36 36 0 0 1-5.2 4.2l2.4 6" class="c" transform="translate(245.8 317.8)"/>
    <path d="M44 24.9c0-12.8-3.8-28.2-24.2-28.2A37.7 37.7 0 0 0-.7 2.8L1.5 8c5-3.7 11.5-5.3 17.6-5.3 16.7-.2 18 13.9 18 21v1.8c-28.5-.3-42.9 9.6-42.9 26 0 9.6 6.6 19.7 20.7 19.7a26.3 26.3 0 0 0 22.4-11.9h.4l1 10.2H45a130.3 130.3 0 0 1-1-16.9zm-6.9 21.8a15.4 15.4 0 0 1-.7 4.3c-2.5 7-9 14.2-20.8 14.2-7.3 0-14-4.6-14-14.8 0-17 20.1-19.4 35.5-19v15.3z" class="c" transform="translate(314.4 307.8)"/>
    <path d="M6.2 14.2H6L5.6-.2H-.8C-.5 6.6-.2 14-.2 21V71h6.9V31.7a49.4 49.4 0 0 1 .5-6.9C9.2 13.4 16 5 25.7 5a11.6 11.6 0 0 1 3.4.3v-6.9a19.2 19.2 0 0 0-2.8-.3c-9.7 0-17 7.2-20 16" class="c" transform="translate(377.1 306.3)"/>
    <path d="M-30.7 99.3h6.9V28h-6.9z" class="c" transform="translate(446.4 278)"/>
    <path d="M44 24.9c0-12.8-3.8-28.2-24.2-28.2A37.7 37.7 0 0 0-.7 2.8L1.5 8c5-3.7 11.5-5.3 17.6-5.3 16.7-.2 18 13.9 18 21v1.8c-28.5-.3-42.9 9.6-42.9 26 0 9.6 6.6 19.7 20.7 19.7a26.4 26.4 0 0 0 22.4-11.9h.4l1 10.2H45a130.3 130.3 0 0 1-1-16.9zm-6.9 21.8a15.4 15.4 0 0 1-.7 4.3c-2.5 7-9 14.2-20.8 14.2-7.3 0-14-4.6-14-14.8 0-17 20.2-19.4 35.5-19v15.3z" class="c" transform="translate(441.6 307.8)"/>
    <path d="M27.4 16.2a26.2 26.2 0 0 0-14.2 4 26.1 26.1 0 0 0-9.6 10.4h-.3V-2h-7V89h7V45.5a20.1 20.1 0 0 1 1-7 23 23 0 0 1 21.2-16.2C40 22.3 45 34 45 47v42.2h6.9V46c0-26.4-17.8-29.8-24.4-29.8" class="c" transform="translate(507.7 288.2)"/>
    <path fill="url(#a)" fill-rule="evenodd" d="M325.8 52.2c6.4 7.2 18.4 26.6 32.4 25.4 33.1-2.8 52-38.5 92.8-36 16.8 1 24.7 29.2 41.2 31.6 26.2 3.9 51.3-36.5 94.1-34.1 17.6.9 24.8 30.4 42.3 32.1 16.3 1.6 42-21.5 64.4-33.5-5.7-9.6-16.4-24.7-27.7-25.5-22.2-1.5-40 27-59.6 22-11.4-3-24.4-34.3-43.2-34.2-34.8.1-58.8 34.6-89.5 37.3C455.5 38.8 447 0 423.7 3.6c-32 4.9-64.6 31.2-97.9 48.6z" transform="translate(107.1 92.6)"/>
  </g>
</svg>
