<svg xmlns="http://www.w3.org/2000/svg" width="1000" height="500">
  <defs>
    <clipPath id="a">
      <path d="M0 0h1000v500H0z"/>
    </clipPath>
  </defs>
  <g clip-path="url(#a)">
    <g transform="translate(70 -39)">
      <rect width="1000" height="500" fill="#e61b27" rx="50" transform="translate(-70 39)"/>
      <g fill-rule="evenodd">
        <path fill="#6c021b" d="M338 319.1h184.1V135H338zM502.1 226l-40 57.7h-99.6l44.3-57.7-44.3-55.5H460l42.1 55.5z"/>
        <path fill="#fff" d="M406.8 226h95.3l-42-55.5h-97.6z"/>
        <path fill="#e61b27" d="M502.1 226h-95.3l-44.3 57.7h99.7z"/>
      </g>
      <path fill="#fff" d="M159.3 442.4c-20.7-4.1-34.6-19.4-33.2-41.6 1.4-18 12.5-33.2 33-36 12.6-2.9 26.4 0 34.8 9.7-4.2 4-8.4 6.8-11.1 11-8.3-4-11-6.8-20.8-5.5-9.7 1.4-16.6 8.3-18 19.4-1.4 12.4 4.2 25 18 27.7h9.8c2.7 0 8.3-4.2 11-5.5 3 4 7 6.9 9.8 11a26.4 26.4 0 0 1-19.4 9.8c-2.8 0-6.2.6-9.4.6a14.6 14.6 0 0 1-4.5-.6zm145.6-1.3v-41.6l-25 41.6-24.9-41.6v41.6h-15.3v-74.9H255l25 45.7 24.9-45.7h16.6v74.9zm-98.4 0v-74.9h15.2v74.9zM338 441v-74.8h25c5.5 0 9.7 0 12.4 1.4 4.2 0 5.6 1.4 8.3 2.8s4.2 4.2 5.6 7c1.4 1.4 2.7 4.1 2.7 8.2a25.1 25.1 0 0 1-2.7 9.8 18.2 18.2 0 0 1-8.3 5.5c5.5 1.4 8.3 4.1 11 7s2.8 6.9 2.8 11 0 6.9-1.4 9.7c-1.4 4.2-4.1 5.5-6.9 8.3a19.6 19.6 0 0 1-9.7 2.7c-2.8 1.4-8.4 1.4-18.1 1.4zm14-33.2v20.8h9.7c5.5 0 9.7 0 11-1.4 1.4 0 4.2-1.4 5.6-2.8 1.4-1.3 1.4-2.7 1.4-5.5s0-4.2-1.4-5.5l-4.2-4.2c-2.8 0-6.9-1.5-13.9-1.5H352zm0-11h5.4c7 0 9.8-1.5 11.1-1.5 2.8 0 5.6 0 7-2.8 1.4-1.3 1.4-2.8 1.4-5.5 0-1.5 0-4.1-1.4-5.6-1.3-1.4-2.8-1.4-5.5-2.7h-18zm248.6 33.6a37 37 0 0 1-10.4-27.7 46.6 46.6 0 0 1 4.3-19.7 32 32 0 0 1 12.7-14c5.5-3.4 12.3-5 20.3-5 8.5 0 15.1 1.8 20.2 5.5 5 3.6 8.4 9 10.2 16.5l-8.8 2.5a20.2 20.2 0 0 0-7.5-12c-3.6-2.8-8.3-4.1-14-4.1-9 0-15.8 2.7-20.4 8.2s-6.9 12.7-6.9 21.6c0 6.7 1.2 12.1 3.4 16.5a21 21 0 0 0 9.8 10 30.2 30.2 0 0 0 14.1 3.4 35 35 0 0 0 21.7-7.7v-13.8h-21.9v-8.9H659v27.5a47.2 47.2 0 0 1-30.7 11.6 37 37 0 0 1-27.6-10.4zm122.8 9.2l-8.8-22.6h-31.1l-8.2 22.6H665l28.6-74.3h10.6l30.3 74.3zM694.9 387l-8.4 22.2h25.3l-10.3-27.4c-.7-2.2-1.7-5.1-2.6-8.8h-.2a87.5 87.5 0 0 1-3.8 14zm-121.2 52.7L565 417h-31.2l-8.2 22.6h-10.3l28.6-74.3h10.6l30.3 74.3zM545.1 387l-8.3 22.2H562l-10.3-27.4c-.7-2.2-1.7-5.1-2.6-8.8h-.1a88 88 0 0 1-3.9 14zM496 439.6v-74.3h9.9v74.3zm-27.8 0l-38.8-58.3h-.2v58.3h-9.3v-74.3h10l38.9 58.3h.2v-58.3h9.3v74.3z"/>
    </g>
  </g>
</svg>
