<?xml version="1.0" encoding="UTF-8"?>
<svg version="1.1" xmlns="http://www.w3.org/2000/svg" width="1227" height="600">
<path d="M0 0 C404.91 0 809.82 0 1227 0 C1227 198 1227 396 1227 600 C822.09 600 417.18 600 0 600 C0 402 0 204 0 0 Z " fill="#015DFC" transform="translate(0,0)"/>
<path d="M0 0 C0.9202446 -0.00570007 1.8404892 -0.01140015 2.78862 -0.01727295 C4.73252227 -0.02667722 6.67644016 -0.03323863 8.62036133 -0.03710938 C11.52780816 -0.04672156 14.43451823 -0.07774998 17.34179688 -0.109375 C29.59822731 -0.17846556 41.23766838 0.83655683 53.26171875 3.203125 C54.00850388 3.34822006 54.755289 3.49331512 55.52470398 3.64280701 C93.88748358 11.18910628 126.99033665 33.73411723 148.84375 65.97265625 C178.98187011 111.71770895 187.69888883 177.1561098 176.85253906 230.49609375 C176.65756836 231.38941406 176.46259766 232.28273438 176.26171875 233.203125 C175.91512207 234.79447266 175.91512207 234.79447266 175.56152344 236.41796875 C168.0294279 269.80552181 154.61119667 300.05585907 130.63427734 324.77490234 C129.42060828 326.03779171 128.23894213 327.33126759 127.0625 328.62890625 C104.03155019 353.32685814 64.7568607 368.10900539 31.49052429 369.30255127 C28.51020096 369.35039622 25.53148532 369.36786177 22.55078125 369.37109375 C20.91669815 369.37608635 20.91669815 369.37608635 19.24960327 369.38117981 C16.95872415 369.38621342 14.66783778 369.38858925 12.37695312 369.38842773 C8.90352118 369.39061442 5.4304072 369.40880924 1.95703125 369.42773438 C-0.28255101 369.43066915 -2.52213476 369.43265338 -4.76171875 369.43359375 C-5.78397552 369.44077927 -6.8062323 369.44796478 -7.85946655 369.45536804 C-26.54422988 369.39717637 -26.54422988 369.39717637 -29.73828125 366.203125 C-31.54467695 365.87577158 -33.35902131 365.5919602 -35.17578125 365.328125 C-63.00853306 360.82625133 -89.07648412 344.97530415 -108.73828125 325.203125 C-109.52460938 324.41679687 -110.3109375 323.63046875 -111.12109375 322.8203125 C-119.68201444 313.76844295 -136.73828125 295.24341446 -136.73828125 282.203125 C-137.39828125 282.203125 -138.05828125 282.203125 -138.73828125 282.203125 C-144.72041131 266.43866676 -149.75307327 250.81400845 -152.73828125 234.203125 C-152.87545059 233.45127426 -153.01261993 232.69942352 -153.15394592 231.92478943 C-155.71561442 217.46813895 -156.20519511 203.24580951 -156.12939453 188.58422852 C-156.11334563 184.90538201 -156.12931914 181.22764113 -156.1484375 177.54882812 C-156.16775701 157.80833469 -155.20742369 137.9989221 -149.36328125 119.015625 C-149.05511475 117.97156494 -148.74694824 116.92750488 -148.42944336 115.85180664 C-140.42632586 89.16571467 -127.6139055 64.88824806 -107.73828125 45.203125 C-107.02929688 44.44773438 -106.3203125 43.69234375 -105.58984375 42.9140625 C-78.74243195 14.74783047 -38.49994466 0.18991317 0 0 Z " fill="#FCFCFD" transform="translate(598.73828125,128.796875)"/>
<path d="M0 0 C206.78456592 0 206.78456592 0 252.5 44.4296875 C266.71664637 59.5094874 276.95626302 78.07952458 283.71875 97.5 C284.93644119 100.97983767 284.93644119 100.97983767 286.46484375 104.14453125 C288.76405703 109.42404274 289.81106237 115.08963706 291.0625 120.6875 C291.31837891 121.79544922 291.57425781 122.90339844 291.83789062 124.04492188 C295.2907437 139.23214965 297.02574099 154.11628771 297.38671875 169.6796875 C297.42500542 171.26428268 297.42500542 171.26428268 297.46406555 172.88088989 C297.51561532 175.09079367 297.56508997 177.30074677 297.61254883 179.51074219 C297.68778302 182.88770342 297.7783646 186.2640503 297.86914062 189.640625 C297.91761068 191.79945818 297.96516905 193.95831206 298.01171875 196.1171875 C298.05530769 197.62199173 298.05530769 197.62199173 298.09977722 199.15719604 C298.19139769 204.24987852 297.94194323 208.21109134 296 213 C295.62155459 214.61362479 295.2750794 216.23516586 294.96484375 217.86328125 C294.79533203 218.75080078 294.62582031 219.63832031 294.45117188 220.55273438 C294.28166016 221.46345703 294.11214844 222.37417969 293.9375 223.3125 C293.76412109 224.21162109 293.59074219 225.11074219 293.41210938 226.03710938 C292.61746597 230.24780602 291.92416199 234.41279699 291.51953125 238.6796875 C291.08461841 242.91762455 290.07861721 246.77388923 288.75 250.8125 C288.52675049 251.50480713 288.30350098 252.19711426 288.07348633 252.91040039 C286.04203618 259.09043589 283.6680581 265.06612216 281 271 C280.72317383 271.63518555 280.44634766 272.27037109 280.16113281 272.92480469 C264.41662328 308.95845515 237.71918227 332.98861953 201.5 347.625 C194.42779809 350.36558511 187.21991531 352.43683227 179.875 354.3125 C178.93462891 354.55500488 177.99425781 354.79750977 177.02539062 355.04736328 C119.66856754 368.97322201 59.02317084 359 0 359 C0 240.53 0 122.06 0 0 Z " fill="#FDFDFD" transform="translate(827,134)"/>
<path d="M0 0 C2.83664316 0.01072455 5.67265325 0.00004475 8.50927734 -0.01269531 C18.64741402 -0.02133119 28.35409904 0.37382433 38.34130859 2.26074219 C39.29569824 2.43766602 40.25008789 2.61458984 41.23339844 2.796875 C53.13310464 5.13345273 64.31886238 8.17442064 75.34130859 13.26074219 C76.51951172 13.79570312 77.69771484 14.33066406 78.91162109 14.88183594 C111.12102791 30.20785039 130.71591092 56.4350645 142.45458984 89.38574219 C144.6097481 95.90946448 146.1678115 102.54609756 147.59130859 109.26074219 C147.85451904 110.45219849 147.85451904 110.45219849 148.12304688 111.66772461 C149.56800105 118.85094031 149.34130859 124.56531421 149.34130859 132.26074219 C120.30130859 132.26074219 91.26130859 132.26074219 61.34130859 132.26074219 C60.35130859 127.64074219 59.36130859 123.02074219 58.34130859 118.26074219 C53.42018736 104.95076663 45.23241397 94.42206709 32.34130859 88.26074219 C13.71637388 80.09152172 -8.61722117 79.6193639 -27.92431641 86.40917969 C-46.21332392 94.69189775 -58.39713336 110.97252229 -65.65869141 129.26074219 C-71.72248584 146.89114146 -73.03225693 164.75962503 -73.02929688 183.2644043 C-73.03364992 186.29436363 -73.07004196 189.32283753 -73.10791016 192.35253906 C-73.2690295 220.10872658 -67.70063144 251.29913257 -47.85791016 272.23339844 C-43.75314059 276.01736897 -39.33135276 279.21727285 -34.65869141 282.26074219 C-34.03736328 282.67195313 -33.41603516 283.08316406 -32.77587891 283.50683594 C-18.39279115 291.79484839 3.02814307 292.9056413 18.90722656 289.75097656 C23.6751282 288.44614095 27.95922593 286.53003499 32.34130859 284.26074219 C33.30037109 283.7928125 34.25943359 283.32488281 35.24755859 282.84277344 C45.50456438 277.3280881 51.49160328 268.60678019 56.34130859 258.26074219 C57.99130859 252.65074219 59.64130859 247.04074219 61.34130859 241.26074219 C90.38130859 241.26074219 119.42130859 241.26074219 149.34130859 241.26074219 C149.34130859 253.6578483 149.34130859 253.6578483 148.31005859 257.84667969 C148.08084717 258.78648682 147.85163574 259.72629395 147.61547852 260.69458008 C147.36000244 261.66516357 147.10452637 262.63574707 146.84130859 263.63574219 C146.57358643 264.67013428 146.30586426 265.70452637 146.0300293 266.77026367 C140.64165321 286.88185146 132.98222357 305.3068025 119.34130859 321.26074219 C118.66583984 322.05738281 117.99037109 322.85402344 117.29443359 323.67480469 C92.92492883 351.58739348 59.52629354 364.65406902 23.34130859 369.26074219 C21.14729477 369.34826494 18.95112878 369.39130921 16.75537109 369.39355469 C14.88316895 369.39693848 14.88316895 369.39693848 12.97314453 369.40039062 C11.63752972 369.39635504 10.30191729 369.39145232 8.96630859 369.38574219 C8.28379028 369.38352661 7.60127197 369.38131104 6.89807129 369.37902832 C2.04553717 369.36064858 -2.80645932 369.3167975 -7.65869141 369.26074219 C-8.84172852 369.24817383 -10.02476562 369.23560547 -11.24365234 369.22265625 C-51.96232532 368.64011173 -89.50637351 354.25158289 -118.59619141 325.38964844 C-147.08050187 295.57013592 -159.70728398 256.40279899 -164.65869141 216.26074219 C-164.75585449 215.47610596 -164.85301758 214.69146973 -164.953125 213.88305664 C-165.93542826 204.72224105 -165.90137505 195.52614036 -165.90869141 186.32324219 C-165.90969849 185.4441217 -165.91070557 184.56500122 -165.91174316 183.65924072 C-165.89699411 164.53362406 -165.85208522 144.50319552 -159.62353516 126.21777344 C-158.82984334 123.78528476 -158.24738178 121.47154091 -157.72119141 118.97558594 C-156.69558646 114.20654787 -155.27561072 109.63093058 -153.72119141 105.01074219 C-153.46917969 104.23472656 -153.21716797 103.45871094 -152.95751953 102.65917969 C-151.56769673 98.49326583 -149.95141697 95.02009376 -147.65869141 91.26074219 C-147.1703247 90.00173077 -146.70482034 88.73372859 -146.25634766 87.45996094 C-144.65800829 83.03785415 -142.49983499 79.10461634 -140.09619141 75.07324219 C-139.43756104 73.96577637 -139.43756104 73.96577637 -138.765625 72.8359375 C-118.67374177 39.67680378 -86.68495614 15.34182153 -49.04931641 5.78417969 C-43.60778857 4.48229265 -38.16185901 3.27280807 -32.65869141 2.26074219 C-31.6598291 2.07237793 -30.6609668 1.88401367 -29.63183594 1.68994141 C-19.75475344 0.04156706 -9.99201768 -0.04487691 0 0 Z " fill="#FCFCFD" transform="translate(264.65869140625,128.7392578125)"/>
<path d="M0 0 C2.03913028 -0.00432528 4.07600473 -0.04055678 6.11474609 -0.07861328 C15.47588119 -0.15802011 23.23579782 1.35352923 32.07177734 4.37060547 C33.00908691 4.67144043 33.94639648 4.97227539 34.91210938 5.28222656 C42.17951987 7.68453887 47.45163554 12.30909222 53.07177734 17.37060547 C53.78333984 17.97646484 54.49490234 18.58232422 55.22802734 19.20654297 C73.71917663 36.010008 79.30771623 63.64023011 81.07177734 87.37060547 C82.70287181 123.05737384 80.259884 160.70691228 56.82177734 189.55810547 C49.60820722 197.41574436 40.82903908 202.35470588 31.07177734 206.37060547 C30.42337891 206.67869141 29.77498047 206.98677734 29.10693359 207.30419922 C13.45644933 214.72132214 -9.95709211 210.7332179 -25.80322266 205.68310547 C-41.44438988 199.42663858 -54.16166534 185.27670993 -60.95361328 170.07568359 C-68.17197487 152.52096991 -72.25243297 134.35199646 -72.92822266 115.37060547 C-72.96222168 114.43297363 -72.9962207 113.4953418 -73.03125 112.52929688 C-74.07253009 78.5476234 -69.61414557 43.50461876 -45.61572266 17.62060547 C-37.98559438 10.4047828 -28.684216 5.97344119 -18.92822266 2.37060547 C-18.02177002 2.02602295 -17.11531738 1.68144043 -16.18139648 1.32641602 C-10.84999387 -0.23999609 -5.52354928 -0.00130611 0 0 Z " fill="#025EFC" transform="translate(605.92822265625,209.62939453125)"/>
<path d="M0 0 C68.10833333 0 68.10833333 0 88 14 C89.02351562 14.70125 90.04703125 15.4025 91.1015625 16.125 C109.50714919 29.91651399 115.79081484 52.04586621 119.08984375 73.78125 C120.29901427 83.20119166 120.35216614 92.57664138 120.3125 102.0625 C120.31067719 102.96563934 120.30885437 103.86877869 120.30697632 104.79928589 C120.20985582 133.3802355 117.33872793 163.94124321 96.64990234 185.67797852 C91.96581174 190.32735574 86.76851686 193.81045671 81 197 C80.15050781 197.52335938 79.30101562 198.04671875 78.42578125 198.5859375 C56.83928979 211.16936731 21.00495702 207 0 207 C0 138.69 0 70.38 0 0 Z " fill="#025EFC" transform="translate(914,212)"/>
<path d="M0 0 C0.33 0 0.66 0 1 0 C1.73149213 7.89554483 2.20286963 15.75311203 2.38671875 23.6796875 C2.41224319 24.73608429 2.43776764 25.79248108 2.46406555 26.88088989 C2.51561532 29.09079367 2.56508997 31.30074677 2.61254883 33.51074219 C2.68778302 36.88770342 2.7783646 40.2640503 2.86914062 43.640625 C2.91761068 45.79945818 2.96516905 47.95831206 3.01171875 50.1171875 C3.04077805 51.12039032 3.06983734 52.12359314 3.09977722 53.15719604 C3.19059046 58.20500855 3.03680513 62.27150688 1 67 C0.67 67 0.34 67 0 67 C0 44.89 0 22.78 0 0 Z " fill="#A0C2FB" transform="translate(1122,280)"/>
<path d="M0 0 C0.7578125 1.69140625 0.7578125 1.69140625 1 4 C-0.6953125 6.40234375 -0.6953125 6.40234375 -3.125 8.9375 C-3.95128906 9.81019531 -4.77757812 10.68289063 -5.62890625 11.58203125 C-6.41136719 12.37996094 -7.19382812 13.17789062 -8 14 C-8.56589844 14.58136719 -9.13179687 15.16273438 -9.71484375 15.76171875 C-10.79582677 16.85523491 -11.89505675 17.93070008 -13 19 C-13.66 18.34 -14.32 17.68 -15 17 C-14.50371094 16.52691406 -14.00742187 16.05382812 -13.49609375 15.56640625 C-8.50124679 10.70424973 -4.14738183 5.59896548 0 0 Z " fill="#1A69F9" transform="translate(742,438)"/>
<path d="M0 0 C-2.85464968 2.32601085 -5.45014348 3.9610176 -9 5 C-11.8125 4.625 -11.8125 4.625 -14 4 C-11.97803833 1.97803833 -10.74135514 1.32448642 -8.125 0.3125 C-7.44695313 0.04050781 -6.76890625 -0.23148437 -6.0703125 -0.51171875 C-3.68892218 -1.07336741 -2.29569809 -0.76694846 0 0 Z " fill="#2271FB" transform="translate(685,486)"/>
<path d="M0 0 C0.66 0.33 1.32 0.66 2 1 C2.1875 3.8125 2.1875 3.8125 2 7 C0.5625 8.5625 0.5625 8.5625 -1 10 C-1.72197162 12.60611077 -1.72197162 12.60611077 -2 15 C-2.99 15.33 -3.98 15.66 -5 16 C-3.41078475 10.63904723 -1.81027062 5.29156027 0 0 Z " fill="#347BFA" transform="translate(1111,394)"/>
<path d="M0 0 C0.33 1.32 0.66 2.64 1 4 C-1.4375 6.75 -1.4375 6.75 -4 9 C-4.66 8.34 -5.32 7.68 -6 7 C-4.02 4.69 -2.04 2.38 0 0 Z " fill="#2272FB" transform="translate(742,438)"/>
<path d="M0 0 C-1.32 1.32 -2.64 2.64 -4 4 C-4.66 3.67 -5.32 3.34 -6 3 C-8.3400417 3.28241883 -10.67504723 3.61250787 -13 4 C-10.56272708 2.37515139 -8.62713877 1.34310925 -5.9375 0.3125 C-5.24527344 0.04050781 -4.55304688 -0.23148437 -3.83984375 -0.51171875 C-2 -1 -2 -1 0 0 Z " fill="#B1D2FD" transform="translate(299,414)"/>
<path d="M0 0 C0 0.66 0 1.32 0 2 C-4.625 4.125 -4.625 4.125 -8 3 C-8 2.34 -8 1.68 -8 1 C-5.07175348 0.02391783 -3.04386724 -0.08226668 0 0 Z " fill="#1069FB" transform="translate(327,490)"/>
<path d="M0 0 C0.33 0 0.66 0 1 0 C1.93402724 5.41735797 2.20808081 8.80451575 0 14 C-0.33 14 -0.66 14 -1 14 C-1.18451025 4.58997722 -1.18451025 4.58997722 0 0 Z " fill="#5D95F8" transform="translate(1123,333)"/>
<path d="M0 0 C2.33944736 0.28730055 4.6739143 0.61936779 7 1 C3.375 4 3.375 4 0 4 C-0.33 3.01 -0.66 2.02 -1 1 C-0.67 0.67 -0.34 0.34 0 0 Z " fill="#0C5DF2" transform="translate(625,211)"/>
<path d="M0 0 C3.96 1.98 3.96 1.98 8 4 C8 4.33 8 4.66 8 5 C5.69 4.67 3.38 4.34 1 4 C0.67 2.68 0.34 1.36 0 0 Z " fill="#1670FD" transform="translate(515,474)"/>
<path d="M0 0 C-1.04874998 2.62187494 -1.64931313 3.79371361 -4.125 5.25 C-4.74375 5.4975 -5.3625 5.745 -6 6 C-6.66 5.34 -7.32 4.68 -8 4 C-2.25 0 -2.25 0 0 0 Z " fill="#1F6EFA" transform="translate(364,470)"/>
<path d="M0 0 C0.99 0.33 1.98 0.66 3 1 C2.67 1.66 2.34 2.32 2 3 C-0.64860427 3.59355614 -3.29197322 3.74209269 -6 4 C-4.03617993 2.49440461 -2.21736634 1.10868317 0 0 Z " fill="#2471FC" transform="translate(348,479)"/>
<path d="M0 0 C-0.5625 1.9375 -0.5625 1.9375 -2 4 C-5.625 4.75 -5.625 4.75 -9 5 C-2.40909091 0 -2.40909091 0 0 0 Z " fill="#D4E8FD" transform="translate(653,408)"/>
<path d="M0 0 C0.33 0 0.66 0 1 0 C2.35384615 6.4 2.35384615 6.4 0.5625 9.4375 C0.046875 9.953125 -0.46875 10.46875 -1 11 C-1.125 3.375 -1.125 3.375 0 0 Z " fill="#ACCCFD" transform="translate(447,258)"/>
</svg>
