<?xml version="1.0" encoding="UTF-8"?>
<!DOCTYPE svg PUBLIC "-//W3C//DTD SVG 1.1//EN" "http://www.w3.org/Graphics/SVG/1.1/DTD/svg11.dtd">
<!-- Creator: CorelDRAW 2019 (64-Bit) -->
<svg xmlns="http://www.w3.org/2000/svg" xml:space="preserve" width="0.86in" height="0.433335in" version="1.1" style="shape-rendering:geometricPrecision; text-rendering:geometricPrecision; image-rendering:optimizeQuality; fill-rule:evenodd; clip-rule:evenodd"
viewBox="0 0 680.61 342.94"
 xmlns:xlink="http://www.w3.org/1999/xlink"
 xmlns:xodm="http://www.corel.com/coreldraw/odm/2003">
 <defs>
  <style type="text/css">
   <![CDATA[
    .fil0 {fill:#008CEB}
    .fil1 {fill:white}
   ]]>
  </style>
 </defs>
 <g id="Layer_x0020_1">
  <metadata id="CorelCorpID_0Corel-Layer"/>
  <rect class="fil0" x="-0" y="0" width="680.61" height="342.95" rx="32.67" ry="32.66"/>
  <g id="_2587407014736">
   <path class="fil1" d="M187 150.84c0.07,0.97 0.08,2.06 0.07,3.31 -0.02,5.15 0.53,30.11 -0.07,38.86l0 4.59c0,0 -16.67,-8.34 -31.26,-4.17 -14.58,4.17 -43.75,20.84 -62.51,4.17l0 -50.01c0,0 20.84,10.42 33.34,4.17 12.5,-6.25 45.84,-20.84 60.43,-4.17l0 3.25zm-51.13 -58.81l7.81 0c11.19,0.53 22.31,3.28 31.71,7.81 4.29,2.07 8.27,4.7 12.2,7.42 4.04,2.79 7.05,5.79 10.44,9.18 34.54,34.51 29.85,94.9 -16.6,124.22 -9.29,5.87 -25.31,11.11 -37.93,11.11 -17.98,0 -22.5,-1.47 -37.64,-7.67 -7.93,-3.25 -16.54,-10.31 -22.5,-16.27 -15.48,-15.48 -23,-34.74 -23,-57.8 0,-19.41 7.4,-34.91 18.68,-49.52l9.54 -9.61c10.85,-8.48 18.21,-12.74 31.66,-16.45 5.01,-1.38 10.28,-2.17 15.63,-2.43z"/>
   <path class="fil1" d="M187 193.02c0.6,-8.75 0.05,-33.71 0.07,-38.86 0.01,-1.26 -0,-2.35 -0.07,-3.31l0 42.17z"/>
   <path class="fil1" d="M368.17 167.24c0,-9.74 7.12,-18.22 15.88,-18.22 5.98,0 10.41,1.05 14.35,5.74 5.27,6.26 4.33,14.78 4.33,23.23l-34.57 0 0 -10.74zm-17.75 0.93l0 45.31 17.75 0 0 -17.75 34.57 0 0 17.75 17.75 0 0 -43.91c0,-10.52 -2.57,-20.04 -9.45,-27.45 -21.15,-22.75 -60.61,-9.52 -60.61,26.04z"/>
   <path class="fil1" d="M567.62 168.17c0,-5.44 1.67,-10.08 4.12,-13.16 8.72,-10.94 30.44,-7.4 30.44,13.16l0 9.81 -34.57 0 0 -9.81zm-17.75 0.93l0 44.37 17.75 0 0 -17.75 34.57 0 0 17.75 17.75 0 0 -43.91c0,-13.15 -3.34,-19.79 -9.27,-27.16 -5.54,-6.89 -15.83,-11.1 -25.33,-11.6 -4.02,-0.21 -11.15,1.59 -14.91,3.26 -5.19,2.3 -11.79,7.81 -14.76,12.8 -4.14,6.98 -5.8,13.02 -5.8,22.23z"/>
   <path class="fil1" d="M268.68 195.26l0 -46.24c12.15,0 19.28,-1.55 27.44,6.66 5.6,5.64 6.66,9.36 6.66,17.63 0,11.53 -10.2,21.76 -20.54,21.97 -2.87,0.06 -4.42,0.29 -6.6,0.44 -2.15,0.15 -4.12,-0.46 -6.96,-0.46zm13.54 -63.99l-31.29 0 0 80.8c0,1.07 0.32,1.4 1.4,1.4l29.89 0c5.84,0 11.05,-2.02 15.11,-4.04 4.45,-2.22 8.01,-4.84 11.4,-8.22 20.65,-20.6 14.18,-58.79 -18.5,-69.07 -4.05,-1.27 -4.75,-0.87 -8,-0.87z"/>
   <path class="fil1" d="M450.38 173.31l0 39.7 17.28 0 0 -42.5c0,-6.23 0.93,-11.35 3.87,-14.82 7.76,-9.14 20.81,-8.91 27.44,0.33 3.67,5.12 3.73,9.33 3.73,16.36l0 41.1 17.28 0 0 -49.98c0,-8.78 -5.36,-17.22 -10.86,-22.77 -10,-10.09 -25.91,-12.83 -39.12,-6.19 -8.77,4.41 -14.76,11.23 -17.93,20.84 -1.29,3.89 -0.98,3.91 -1.22,8.59 -0.1,2.05 -0.42,1.95 -0.48,4.19 -0.05,1.67 0.01,3.47 0.01,5.15z"/>
  </g>
 </g>
</svg>
