<?xml version="1.0" encoding="UTF-8"?>
<!DOCTYPE svg PUBLIC "-//W3C//DTD SVG 1.1//EN" "http://www.w3.org/Graphics/SVG/1.1/DTD/svg11.dtd">
<!-- Creator: CorelDRAW 2019 (64-Bit) -->
<svg xmlns="http://www.w3.org/2000/svg" xml:space="preserve" width="0.86in" height="0.433335in" version="1.1" style="shape-rendering:geometricPrecision; text-rendering:geometricPrecision; image-rendering:optimizeQuality; fill-rule:evenodd; clip-rule:evenodd"
viewBox="0 0 770.42 388.2"
 xmlns:xlink="http://www.w3.org/1999/xlink"
 xmlns:xodm="http://www.corel.com/coreldraw/odm/2003">
 <defs>
  <style type="text/css">
   <![CDATA[
    .fil2 {fill:#E82529}
    .fil0 {fill:#EA232A}
    .fil1 {fill:#FEFDFD}
   ]]>
  </style>
 </defs>
 <g id="Layer_x0020_1">
  <metadata id="CorelCorpID_0Corel-Layer"/>
  <rect class="fil0" x="-0" y="0" width="770.42" height="388.2" rx="36.98" ry="36.97"/>
  <g id="_2551978958096">
   <path class="fil1" d="M295.47 217.54c-1.28,0.34 -12.39,0.66 -13.8,0.22 -1.58,-0.5 -0.02,-2.93 0.62,-4.5l6.13 -15.49c0.72,-1.83 1.38,-3.41 2.06,-5.14 1.34,-3.38 0.97,-3.99 2.64,-4.7 0.65,3.14 2.94,27.31 2.35,29.61zm-55.49 38.63c2.34,0.82 9.16,0.41 12.3,0.4 2.92,-0.01 9.85,0.72 11.74,-0.95 1.5,-1.33 6.68,-14.89 8.01,-17.71l26.15 -0.08c1.33,3.54 0.81,15.44 2.57,17.76 1.86,2.45 14.84,1.35 18.94,1.37 3.38,0.01 6.67,0.42 6.31,-3.65 -0.23,-2.57 -1.04,-6.04 -1.5,-8.79l-11.68 -69.7c-1.09,-6.31 -0.98,-11.97 -6.53,-13.78 -2.46,-0.8 -17.31,-0.74 -19.92,-0.1 -5.93,1.45 -7.15,5.67 -9.58,10.78 -10.68,22.33 -20.89,47.02 -31.65,70.08 -1.1,2.35 -2.09,4.67 -3.14,7.06 -1.09,2.5 -2.92,4.78 -2.02,7.3z"/>
   <path class="fil1" d="M416.71 236.19c-15,3.89 -20.28,-1.82 -17.15,-17.17 1.11,-5.47 3.06,-10.3 6.27,-12.78 3.44,-2.66 9.95,-3.79 14.89,-1.35l-4.01 31.3zm-5.1 -52.75c-7.61,0.46 -15.35,2.06 -21.44,6.28 -2.24,1.55 -3.19,2.59 -4.96,4.37 -6.02,6.08 -9.52,14.93 -10.94,25.98 -3.64,28.21 6.33,38.99 34.02,38.71 7.27,-0.07 26.61,-3 29.58,-7.39 1.52,-2.25 5.84,-40.4 6.83,-48.34 0.35,-2.77 0.67,-5.48 1.04,-8.28 0.45,-3.46 1.56,-6.11 -1.51,-7.22 -8.88,-3.24 -22.53,-4.74 -32.62,-4.13z"/>
   <path class="fil1" d="M351.69 147.86c14.36,-7.69 17.75,-1.67 23.75,0.86l7.49 -52.77c20.39,-3.47 19.2,5.82 17.29,18.57 -5.49,36.64 -7.58,34.85 2.14,34.83 2.54,-0 5.09,0 7.63,0 9.82,0 8.92,1.02 9.92,-5.79 1.32,-8.95 2.68,-17.96 3.93,-26.96 1.32,-9.55 3.01,-18.52 -1.19,-27 -3.24,-6.55 -9.5,-11.24 -18.57,-12.79 -7.12,-1.22 -22.39,-0.59 -29.74,0.41 -11.8,1.61 -12.92,5.15 -14.77,16.62 -1.44,8.93 -2.77,17.88 -4.05,26.87l-3.85 27.14z"/>
   <path class="fil1" d="M223.33 323.15c1.7,1.64 12.07,6.8 14.99,8.46 7.34,4.16 9.51,4.54 18.77,2.29 12.56,-3.05 24.94,-6.15 37.73,-8.93 66.97,-14.52 158.13,-25.92 227.94,-28.24 7.02,-0.23 15.19,-0.07 22.03,-0.76 -4.44,-1.7 -34.58,-2.71 -41.55,-2.94 -14.5,-0.49 -29.15,-0.5 -43.65,-0.19 -50.94,1.08 -112.4,7.17 -162.47,15.42 -10.23,1.69 -68.36,11.66 -73.8,14.88z"/>
   <path class="fil1" d="M307.05 149.47c0.75,-2.63 3.27,-18.81 2.94,-21.47 -4.02,-1.65 -35.05,0.49 -38.93,-0.81 -4.6,-1.55 -1.71,-11.05 -1.05,-15.61l7.7 -52.99c0.84,-6.15 -2.19,-4.62 -15.26,-4.62 -11.06,0 -9.61,-1.32 -11.05,9.32 -1.6,11.85 -3.14,23.69 -4.73,35.57 -0.93,6.99 -4.9,30.15 -3.58,35.53 1.29,5.3 4.72,8.98 8.41,11.51 4.55,3.12 9.41,4.15 16.04,4.14 6.75,-0 35.81,0.79 39.51,-0.56z"/>
   <path class="fil1" d="M316.37 268.03c-0.1,2.41 3.31,11.85 4.26,14.75 1.17,3.6 1.21,4.44 5.32,3.42 2.68,-0.67 4.93,-1.38 7.44,-2.33 22.58,-8.56 25.86,-24.21 28.95,-48.25 1.48,-11.56 3.04,-22.89 4.58,-34.45 0.4,-2.97 2.76,-14.58 0.91,-16.01 -1.38,-1.07 -16.06,-0.63 -18.9,-0.54 -4.9,0.17 -4.19,4.64 -5.4,13.58 -1.88,13.87 -4.82,39.23 -7.32,50.76 -3.42,15.79 -15.24,15.42 -19.83,19.07z"/>
   <path class="fil1" d="M434.14 149.54c5.71,0 15.9,0.25 21.1,-0.22 1.26,-2.94 3.15,-20.45 3.78,-25.08 1.17,-8.48 2.36,-16.89 3.51,-25.34l5.27 -38.01c1.27,-9.17 2.64,-10.75 -1.45,-10.75l-18.65 0c-3.71,0 -2.83,1.68 -4.03,10.41l-10.77 77.79c-0.3,2.14 -0.57,4.23 -0.89,6.34 -0.43,2.91 -1.42,4.86 2.13,4.86z"/>
   <path class="fil1" d="M462.98 108.07c0.77,2.81 24.09,52.55 24.2,52.67 1.5,1.56 9.14,0.84 11.83,0.84 13.99,0 14.71,1.59 6.86,-14.42l-17.61 -38.09c1.01,-1.5 2.15,-2.47 3.2,-3.75 1.09,-1.34 2.19,-2.17 3.27,-3.5l16.48 -18.29c1.16,-1.41 2.66,-2.12 1.75,-4.5 -2.48,-1.01 -15.7,-0.42 -19.45,-0.43 -7.2,-0.03 -5.38,0.89 -11.86,8.02 -1.74,1.92 -3,3.36 -4.5,5.25l-14.15 16.21z"/>
   <path class="fil1" d="M314.26 148.84c2.18,0.92 9.15,0.5 12.21,0.5 14.67,0 10.93,3.64 14.9,-24.55 0.78,-5.54 7.11,-43.59 5.7,-45.64 -1.28,-1.87 -8.86,-1.13 -11.7,-1.13 -14.79,0 -11.26,-4.2 -15.23,24.3 -0.89,6.41 -6.93,43.24 -5.88,46.51z"/>
   <path class="fil1" d="M464.79 172.57c-1.92,0.75 -2.04,1.02 -2.32,3.43 -0.19,1.65 -0.3,3.38 -0.47,5.09l-3.98 41.31c-0.24,2.46 -1.87,8.69 0.05,10.26 1.23,1.01 8.73,0.53 10.83,0.53 5.39,0.01 6.19,1.03 7.19,-4.15 2.45,-12.62 5.08,-25.15 7.63,-37.73 0.56,-2.79 4.1,-16.94 2.76,-18.41 -1.07,-1.17 -19.68,-1.11 -21.7,-0.32z"/>
   <path class="fil2" d="M416.71 236.19l4.01 -31.3c-4.94,-2.44 -11.44,-1.31 -14.89,1.35 -3.21,2.48 -5.16,7.31 -6.27,12.78 -3.14,15.35 2.15,21.06 17.15,17.17z"/>
   <path class="fil1" d="M462.29 240.83c-6.85,1.8 -12.13,7.66 -11.96,14.92 0.38,16.24 27.97,12.86 27.51,-4.67 -0.2,-7.61 -7.32,-12.41 -15.55,-10.25z"/>
   <path class="fil1" d="M338.22 46.53c-17.08,3.87 -16.35,29.46 1.1,25.76 17.19,-3.64 16.64,-29.78 -1.1,-25.76z"/>
   <path class="fil1" d="M360.56 153.08c-18.05,3.85 -16.61,29.82 0.91,25.76 6.03,-1.4 11.6,-7.21 12.34,-13.87 0.87,-7.89 -5.29,-13.59 -13.25,-11.89z"/>
   <path class="fil2" d="M295.47 217.54c0.59,-2.3 -1.7,-26.47 -2.35,-29.61 -1.68,0.71 -1.3,1.32 -2.64,4.7 -0.68,1.72 -1.34,3.3 -2.06,5.14l-6.13 15.49c-0.65,1.58 -2.2,4.01 -0.62,4.5 1.42,0.44 12.52,0.12 13.8,-0.22z"/>
  </g>
 </g>
</svg>
