<svg xmlns="http://www.w3.org/2000/svg" width="1000" height="500">
  <defs>
    <linearGradient id="b" x2="1" y1="4.7" y2="-3.6" gradientUnits="objectBoundingBox">
      <stop offset="0" stop-color="#f6ab00"/>
      <stop offset=".2" stop-color="#fff100"/>
      <stop offset=".4" stop-color="#f6ab00"/>
      <stop offset=".7" stop-color="#fff100"/>
      <stop offset=".8" stop-color="#f6ab00"/>
      <stop offset="1" stop-color="#fff100"/>
    </linearGradient>
    <clipPath id="a">
      <path d="M0 0h1000v500H0z"/>
    </clipPath>
  </defs>
  <g clip-path="url(#a)">
    <rect width="1000" height="500" fill="#005bac" rx="50"/>
    <path fill="#fff" fill-rule="evenodd" d="M679.7 264.7h25.8v89h-25.9v-89zm-63.7 89v-61.4a377 377 0 0 0-1-27.6h23.7l1 16a24.4 24.4 0 0 1 10.7-12.5c5-2.8 11-4.2 18.3-4.2h.8v23.4l-3.6-.3a18.5 18.5 0 0 0-2 0c-6.9 0-12.2 1.6-16 4.9a16.9 16.9 0 0 0-5.7 13.6v48.1zm-39.2-89h26v89h-26v-89zm-42 89L534 341a33 33 0 0 1-11.5 10.9 32.2 32.2 0 0 1-15.3 3.6 32.1 32.1 0 0 1-26.3-12.7 52.5 52.5 0 0 1-10-33.5c0-14 3.2-25.2 9.9-33.7a31.8 31.8 0 0 1 26.2-12.6 33 33 0 0 1 15.4 3.5 31 31 0 0 1 11.4 10.4v-51h25.7v109.9l.2 11 .6 7h-25.4zm-37.7-44.4c0 9.2 1.6 16.4 4.7 21.4s7.6 7.6 13.4 7.6c5.8 0 10.5-2.6 13.8-7.8a38 38 0 0 0 5.1-21.2c0-9-1.7-16.1-5-21.2-3.5-5.2-8.1-7.8-14-7.8-5.7 0-10 2.6-13.3 7.7a40 40 0 0 0-4.7 21.3zm-122.4 44.4v-72c0-2.5 0-5.2-.2-8l-.6-9h24.6l.6 13.3c3.3-5.4 7.3-9.3 11.9-11.8s10.2-3.7 16.8-3.7c9.8 0 17.1 2.8 21.9 8.4s7.1 14 7.1 25.5v57.3h-25.5V300q0-10-3.4-14.3c-2.3-3-6-4.3-11.1-4.3-5 0-9 1.6-12 4.8-3.1 3.2-4.6 7.4-4.6 12.8v54.8zm-245.4 0v-72l-.2-9-.5-8H153l.7 13.2c3.4-5.4 7.3-9.3 12-11.8s10.2-3.7 16.8-3.7c6.7 0 12.3 1.5 17 4.5a26.4 26.4 0 0 1 10.1 13q4.4-9 11.4-13.3t17.8-4.2c9.8 0 17 2.8 21.8 8.4s7.2 14 7.2 25.5v57.3H242v-53.8q0-10-3.4-14.3c-2.3-2.9-6-4.3-11.1-4.3-5 0-9 1.6-12 4.8-3 3.2-4.4 7.5-4.4 12.8v54.8h-25.7v-53.8c0-6.6-1.2-11.3-3.4-14.3-2.2-2.9-5.9-4.4-10.9-4.4s-9 1.6-11.8 4.8-4.4 7.4-4.4 12.8v54.7h-25.7v.3zm208.1-9.3a61.3 61.3 0 0 1-22.3 10.9 38.5 38.5 0 0 1-8.8.9 25.1 25.1 0 0 1-18.7-7.9 28 28 0 0 1-7.6-20c0-6.6 1.3-12 3.8-16.1a26.3 26.3 0 0 1 11-9.8 57.9 57.9 0 0 1 17.4-5.1 269 269 0 0 1 21.5-2.3v-.5c0-21.2-30.4-18.6-43.3-9.5l-4.5-16.8a72.9 72.9 0 0 1 32.5-7.1c21.8 0 40.2 10.4 40.2 35.4v57.4h-21.1v-9.5h-.1zm-2-17.4v-17.2c-4 .3-8.2.9-12.8 1.5a50.7 50.7 0 0 0-10.4 2.3 13.7 13.7 0 0 0-6.7 4.6 12.2 12.2 0 0 0-2.2 7.8c-.1 22.6 26.2 15.3 32 1z"/>
    <path fill="url(#b)" fill-rule="evenodd" d="M325.8 64.8c8 8.9 22.8 32.9 40.2 31.4 41-3.5 64.3-47.8 115-44.6 20.8 1.3 30.6 36.2 51.1 39.2 32.5 4.7 63.7-45.3 116.7-42.4 21.8 1.2 30.8 37.8 52.5 40 20.2 1.8 52-26.8 79.7-41.6-7-12-20.3-30.7-34.3-31.6-27.5-2-49.7 33.3-74 27.1-14-3.6-30.2-42.4-53.5-42.3-43.1.2-72.9 42.9-111 46.2-21.6 1.9-32-46.2-61-41.8-39.6 6.1-80.1 38.7-121.4 60.4z" transform="translate(90.2 143.2)"/>
  </g>
</svg>
