<svg xmlns="http://www.w3.org/2000/svg" width="1000" height="500">
  <defs>
    <clipPath id="a">
      <path d="M0 0h1000v500H0z"/>
    </clipPath>
  </defs>
  <g clip-path="url(#a)">
    <rect width="1000" height="500" fill="#811897" rx="50"/>
    <g fill-rule="evenodd">
      <path fill="#40af3b" d="M176 212l14-14 14 14-14 14zm64-51c-16 15-27 20-30 39-2 19 8 58 8 58h-24s16 18 22 19a98 98 0 0 0 9 1c7 14 9 34 6 40-2 6-19 24-41 16s-45-21-49-50 10-43 23-57c-29 18-42 36-45 60s11 46 26 59c15 12 39 22 52 17 13-4 37-31 44-46l1-39s36 0 50-3 32-12 33-32c1-19-14-35-36-43 10 13 10 25 6 36s-8 15-22 18-33 4-37 0c-2-4-12-60 4-93zm12-6l27-26c57 41 69 76 77 102 7 26 8 88-31 117-40 29-89 22-109 21l26-25c24-1 52-4 77-30 25-25 38-66 22-98-15-31-60-54-89-61zm28 146l14-14 13 14-13 14zm-32 0l14-14 13 14-13 14z"/>
      <path fill="#fff" d="M388 148v7h8v69h28c7 0 15-1 21-6 5-4 7-10 7-16a20 20 0 0 0-1-6 16 16 0 0 0-3-5 17 17 0 0 0-4-4 20 20 0 0 0-6-3h-3l2-2a21 21 0 0 0 8-6 16 16 0 0 0 3-9 16 16 0 0 0-2-8 16 16 0 0 0-5-6 24 24 0 0 0-8-4 39 39 0 0 0-11-1h-34zm16 33v-26h17a40 40 0 0 1 9 0 14 14 0 0 1 6 3 10 10 0 0 1 3 4 15 15 0 0 1 1 5c0 4-1 8-4 11-4 2-9 2-14 2h-18zm0 36v-30h18a53 53 0 0 1 10 1 18 18 0 0 1 7 3 10 10 0 0 1 3 5 18 18 0 0 1 1 6c0 12-9 15-19 15zm235 7l-23-35 20-20h-9l-18 19h-7v-46h-14v7h7v75h7v-29h9l19 29h9zm-103-55h-15v7h7v48h8v-40c4-5 10-10 16-10 4 0 7 1 9 4 3 2 3 7 3 10v36h8v-36c0-13-5-20-18-20a18 18 0 0 0-8 2 26 26 0 0 0-8 6l-2 2zm-36 55h13v-7h-5v-29a30 30 0 0 0-2-10 14 14 0 0 0-4-6 16 16 0 0 0-7-3 41 41 0 0 0-9-1c-5 0-13 1-17 5-2 1-3 2-2 4h4c4-2 10-3 14-3a25 25 0 0 1 8 1 9 9 0 0 1 5 3 11 11 0 0 1 2 5v8h-6c-13 0-33 2-33 19a13 13 0 0 0 1 6 14 14 0 0 0 4 5 19 19 0 0 0 6 3 22 22 0 0 0 7 1c7 0 14-2 19-7l2-1v7zm0-13a20 20 0 0 1-4 3 19 19 0 0 1-4 3 22 22 0 0 1-5 2 22 22 0 0 1-5 0 16 16 0 0 1-10-2 9 9 0 0 1-3-8c0-12 14-13 23-13h8v15zm-37 73l-22 61h-11l-22-61v61h-13v-81h19l21 63 22-63h19v81h-13v-61zm414 49h6v12h-18v-5c-5 4-12 6-19 6a27 27 0 0 1-8-1 22 22 0 0 1-6-4 17 17 0 0 1-5-5 16 16 0 0 1-1-7c0-19 21-21 35-21h4v-6a9 9 0 0 0-2-4 7 7 0 0 0-3-2 23 23 0 0 0-8-1c-4 0-9 1-12 3s-6 2-7-1c-2-3-1-5 1-7 5-4 13-5 19-5a46 46 0 0 1 10 1 17 17 0 0 1 8 3 16 16 0 0 1 4 7 32 32 0 0 1 2 11v26zm-96 0h6v12h-18v-5c-5 4-12 6-19 6a27 27 0 0 1-8-1 22 22 0 0 1-6-4 17 17 0 0 1-5-5 16 16 0 0 1-1-7c0-19 21-21 35-21h4v-6a9 9 0 0 0-2-4 7 7 0 0 0-3-2 23 23 0 0 0-8-1c-4 0-9 1-12 3s-6 2-7-1c-2-3-1-5 1-7 5-4 13-5 19-5a46 46 0 0 1 10 1 17 17 0 0 1 8 3 16 16 0 0 1 4 7 32 32 0 0 1 2 11v26zm-139-45c4-4 10-7 16-7 9 0 15 3 18 11l1-1c5-6 11-10 18-10 15 0 20 10 20 24v41h-12v-41a26 26 0 0 0-1-6 10 10 0 0 0-1-4 6 6 0 0 0-3-2 13 13 0 0 0-4-1c-7 0-11 4-15 9v45h-13v-41a26 26 0 0 0-1-6 10 10 0 0 0-2-4 6 6 0 0 0-2-2 13 13 0 0 0-5-1c-6 0-11 4-14 9v45h-12v-51h-9v-13h21v6zm-35 45h6v12h-18v-5c-5 4-12 6-19 6a27 27 0 0 1-8-1 22 22 0 0 1-6-4 17 17 0 0 1-5-5 16 16 0 0 1-1-7c0-19 21-21 35-21h4v-6a9 9 0 0 0-2-4 7 7 0 0 0-3-2 23 23 0 0 0-8-1c-4 0-9 1-12 3s-6 2-7-1c-2-3-1-5 1-7 5-4 13-5 19-5a46 46 0 0 1 10 1 17 17 0 0 1 8 3 16 16 0 0 1 4 7 32 32 0 0 1 2 11v26zm293-40h-10v-10h10v-17h12v17h12v10h-12v34a23 23 0 0 0 0 5 7 7 0 0 0 1 2 2 2 0 0 0 1 1 6 6 0 0 0 2 0 21 21 0 0 0 3 0h4v10h-1a31 31 0 0 1-8 1 20 20 0 0 1-7-2 10 10 0 0 1-5-3 15 15 0 0 1-2-6 67 67 0 0 1 0-8v-34zm-102-22h-8v-12h20v74h10v12h-22v-74zm-270 68c-4 4-9 7-15 7-15 0-21-8-21-22v-38h13v38a22 22 0 0 0 0 5 8 8 0 0 0 2 4 6 6 0 0 0 3 2 13 13 0 0 0 4 0c6 0 11-3 15-8v-41h12v47h9v12h-21v-6h-1zm337-11v-11h-6c-7 0-21 1-21 11a6 6 0 0 0 3 6 14 14 0 0 0 8 2 25 25 0 0 0 5-1 27 27 0 0 0 4-1 20 20 0 0 0 4-3 19 19 0 0 0 3-3zm-96 0v-11h-6c-7 0-21 1-21 11a6 6 0 0 0 3 6 14 14 0 0 0 8 2 25 25 0 0 0 5-1 27 27 0 0 0 4-1 20 20 0 0 0 4-3 26 26 0 0 0 3-3zm-174 0v-11h-6c-7 0-21 1-21 11a6 6 0 0 0 3 6 14 14 0 0 0 8 2 25 25 0 0 0 5-1 27 27 0 0 0 4-1 20 20 0 0 0 4-3 15 15 0 0 0 3-3z"/>
    </g>
  </g>
</svg>
