<svg xmlns="http://www.w3.org/2000/svg" xmlns:xlink="http://www.w3.org/1999/xlink" width="1000" height="500" viewBox="0 0 1000 500">
  <defs>
    <clipPath id="clip-path">
      <path id="Path_3" data-name="Path 3" d="M0,0H1000V500H0Z"/>
    </clipPath>
  </defs>
  <g id="Group_1" data-name="Group 1" transform="translate(-80 -710)">
    <g id="cod" transform="translate(80 710)" clip-path="url(#clip-path)">
      <path id="Path_1" data-name="Path 1" d="M50,0H950a50,50,0,0,1,50,50V450a50,50,0,0,1-50,50H50A50,50,0,0,1,0,450V50A50,50,0,0,1,50,0Z" fill="#030303"/>
    </g>
    <path id="icons8-bank_building" d="M136.528,2.025a8.264,8.264,0,0,0-2.633.435L4.931,62.844A6.16,6.16,0,0,0,2,68.122v9.961a5.538,5.538,0,0,0,5.862,5.862h46.9a5.862,5.862,0,0,1,0,11.724H48.9v123.1h175.86V95.668h-5.862a5.862,5.862,0,0,1,0-11.724h46.9a5.538,5.538,0,0,0,5.862-5.862V68.122a5.634,5.634,0,0,0-3.515-5.278L139.173,2.46A8.333,8.333,0,0,0,136.528,2.025Zm-5.564,52.609h11.724V72.8C164.963,75.735,172,96.255,172,107.392H160.274c0-2.345-1.172-23.448-23.448-23.448-22.862,0-23.448,17-23.448,17.586,0,12.31,9.384,15.827,25.211,20.517,14.655,4.69,33.409,9.965,33.409,32.241,0,7.621-2.349,14.66-7.625,19.349-6.448,6.448-15.823,8.791-21.685,9.377v18.17H130.964v-18.17c-7.621-1.172-14.66-4.1-19.349-8.793-9.965-10.552-9.961-25.209-9.961-25.8h11.724s0,10.552,6.446,17.586c4.1,4.1,9.381,5.862,17,5.862,0,0,12.9,0,19.349-6.446,2.931-2.931,4.1-6.45,4.1-11.14,0-12.31-9.384-15.827-25.211-20.517-14.655-4.69-33.409-10.552-33.409-32.241,0-9.379,7.034-26.381,29.31-28.726ZM25.448,95.668v123.1H37.172V95.668Zm211.032,0v123.1H248.2V95.668ZM19.586,230.494A17.272,17.272,0,0,0,2,248.08V259.8H271.651V248.08a17.272,17.272,0,0,0-17.586-17.586Z" transform="translate(443 828.975)" fill="#fff"/>
  </g>
</svg>
