<svg xmlns="http://www.w3.org/2000/svg" viewBox="0 0 1000 500">
  <defs/>
  <path fill="#4c3494" d="M50 0h900a50 50 0 0150 50v400a50 50 0 01-50 50H50a50 50 0 01-50-50V50A50 50 0 0150 0z"/>
  <path fill="#fff" d="M311.6 151.4c-15.4-6.8-21.9-8.1-43.5-9-28.1-.7-44.5 2.4-63.6 13-17.4 9.7-38 31-47 48.9-6.7 13.6-7.5 17.8-7.5 45.1.3 27.1 1.1 31.8 7.6 45.2a117 117 0 0073 58.9c43.1 10.7 85.8-.3 115.3-30a95.6 95.6 0 0030.4-74c0-44.2-23-79.2-64.7-98.1zm-77.3 32a86 86 0 0156.3 0c35.1 14.8 52.3 60.5 36.5 96.2a85.9 85.9 0 01-36.5 35.8 89 89 0 01-54.3 1 83 83 0 01-38-35.4c-7.2-15-7.8-46.6-1.4-60.8a89 89 0 0137.4-36.7zm535-38c-18-4.5-47-4.5-64.4 0a117 117 0 00-66.3 48c-18 29-20 74.2-4.2 104.1a111.5 111.5 0 0092.8 58.9C778 359.8 819.4 338 841 297c8.4-16.6 9-19 9-47.6 0-28.9-.6-31.2-9-47.5a111.5 111.5 0 00-71.7-56.5zm-59.9 38a84.3 84.3 0 0156.3 0 86 86 0 0136.5 35.8c16.3 36.8-2 82.8-38.5 97.2a86.8 86.8 0 01-54.3-1c-27-11.6-41.8-35.5-41.8-66s14.8-54.4 41.8-66zM477 164.7l-.9 17.8-9.3.8c-7.6.8-9 1.8-7.6 5.3 10.7 27.6 48.1 105 49.5 103.8 1.4-1.6 34.3-75.5 46.7-105.2.8-1.8-2.3-3.4-8.2-3.9l-9.2-.8-.9-17.9-.8-17.6h73.3v10c0 6.9-10.6 33.7-35.4 87.5a8855.3 8855.3 0 00-42.7 95.2l-7.6 18-13.5-1.2c-10.4-.8-15.8-3-21.6-8.7-5.4-5-20.6-34.4-44-85.1a24678 24678 0 00-36.2-78.3c-.5-.6-5.6-1.1-11.5-1.4l-11-.7-.8-17.7-.9-17.6h93.4l-.8 17.6z"/>
</svg>
