<svg xmlns="http://www.w3.org/2000/svg" width="1000" height="500">
  <defs>
    <style>
      .c{clip-path:url(#a)}.d,.e{fill:#fff}.d{fill-rule:evenodd}
    </style>
    <clipPath id="a">
      <path d="M411-774h800.8v-209.3H411z" transform="translate(-411 983.3)"/>
    </clipPath>
    <clipPath id="b">
      <path d="M621.3-946.9l-.2 4 78 91.5 2.8.5.3-.2 1.4-2.5L670.3-965l-5.6-3.8-43.4 21.8z" transform="translate(-621.1 968.7)"/>
    </clipPath>
    <clipPath id="d">
      <path d="M684-967l-33.4 150.5 1.1 2.8.6.3 3.8-1 82.7-125.3v-6.6l-50.5-23.1-4.4 2.4z" transform="translate(-650.6 969.4)"/>
    </clipPath>
    <clipPath id="f">
      <path d="M639.4-982.3l-2 3.9L673-875.6l2.1 1.4h.1l2-1.1L708-978.6l-4.2-4.4-64.5.7z" transform="translate(-637.4 983)"/>
    </clipPath>
    <clipPath id="h">
      <path d="M0 0h1000v500H0z"/>
    </clipPath>
  </defs>
  <g id="g" clip-path="url(#h)">
    <g transform="translate(35)">
      <rect width="1000" height="500" fill="#3a3a3a" rx="50" transform="translate(-35)"/>
      <g transform="translate(66.6 144.8)">
        <g class="c" transform="translate(-1.6 .2)">
          <path d="M558.2-872.4l.2-5.9V-930l-.2-5-.1-2.1a5 5 0 0 0-.3-1.1 4.2 4.2 0 0 0-2.5-2.7 14.5 14.5 0 0 0-5.2-.8v-1.7h29.5a74.4 74.4 0 0 1 11.6.8 33 33 0 0 1 8.4 2.3 15 15 0 0 1 9.2 14.9c0 10-6.5 16.4-20.2 18l-2.3.4a54.6 54.6 0 0 1 9.2 1.6 23.7 23.7 0 0 1 5.6 2 18 18 0 0 1 10.7 17.5c0 9.8-4.7 16.2-14.3 19.2a48.7 48.7 0 0 1-8 1.4 99.8 99.8 0 0 1-10.5.5h-29v-1.7c3.5 0 5.8-.6 6.9-1.8a3.8 3.8 0 0 0 1-1.4 9.7 9.7 0 0 0 .3-2.7m9.1-68.6v32.8h11.5c13.4-.1 20.3-5.7 20.4-16.8.1-10.8-7.2-16.1-21.4-16zm34.2 54.3c0-7.7-2.8-13-8.3-16.1a23.2 23.2 0 0 0-6.4-2 48.6 48.6 0 0 0-8.4-.7h-11.1v38.3h11c8.1 0 14-1.5 17.6-4.6a14.2 14.2 0 0 0 4.2-6.1 25.2 25.2 0 0 0 1.4-8.8" class="d" transform="translate(-136.6 1061.9)"/>
          <path d="M609.5-866.5c-.6-1.1-1-2.6-1.2-6.2v-1l-.8.8a26.5 26.5 0 0 1-2.4 2.5 32.6 32.6 0 0 1-2.9 2.1 24.3 24.3 0 0 1-6.7 3.6 22.9 22.9 0 0 1-7.3 1c-4.7 0-8.3-1-10.9-3.2a13.5 13.5 0 0 1-3.4-5 16.7 16.7 0 0 1-1.2-6.3c0-8.4 5.2-13.9 15.7-16.3q4.2-1 9-1.6t10.5-1l.4-7.3a39.7 39.7 0 0 0-.3-6.1 14.3 14.3 0 0 0-1.3-4.1c-1.5-3-4.7-4.5-9.4-4.5-7.4 0-11.4 3.4-11.8 10.5a10.3 10.3 0 0 1-.3 2.3 1.9 1.9 0 0 1-.7 1 6.7 6.7 0 0 1-3.6.9c-3.7 0-5-1-5-2.9a9.5 9.5 0 0 1 2-5.5 16.5 16.5 0 0 1 5.3-4.7c4-2.2 9.3-3.4 15.8-3.4 7 0 11.8 1.6 14.4 4.7a12.5 12.5 0 0 1 2.3 4.8 29.4 29.4 0 0 1 .7 7.3v3.5l-.2 7.6v10.4l-.2 5c0 2.4.1 4.2.3 6.2.1 2 .8 4.2 2.4 4.8a16.9 16.9 0 0 0 6.3.9 14.4 14.4 0 0 0 5-.8 4.4 4.4 0 0 0 2.5-3.5 38.2 38.2 0 0 0 .5-7.5v-29.4c0-4-.4-6.8-1.6-8.3-1-1.4-3.1-2-6-2v-1.6l15.7-1.1v12.5l.8-1.5c2.3-4.1 5-7 8-8.8a20.7 20.7 0 0 1 11-2.6c6.6 0 11.2 2.2 14 6.6a15.1 15.1 0 0 1 2 5.4 40.8 40.8 0 0 1 .7 8.1v22.7a39.8 39.8 0 0 0 .5 7.6 4.3 4.3 0 0 0 2.4 3.4 21.5 21.5 0 0 0 5.8.8 13.3 13.3 0 0 0 4.7-.8 4.4 4.4 0 0 0 2.4-3.5 40.3 40.3 0 0 0 .4-7.5v-53.4a34 34 0 0 0-.4-6.8 3.8 3.8 0 0 0-2.4-3 16.2 16.2 0 0 0-5-.6v-1.6l16.4-.8-.5 11-.2 10.4v36l18-19.8c2.6-2.8 4-5.1 4-7 .1-2.7-2.6-3.9-7-4v-1.6h23.4v1.5a17.6 17.6 0 0 0-3.6.8 17.9 17.9 0 0 0-3.5 1.7q-1.8 1-3 2a27.1 27.1 0 0 0-3 2.6l-4.9 5.2-5.9 6.4 15.6 24.5a23.2 23.2 0 0 0 4.9 6 11.7 11.7 0 0 0 5.4 2.2v1.6h-14.2l-1.6-3-2.3-4.2-1.7-3-11.5-18.8-9 10v5.7a40 40 0 0 0 .4 7.5 4.4 4.4 0 0 0 2.4 3.5 14.3 14.3 0 0 0 5 .8v1.5h-48v-1.5c3.3-.1 5.5-.6 6.4-1.8a5 5 0 0 0 .8-1.6 9.4 9.4 0 0 0 .4-2.3l.2-3.2.1-2.8v-22.1c0-5.5-.6-9.5-1.8-12-1.9-4-5.3-6.1-10-6.1-5.4 0-9.7 2.5-12.8 7.5a24.3 24.3 0 0 0-2.8 6.5 27.2 27.2 0 0 0-1 7.1v19a39.8 39.8 0 0 0 .4 7.6 4.3 4.3 0 0 0 2.5 3.4 15 15 0 0 0 5.1.8v1.5h-23.6l-8 .2c-2.2 0-3.2-.3-5-.4-1.7-.5-2.4-1-3-2m-27.8-12.1a13.9 13.9 0 0 0 2.6 8.6 8.7 8.7 0 0 0 7 3.4 17 17 0 0 0 8.3-2.3 16.7 16.7 0 0 0 6.1-5.9 18.3 18.3 0 0 0 2-6 55.6 55.6 0 0 0 .6-9.1v-5.7a101.5 101.5 0 0 0-11.8 1.6 29.1 29.1 0 0 0-7.3 2.5c-5 2.5-7.5 6.8-7.5 12.9" class="e" transform="translate(-92 1061.3)"/>
          <path d="M434.5-897.9v19.6a28.3 28.3 0 0 0 .5 7 4.1 4.1 0 0 0 2.6 3 20.3 20.3 0 0 0 6.2.8v2.7h-30.7v-2.7a18 18 0 0 0 5.8-.8 4 4 0 0 0 2.4-3 30.3 30.3 0 0 0 .5-7v-51.5a31.5 31.5 0 0 0-.5-7 4 4 0 0 0-2.3-3 16.7 16.7 0 0 0-5.5-1v-2.6h29.2q14.8-.1 21.7 5.2t6.8 16.6q0 16-12.4 21a38 38 0 0 1-8.3 2 81.7 81.7 0 0 1-11.3.7h-4.7zm0-3h5q9.1 0 13.5-4.4a16 16 0 0 0 3.5-6.5 32 32 0 0 0 1.2-9.1q0-19.5-17-19.5h-6.2v39.5zm86.2 6.3H485a67.6 67.6 0 0 0 .6 9.6 30.3 30.3 0 0 0 2 7q4.4 10.5 13.8 10.5a16.2 16.2 0 0 0 9.5-3.1 23.2 23.2 0 0 0 7.2-8.9l2.5 1.7q-3.8 7.4-9.1 11a23.5 23.5 0 0 1-13.2 3.4c-8.1-.1-15.6-2.7-20.3-7.8s-7-12.1-7.2-21q.2-13.4 7-21.2a26 26 0 0 1 19.5-8c5.2 0 10.2 1.3 13.7 3.6a20.5 20.5 0 0 1 7.9 10.3 26.1 26.1 0 0 1 1.2 5.2 70.7 70.7 0 0 1 .6 7.7m-35.6-3h22.3q-.1-4.9-.5-7.8a25.9 25.9 0 0 0-1.2-5.3q-2.8-8.3-8.7-8.2-6.6 0-9.8 9.2a34 34 0 0 0-1.3 5.2 68.8 68.8 0 0 0-.8 6.9" class="d" transform="translate(-407 1061.9)"/>
          <path d="M450.3-924.1l19.9-1.4.2 5v6.7q6.5-11.8 15.7-12a9.5 9.5 0 0 1 6.4 2.4 7.6 7.6 0 0 1 2.6 5.7 6 6 0 0 1-2.2 4.6 8.4 8.4 0 0 1-5.4 1.8q-4.1.2-5-3.3a8.7 8.7 0 0 0-1.2-3 2.1 2.1 0 0 0-1.9-.7h-.2q-3 .2-5.9 5a20.1 20.1 0 0 0-1.9 5.1 30.3 30.3 0 0 0-.6 6.5v19.6a31.5 31.5 0 0 0 .4 6.8 3.7 3.7 0 0 0 2.4 3 18.4 18.4 0 0 0 5.6.7v2.5H450v-2.5a14.6 14.6 0 0 0 5.3-.7 3.9 3.9 0 0 0 2.3-3 32.3 32.3 0 0 0 .4-6.9v-29.2q.2-6.5-1.3-8.5t-6.3-1.7v-2.5zm68.3-1.4l.1 10.4q6.4-10.5 18.4-10.6 12.1-.1 15 11a24 24 0 0 1 7.8-8.4 19.3 19.3 0 0 1 10.3-2.6q9.3 0 13.7 6a14.4 14.4 0 0 1 2.5 5.7 40.6 40.6 0 0 1 .7 8.6v23.3a32.2 32.2 0 0 0 .5 6.8 3.9 3.9 0 0 0 2.2 3 14.6 14.6 0 0 0 5.3.7v2.5h-28.6v-2.5a13.5 13.5 0 0 0 5.1-.7 3.9 3.9 0 0 0 2.2-3 32.9 32.9 0 0 0 .4-6.9v-23q0-8.4-2-12a7 7 0 0 0-6.7-3.7q-5.6 0-9.4 5.8a18.7 18.7 0 0 0-3.3 10.7v22.2a32.6 32.6 0 0 0 .5 7 3.8 3.8 0 0 0 2.1 2.9 13.8 13.8 0 0 0 5.2.7v2.5h-28.3v-2.5a13.5 13.5 0 0 0 5.1-.7 3.9 3.9 0 0 0 2.2-3 32.9 32.9 0 0 0 .4-6.9v-23.2q.1-15.6-8.5-15.5-5.4.2-9 5.1a20.7 20.7 0 0 0-3.8 12.2v21.5a33.2 33.2 0 0 0 .5 6.9 3.8 3.8 0 0 0 2.1 3 13.8 13.8 0 0 0 5.1.6v2.5h-28.6v-2.5a15 15 0 0 0 5.3-.7 3.8 3.8 0 0 0 2.3-3 32.5 32.5 0 0 0 .5-6.8v-29.4q.1-6.4-1.3-8.3t-6.6-1.8v-2.5l20.6-1.4zm151.5 4.8v35.3a52.2 52.2 0 0 0 .3 5.7 17.2 17.2 0 0 0 .8 3.8 6.2 6.2 0 0 0 2 2.8 5.2 5.2 0 0 0 3.1 1q3.4 0 7.4-3.2l1.5 2.6a21.7 21.7 0 0 1-14.4 5.3q-8.8-.1-12-5.8a12.1 12.1 0 0 1-1-2.9 28 28 0 0 1-.4-4.3q-.2-2.7-.1-7.4v-32.9h-6v-3.1a13 13 0 0 0 5.8-1.5 11.7 11.7 0 0 0 4.2-4.1 21.8 21.8 0 0 0 2.3-4.8 44.1 44.1 0 0 0 1.6-6.5l5.2-.6-.1 4.3-.1 5.2v7.7h12.7v3.4H670z" class="e" transform="translate(-334.3 1066.2)"/>
          <path d="M553.3-881.6v2.2c-3 .2-4.3.2-7.5.2a21.6 21.6 0 0 1-7.5-.9 7.2 7.2 0 0 1-3.1-2c-.8-1.1-1.2-1.2-1.4-4.3a28 28 0 0 1-8.5 6.4 22 22 0 0 1-9.6 2.1q-7.6 0-11.9-4.2t-4.3-11.3q0-13.6 16.9-16.9a128.4 128.4 0 0 1 17.3-2v-6.8q0-8.3-1.8-11.5t-6.5-3q-5-.1-7 3.6a9.4 9.4 0 0 0-1.2 3 35.3 35.3 0 0 0-.5 4.5 5.1 5.1 0 0 1-1.7 4 7.7 7.7 0 0 1-4.8 1.2q-7.3-.1-7.4-4.9a9.6 9.6 0 0 1 1.8-5.3 15.5 15.5 0 0 1 4.8-4.5q6.6-4 17.3-4 10.9 0 15.6 4.3a11.8 11.8 0 0 1 3.1 5.1 26.4 26.4 0 0 1 1 8v9.2l-.2 9.1v5.7a56 56 0 0 0 .3 8.4c.2 1.7.5 2.5 1.7 3.5a9.4 9.4 0 0 0 5.1 1m-19.6-20v-8.2q-11.4.8-16.1 4.2T513-895q0 5.7 2.3 9a7.3 7.3 0 0 0 6.2 3.5 10.6 10.6 0 0 0 6-1.9 12.4 12.4 0 0 0 4.3-5 16.3 16.3 0 0 0 1.4-5 48.9 48.9 0 0 0 .5-7.3m110.5 20v2.3c-3.1.2-4.4.2-7.6.2a21.7 21.7 0 0 1-7.5-.9 7.2 7.2 0 0 1-3.1-2c-.7-1.1-1.2-1.2-1.4-4.3a27.9 27.9 0 0 1-8.5 6.5 22 22 0 0 1-9.5 2q-7.6 0-12-4.2t-4.3-11.3q0-13.6 16.9-16.9a128.4 128.4 0 0 1 17.3-2v-6.8q0-8.3-1.7-11.5t-6.5-3q-5-.1-7.1 3.6a9.3 9.3 0 0 0-1.1 3 35.3 35.3 0 0 0-.6 4.5 5.2 5.2 0 0 1-1.6 4 7.7 7.7 0 0 1-4.8 1.2q-7.4-.1-7.4-4.9a9.6 9.6 0 0 1 1.7-5.3 15.5 15.5 0 0 1 4.8-4.5q6.6-4 17.3-4 11 0 15.6 4.3a11.8 11.8 0 0 1 3.2 5.1 26.4 26.4 0 0 1 1 8l-.1 9.2-.1 9.1-.2 5.7a56.1 56.1 0 0 0 .4 8.4c.3 1.7.6 2.5 1.7 3.5a9.4 9.4 0 0 0 5.2 1m-19.7-20v-8.1q-11.3.7-16 4.1t-4.7 10.7q0 5.7 2.4 9a7.3 7.3 0 0 0 6.2 3.5 10.6 10.6 0 0 0 6-1.9 12.4 12.4 0 0 0 4.2-5 16.2 16.2 0 0 0 1.5-5 48.9 48.9 0 0 0 .4-7.3" class="d" transform="translate(-236.4 1076.5)"/>
          <path fill="#0097b9" d="M621.3-946.9l-.2 4 78 91.5 2.8.5.3-.2 1.4-2.5L670.3-965l-5.6-3.8-43.4 21.8z" transform="translate(3.7 1012)"/>
        </g>
        <g clip-path="url(#b)" transform="translate(623.2 43.5)">
          <path fill="#005874" fill-rule="evenodd" d="M644.5-955.5l57.7 87.7-3-.5L621-960z" transform="translate(-621.3 985.9)"/>
          <path fill="#2fb8e7" d="M649-968.7l5.7 3.8-17.5 23.2-8.1-3.5z" transform="translate(-605.4 968.6)"/>
          <path fill="#007592" d="M645-947.8l-.5 7-23.5-4.5.3-4zm8 3.6l17.6-23.3L704.2-856l-1.7 2.9-49.4-91z" transform="translate(-621.3 971.2)"/>
        </g>
        <path fill="#80b13a" d="M688.3-969.4l50.4 23.1.1 6.6-82.7 125.3-3.8 1-.6-.3-1.1-2.8L683.9-967l4.4-2.4z" transform="translate(60.2 1010.7)"/>
        <g clip-path="url(#d)" transform="translate(710.8 41.3)">
          <path fill="#6e9123" d="M738-959.5l-82.7 125.6-4.2 1.3 53.1-124z" transform="translate(-649.6 989.2)"/>
          <path fill="#3f7937" d="M695.8-943.6l-44 128.7-1.3-3.1L684-968.7l11.8 25z" transform="translate(-650.7 971)"/>
          <path fill="#a5c550" d="M703.8-961.7l.2 6.6-33.8 2.8-1.9-8.9 35.5-.5z" transform="translate(-615.6 984.8)"/>
          <path fill="#5d8b27" d="M681.2-945.7l-7.6 3.7-11.8-25 4.3-2.5 15.1 23.8z" transform="translate(-628.5 969.3)"/>
        </g>
        <path fill="#d81936" d="M637.4-978.4l2-3.9 64.5-.7 4.2 4.4-31 103.3-1.9 1.1-2.2-1.4-35.6-102.8z" transform="translate(34.2 984)"/>
        <g clip-path="url(#f)" transform="translate(671.5 1)">
          <path fill="#af2c35" d="M667.2-971.9l-4.7 5.5-25.2-12.5 2-3.9z" transform="translate(-637.5 983.4)"/>
          <path fill="#762624" d="M637.3-981.5l25.2 12.6 12.8 92-2.2-1.6-35.8-103z" transform="translate(-637.5 986)"/>
          <path fill="#b22b37" d="M649.9-968.8l33.6-12.7L652.7-878l-2.2 1.2-.7-92z" transform="translate(-612.7 985.8)"/>
          <path fill="#dc505e" d="M647.3-971.4l7.5 5.5 33.7-12.8-4.2-4.3z" transform="translate(-617.7 983)"/>
        </g>
      </g>
    </g>
  </g>
</svg>
