<?xml version="1.0" encoding="UTF-8"?>
<!DOCTYPE svg PUBLIC "-//W3C//DTD SVG 1.1//EN" "http://www.w3.org/Graphics/SVG/1.1/DTD/svg11.dtd">
<!-- Creator: CorelDRAW 2019 (64-Bit) -->
<svg xmlns="http://www.w3.org/2000/svg" xml:space="preserve" width="0.86in" height="0.433335in" version="1.1" style="shape-rendering:geometricPrecision; text-rendering:geometricPrecision; image-rendering:optimizeQuality; fill-rule:evenodd; clip-rule:evenodd"
viewBox="0 0 770.42 388.2"
 xmlns:xlink="http://www.w3.org/1999/xlink"
 xmlns:xodm="http://www.corel.com/coreldraw/odm/2003">
 <defs>
  <style type="text/css">
   <![CDATA[
    .fil0 {fill:#333333}
    .fil1 {fill:white}
   ]]>
  </style>
 </defs>
 <g id="Layer_x0020_1">
  <metadata id="CorelCorpID_0Corel-Layer"/>
  <rect class="fil0" x="-0" y="0" width="770.42" height="388.2" rx="36.98" ry="36.97"/>
  <g id="_2551982451808">
   <path class="fil1" d="M480.11 130.63l0 73.71c0,3.95 1.19,5.14 5.14,5.14l77.14 0 0 13.71 -77.14 0c-8.32,0 -5.14,12.47 -5.14,34.29l131.99 0 0 -82.28 -82.28 0c10.82,-19.26 -31.63,-15.43 82.28,-15.43l0 -34.29 -126.85 0c-3.95,0 -5.14,1.2 -5.14,5.14z"/>
   <path class="fil1" d="M284.68 159.77l97.71 0 0 15.43 -97.71 0 0 82.28 34.29 0 0 -46.28c8.71,5.83 26.79,25.91 35.57,34.72 9.57,9.6 6.68,11.84 24.37,11.62 12.01,-0.15 24.04,-0.06 36.05,-0.06 -2.15,-8.06 -2.35,-3.29 -11.6,-12.39l-36.39 -35.6c9.14,0 18.29,-0.02 27.43,0 28.77,0.1 22.28,12.64 22.28,-78.86 0,-3.95 -1.19,-5.14 -5.14,-5.14l-126.86 0 0 34.29z"/>
   <path class="fil1" d="M137.26 132.34l0 120c0,3.95 1.19,5.14 5.14,5.14l73.72 0c7.9,0 5.14,-9.64 5.14,-29.14 0,-3.95 -1.2,-5.15 -5.14,-5.15l-44.57 0 0 -97.71c-17.9,0 -34.29,-3.29 -34.29,6.86z"/>
   <path class="fil1" d="M186.97 159.77l48 0 0 44.57c0,8.32 12.47,5.14 34.29,5.14l0 -77.14c0,-4.01 -2.85,-6.86 -6.86,-6.86l-75.43 0 0 34.29z"/>
   <polygon class="fil1" points="432.11,257.48 464.68,257.48 464.68,125.49 432.11,125.49 "/>
   <path class="fil1" d="M234.97 228.34l0 70.28 34.29 0 0 -70.28c0,-7.91 -9.64,-5.15 -29.14,-5.15 -3.95,0 -5.14,1.2 -5.14,5.15z"/>
   <path class="fil1" d="M624.11 266.06c0,3.95 -1.19,5.14 -5.14,5.14l-53.14 0c0.12,5.49 -0.56,8.57 5.14,8.57l56.57 0c3.89,0 5.1,-1.16 5.14,-4.96l0 -0.18 0 -61.71 -8.57 0 0 53.14z"/>
   <path class="fil1" d="M195.55 188.92c0,-3.95 1.19,-5.14 5.14,-5.14l10.29 0 0 15.43 -15.43 0 0 -10.28zm-8.57 20.57c41.53,0 34.29,6.82 34.29,-29.14 0,-8.32 -12.47,-5.15 -34.29,-5.15l0 34.29z"/>
  </g>
 </g>
</svg>
