<?xml version="1.0" encoding="UTF-8"?>
<!DOCTYPE svg PUBLIC "-//W3C//DTD SVG 1.1//EN" "http://www.w3.org/Graphics/SVG/1.1/DTD/svg11.dtd">
<!-- Creator: CorelDRAW 2019 (64-Bit) -->
<svg xmlns="http://www.w3.org/2000/svg" xml:space="preserve" width="0.86in" height="0.433335in" version="1.1" style="shape-rendering:geometricPrecision; text-rendering:geometricPrecision; image-rendering:optimizeQuality; fill-rule:evenodd; clip-rule:evenodd"
viewBox="0 0 244.9 123.4"
 xmlns:xlink="http://www.w3.org/1999/xlink"
 xmlns:xodm="http://www.corel.com/coreldraw/odm/2003">
 <defs>
  <style type="text/css">
   <![CDATA[
    .fil0 {fill:#00579F}
    .fil2 {fill:#FAA61A}
    .fil1 {fill:white}
   ]]>
  </style>
 </defs>
 <g id="Layer_x0020_1">
  <metadata id="CorelCorpID_0Corel-Layer"/>
  <rect class="fil0" x="-0" y="0" width="244.9" height="123.4" rx="11.76" ry="11.75"/>
  <g id="_2551369071856">
   <path class="fil1" d="M177.57 53.26c0.17,0.73 0.32,1.53 0.47,2.24l1.39 6.73c0.3,1.52 0.62,2.97 0.92,4.49l0.95 4.53 -10.35 0 1.66 -4.47c0.5,-1.4 1.21,-3.15 1.65,-4.48 0.46,-1.38 1.17,-3.06 1.65,-4.48 0.27,-0.79 0.54,-1.49 0.81,-2.26l0.62 -1.73c0.04,-0.1 0.06,-0.2 0.09,-0.27l0.13 -0.29zm18.83 35.07l0 0 -11.43 0c-0.22,0 -0.18,-0.16 -0.22,-0.38l-1.41 -6.84 -16 0c-0.08,0.35 -0.21,0.61 -0.32,0.94l-2.26 6.28 -13.12 0 0.77 -1.87c0.26,-0.63 0.49,-1.19 0.75,-1.83l7.66 -18.27c0.53,-1.23 1.02,-2.41 1.53,-3.65 2.47,-6.04 5.13,-12.23 7.66,-18.27 0.55,-1.31 0.61,-1.39 1.44,-2.47 0.47,-0.61 1.58,-1.24 2.36,-1.49 1.03,-0.34 1.39,-0.24 2.23,-0.36 0.72,-0.11 9.34,-0.03 10.31,-0.03l0.64 3.03c0.21,1.05 0.43,2.01 0.63,3.04 0.4,2 0.85,4.02 1.25,6.03 1.01,5.01 2.16,10.08 3.15,15.08l1.89 9c0.4,2.05 0.85,3.98 1.25,6.03l0.94 4.53c0.08,0.38 0.29,1.11 0.3,1.51z"/>
   <path class="fil1" d="M122.1 55c0,1.78 0.16,2.79 0.76,4.29 0.44,1.1 0.98,1.91 1.67,2.84l2.81 2.73c0.84,0.69 2.47,1.75 3.42,2.24l2.93 1.52c0.28,0.14 0.49,0.24 0.76,0.38l0.74 0.41c1.67,0.99 4.3,2.44 4.3,4.67 0,2.26 -1.4,3.43 -3.33,4.19 -0.85,0.34 -1.9,0.56 -2.94,0.67 -1.43,0.15 -1.56,0.01 -2.58,0.01 -3.57,0.01 -7.64,-1.15 -10.75,-2.73 -0.42,-0.21 -0.82,-0.37 -1.22,-0.58 -0.18,0.77 -0.73,4.5 -0.89,5.43l-0.76 4.72c-0.03,0.2 -0.1,0.49 -0.1,0.74 0.21,0.05 0.46,0.19 0.69,0.27 3.62,1.37 8.65,2.25 12.49,2.25 3.75,0 6.18,-0.16 9.77,-1.18 2.23,-0.63 4.35,-1.63 6.26,-2.95 0.72,-0.5 1.92,-1.51 2.46,-2.12 0.77,-0.87 1.36,-1.63 1.97,-2.66 1.15,-1.91 1.68,-3.83 1.93,-6.07 0.18,-1.62 0.09,-3.55 -0.44,-5.12 -0.53,-1.57 -1.15,-2.74 -2.24,-4.02 -0.75,-0.88 -1.73,-1.8 -2.67,-2.5 -0.47,-0.35 -0.88,-0.65 -1.38,-0.97 -2.4,-1.57 -4.69,-2.41 -6.71,-3.63 -1.33,-0.8 -3.96,-2.26 -3.96,-4.1 0,-0.99 0.24,-1.71 0.92,-2.39 2.65,-2.68 8.72,-2.21 12.08,-1.34 0.87,0.23 2.56,0.79 3.39,1.19 1.48,0.72 1.18,0.68 1.39,-0.68 0.18,-1.16 1.48,-8.7 1.48,-9.23 -0.85,-0.45 -3.79,-1.22 -4.73,-1.41 -1.8,-0.36 -3.65,-0.57 -5.5,-0.64l-2.19 0c-4.82,0.16 -9.57,1.43 -13.48,4.13 -0.46,0.32 -0.83,0.64 -1.25,0.98l-1.15 1.08c-0.71,0.81 -1.39,1.62 -1.95,2.56 -1.06,1.78 -2,4.22 -2,7.02z"/>
   <path class="fil1" d="M72.64 66.18l-1.41 -3.21c-0.51,-1.05 -1.05,-2.06 -1.64,-3 -1.23,-1.97 -1.64,-2.41 -2.87,-4.05 -0.73,-0.98 -2.73,-3.06 -3.62,-3.9l-1.24 -1.11c-0.13,-0.1 -0.17,-0.13 -0.3,-0.24 -0.94,-0.87 -5.08,-3.87 -6.08,-4.27 0.03,0.37 0.23,0.9 0.32,1.29l3.83 14.4c0.66,2.49 1.49,5.42 2.09,7.89 0.62,2.54 1.44,5.3 2.08,7.84l1.38 5.23c0.13,0.44 0.22,0.86 0.34,1.28 0.12,0.41 0.25,0.9 0.35,1.33 0.11,0.44 0.24,0.91 0.35,1.34 0.09,0.34 0.25,1.05 0.37,1.31l13.18 0c0.11,-0.21 0.21,-0.49 0.3,-0.72 2.32,-5.79 4.75,-11.57 7.06,-17.36 1.6,-4 3.32,-8.05 4.91,-12.06l6.13 -15.05c0.21,-0.51 0.41,-0.99 0.61,-1.5 0.12,-0.31 0.58,-1.33 0.6,-1.56l-13.18 0c-0.42,0.8 -5.91,16 -6.86,18.41 -0.13,0.33 -0.24,0.65 -0.38,1l-2.68 7.25c-0.46,1.27 -1.12,2.89 -1.53,4.12 -0.08,0.23 -0.65,1.88 -0.82,2.01 0,-0.36 -0.86,-4.43 -0.97,-4.99 -0.07,-0.35 -0.24,-1.45 -0.36,-1.7z"/>
   <path class="fil1" d="M96.65 88.33l12.51 0 3.39 -21.04c0.16,-0.98 0.34,-2.02 0.5,-3.05 0.31,-2.03 0.64,-4.04 0.97,-6.01l2.68 -16.57c0.04,-0.23 0.07,-0.51 0.12,-0.78 0.04,-0.23 0.1,-0.49 0.1,-0.8l-12.33 0c-0.23,0 -0.21,0.35 -0.25,0.59l-4.28 26.46c-0.16,0.97 -0.33,1.98 -0.48,3.01 -0.29,1.97 -0.7,4.08 -0.99,6.05 -0.15,1.03 -0.32,2.03 -0.48,3.01l-1.46 9.13z"/>
   <path class="fil1" d="M55.5 46.4c1,0.4 5.13,3.4 6.08,4.27 0.13,0.12 0.17,0.14 0.3,0.24l1.24 1.11c0.89,0.84 2.89,2.92 3.62,3.9 1.23,1.64 1.64,2.08 2.87,4.05 0.59,0.94 1.13,1.94 1.64,3l1.41 3.21 -2.29 -11.72c-0.39,-1.96 -0.76,-3.9 -1.15,-5.89 -0.19,-0.93 -0.42,-1.97 -0.58,-2.91 -0.17,-1 -0.36,-2.01 -0.75,-2.8 -0.39,-0.78 -0.87,-1.39 -1.63,-1.86 -1.81,-1.1 -3.93,-0.93 -6.05,-0.93 -5.88,0 -11.75,0 -17.63,0 -0.03,0.34 -0.17,0.67 -0.18,1.02 0.6,0.14 1.19,0.33 1.79,0.49 3.88,1.09 7.9,2.81 11.32,4.81z"/>
  </g>
  <path class="fil2" d="M40.1 39.87l23.73 0c0,0 4.75,-0 5.7,6.64 0.95,6.64 2.81,18.96 2.81,18.96 0,0 -4.7,-13.26 -32.23,-25.6z"/>
 </g>
</svg>
